#N canvas 1439 164 960 977 10;
#X text 618 429 wet;
#X obj 296 93 bng 15 250 50 0 empty empty empty 17 7 0 10 #ff0400 #000000 #000000;
#N canvas 872 210 954 689 opensamples 0;
#X msg 38 76 read -resize samples/01.wav a01;
#X obj 38 97 soundfiler;
#X obj 38 153 soundfiler;
#X msg 38 131 read -resize samples/02.wav a02;
#X obj 37 213 soundfiler;
#X obj 37 269 soundfiler;
#X obj 37 330 soundfiler;
#X obj 37 386 soundfiler;
#X obj 36 446 soundfiler;
#X obj 304 98 soundfiler;
#X obj 304 154 soundfiler;
#X obj 303 214 soundfiler;
#X obj 303 270 soundfiler;
#X obj 303 331 soundfiler;
#X obj 303 387 soundfiler;
#X obj 302 447 soundfiler;
#X msg 37 192 read -resize samples/03.wav a03;
#X msg 37 247 read -resize samples/04.wav a04;
#X msg 37 309 read -resize samples/05.wav a05;
#X msg 37 364 read -resize samples/06.wav a06;
#X msg 36 425 read -resize samples/07.wav a07;
#X msg 304 77 read -resize samples/08.wav a08;
#X msg 304 132 read -resize samples/09.wav a09;
#X msg 303 193 read -resize samples/10.wav a10;
#X msg 303 248 read -resize samples/11.wav a11;
#X msg 303 310 read -resize samples/12.wav a12;
#X msg 303 365 read -resize samples/13.wav a13;
#X msg 302 426 read -resize samples/14.wav a14;
#X obj 37 36 inlet;
#X connect 0 0 1 0;
#X connect 1 0 3 0;
#X connect 2 0 16 0;
#X connect 3 0 2 0;
#X connect 4 0 17 0;
#X connect 5 0 18 0;
#X connect 6 0 19 0;
#X connect 7 0 20 0;
#X connect 8 0 21 0;
#X connect 9 0 22 0;
#X connect 10 0 23 0;
#X connect 11 0 24 0;
#X connect 12 0 25 0;
#X connect 13 0 26 0;
#X connect 14 0 27 0;
#X connect 16 0 4 0;
#X connect 17 0 5 0;
#X connect 18 0 6 0;
#X connect 19 0 7 0;
#X connect 20 0 8 0;
#X connect 21 0 9 0;
#X connect 22 0 10 0;
#X connect 23 0 11 0;
#X connect 24 0 12 0;
#X connect 25 0 13 0;
#X connect 26 0 14 0;
#X connect 27 0 15 0;
#X connect 28 0 0 0;
#X restore 296 115 pd opensamples;
#N canvas 0 22 450 278 (subpatch) 0;
#X array a01 24156 float 4;
#X coords 0 1 24155 -1 100 30 1 0 0;
#X restore 35 91 graph;
#N canvas 0 22 450 278 (subpatch) 0;
#X array a02 37331 float 4;
#X coords 0 1 37330 -1 100 30 1 0 0;
#X restore 36 147 graph;
#N canvas 0 22 450 278 (subpatch) 0;
#X array a03 17567 float 4;
#X coords 0 1 17566 -1 100 30 1 0 0;
#X restore 37 206 graph;
#N canvas 0 22 450 278 (subpatch) 0;
#X array a04 35135 float 4;
#X coords 0 1 35134 -1 100 30 1 0 0;
#X restore 38 262 graph;
#N canvas 0 22 450 278 (subpatch) 0;
#X array a05 24156 float 4;
#X coords 0 1 24155 -1 100 30 1 0 0;
#X restore 36 315 graph;
#N canvas 0 22 450 278 (subpatch) 0;
#X array a06 39526 float 4;
#X coords 0 1 39525 -1 100 30 1 0 0;
#X restore 37 371 graph;
#N canvas 0 22 450 278 (subpatch) 0;
#X array a07 28547 float 4;
#X coords 0 1 28546 -1 100 30 1 0 0;
#X restore 38 430 graph;
#N canvas 0 22 450 278 (subpatch) 0;
#X array a08 37331 float 4;
#X coords 0 1 37330 -1 100 30 1 0 0;
#X restore 161 93 graph;
#N canvas 0 22 450 278 (subpatch) 0;
#X array a09 32939 float 4;
#X coords 0 1 32938 -1 100 30 1 0 0;
#X restore 162 149 graph;
#N canvas 0 22 450 278 (subpatch) 0;
#X array a10 21960 float 4;
#X coords 0 1 21959 -1 100 30 1 0 0;
#X restore 163 208 graph;
#N canvas 0 22 450 278 (subpatch) 0;
#X array a11 15372 float 4;
#X coords 0 1 15371 -1 100 30 1 0 0;
#X restore 164 264 graph;
#N canvas 0 22 450 278 (subpatch) 0;
#X array a12 10980 float 4;
#X coords 0 1 10979 -1 100 30 1 0 0;
#X restore 162 317 graph;
#N canvas 0 22 450 278 (subpatch) 0;
#X array a13 30743 float 4;
#X coords 0 1 30742 -1 100 30 1 0 0;
#X restore 163 373 graph;
#N canvas 0 22 450 278 (subpatch) 0;
#X array a14 11894 float 4;
#X coords 0 1 11893 -1 100 30 1 0 0;
#X restore 164 432 graph;
#X obj 300 184 metro;
#X floatatom 618 164 5 0 0 0 metronome\ speed - - 16;
#X text 319 91 SETUP: open samples;
#X text 324 151 start;
#N canvas 910 251 946 700 euclidean 0;
#X obj 100 60 f;
#X obj 132 60 + 1;
#X obj 99 89 % 16;
#X obj 99 115 + 0;
#X obj 99 139 *;
#X obj 99 163 % 16;
#X obj 99 187 <;
#X obj 99 211 select 1;
#X obj 99 235 bng 15 250 50 0 empty empty empty 17 7 0 10 #fcfcfc #000000 #000000;
#X floatatom 199 71 5 0 0 1 num\ notes - - 0;
#X floatatom 156 150 5 0 0 0 - - - 0;
#X floatatom 158 182 5 0 0 0 - - - 0;
#X obj 98 21 inlet;
#X obj 201 27 inlet;
#X obj 97 287 outlet;
#X connect 0 0 1 0;
#X connect 0 0 2 0;
#X connect 1 0 0 1;
#X connect 2 0 3 0;
#X connect 3 0 4 0;
#X connect 4 0 5 0;
#X connect 4 0 10 0;
#X connect 5 0 6 0;
#X connect 5 0 11 0;
#X connect 6 0 7 0;
#X connect 7 0 8 0;
#X connect 8 0 14 0;
#X connect 9 0 4 1;
#X connect 9 0 6 1;
#X connect 12 0 0 0;
#X connect 13 0 9 0;
#X restore 301 261 pd euclidean;
#X floatatom 372 237 5 0 0 0 - - - 0;
#X obj 504 236 hsl 128 20 0.16 16 0 0 empty empty euclidean\ pattern -2 -8 0 15 #ff8300 #000000 #000000 0 1;
#X obj 370 215 int;
#N canvas 1464 194 678 710 randomsamplegenerator 0;
#X obj 78 27 inlet;
#X obj 77 82 select 0 1 2 3 4 5 6 6 7 8 9 10 11 12;
#X obj 78 53 random 12;
#X obj 345 406 *~ 1;
#X obj 166 24 bng 15 250 50 0 empty empty empty 17 7 0 10 #fcfcfc #000000 #000000;
#X floatatom 166 48 5 0 0 0 - - - 0;
#X obj 281 172 tabplay~ a14;
#X obj 268 198 tabplay~ a13;
#X obj 253 223 tabplay~ a12;
#X obj 240 247 tabplay~ a11;
#X obj 220 274 tabplay~ a10;
#X obj 203 298 tabplay~ a09;
#X obj 190 324 tabplay~ a08;
#X obj 175 349 tabplay~ a07;
#X obj 162 373 tabplay~ a06;
#X obj 148 402 tabplay~ a05;
#X obj 131 426 tabplay~ a04;
#X obj 118 452 tabplay~ a03;
#X obj 103 477 tabplay~ a02;
#X obj 90 501 tabplay~ a01;
#X obj 349 465 outlet~;
#X connect 0 0 2 0;
#X connect 0 0 4 0;
#X connect 1 0 19 0;
#X connect 1 1 18 0;
#X connect 1 2 17 0;
#X connect 1 3 16 0;
#X connect 1 4 15 0;
#X connect 1 5 14 0;
#X connect 1 6 13 0;
#X connect 1 7 12 0;
#X connect 1 8 11 0;
#X connect 1 9 10 0;
#X connect 1 10 9 0;
#X connect 1 11 8 0;
#X connect 1 12 7 0;
#X connect 1 13 6 0;
#X connect 2 0 1 0;
#X connect 2 0 5 0;
#X connect 3 0 20 0;
#X connect 6 0 3 0;
#X connect 7 0 3 0;
#X connect 8 0 3 0;
#X connect 9 0 3 0;
#X connect 10 0 3 0;
#X connect 11 0 3 0;
#X connect 12 0 3 0;
#X connect 13 0 3 0;
#X connect 14 0 3 0;
#X connect 15 0 3 0;
#X connect 16 0 3 0;
#X connect 17 0 3 0;
#X connect 18 0 3 0;
#X connect 19 0 3 0;
#X restore 301 287 pd randomsamplegenerator;
#X obj 300 150 tgl 15 0 empty empty empty 17 7 0 15 #00ff04 #000000 #000000 0 1;
#X obj 504 406 hsl 128 20 0 0.7 0 0 empty empty reverb -2 -8 0 15 #ff8300 #000000 #000000 0 1;
#N canvas 1007 308 987 869 reverb 0;
#X obj 193 61 inlet~;
#X msg 397 230 wet \$1;
#X msg 451 230 dry \$1;
#X obj 402 180 hsl 128 15 0 1 0 0 empty empty empty -2 -8 0 10 #fcfcfc #000000 #000000 0 1;
#N canvas 1 80 450 300 inv 0;
#X obj 154 69 inlet;
#X obj 154 179 outlet;
#X msg 154 124 1;
#X obj 154 97 t b f;
#X obj 154 151 -;
#X connect 0 0 3 0;
#X connect 2 0 4 0;
#X connect 3 0 2 0;
#X connect 3 1 4 1;
#X connect 4 0 1 0;
#X restore 451 203 pd inv;
#X text 385 160 dry;
#X floatatom 406 204 5 0 0 0 - - - 0;
#X text 443 160 Reverb;
#X obj 326 302 freeverb~;
#X msg 351 181 0.181;
#X text 522 159 wet;
#X obj 329 332 *~ 1;
#X obj 320 62 inlet;
#X obj 324 413 outlet~;
#X connect 0 0 8 0;
#X connect 1 0 8 0;
#X connect 2 0 8 0;
#X connect 3 0 1 0;
#X connect 3 0 4 0;
#X connect 3 0 6 0;
#X connect 4 0 2 0;
#X connect 8 0 11 0;
#X connect 9 0 3 0;
#X connect 11 0 13 0;
#X connect 12 0 3 0;
#X restore 300 426 pd reverb;
#X text 487 430 dry;
#X text 464 52 SETUP: set all orange sliders to initialize;
#N canvas 1121 292 649 436 delay 0;
#X obj 98 46 inlet~;
#X obj 105 292 *~ 1;
#X floatatom 129 154 5 0 0 0 - - - 0;
#X obj 127 110 loadbang;
#X obj 131 208 delread~ glitchdelay;
#X obj 434 164 hsl 136 16 0 0.95 0 0 empty empty empty -2 -8 0 10 #fcfcfc #000000 #000000 0 1;
#X obj 367 148 *~;
#X obj 283 97 delwrite~ glitchdelay 500;
#X msg 128 133 200, f 9;
#X text 461 185 delay volume;
#X text 190 131 delay time;
#X obj 464 52 inlet;
#X obj 131 236 *~;
#X obj 99 327 outlet~;
#X connect 0 0 1 0;
#X connect 0 0 7 0;
#X connect 1 0 13 0;
#X connect 2 0 4 0;
#X connect 3 0 8 0;
#X connect 4 0 6 0;
#X connect 4 0 12 0;
#X connect 5 0 6 1;
#X connect 5 0 12 1;
#X connect 6 0 7 0;
#X connect 8 0 2 0;
#X connect 11 0 5 0;
#X connect 12 0 1 0;
#X restore 301 337 pd delay;
#X obj 505 316 hsl 128 20 0 0.95 0 0 empty empty delay\ volume -2 -8 0 15 #ff8300 #000000 #000000 0 1;
#X text 480 345 none;
#X text 611 344 max length;
#X obj 503 492 hsl 128 20 0 1 0 0 empty empty volume -2 -8 0 15 #ff8300 #000000 #000000 0 1;
#X text 486 516 min;
#X text 617 515 max;
#N canvas 260 260 450 300 volume 0;
#X obj 172 112 inlet~;
#X obj 170 161 *~;
#X obj 252 112 inlet;
#X obj 170 192 dac~;
#X connect 0 0 1 0;
#X connect 1 0 3 0;
#X connect 1 0 3 1;
#X connect 2 0 1 1;
#X restore 300 512 pd volume;
#X obj 618 112 loadbang;
#X text 678 136 optional \, can save speed;
#X msg 618 136 336, f 7;
#X text 660 239 euclid 6 seems alright;
#X connect 1 0 2 0;
#X connect 17 0 21 0;
#X connect 18 0 17 1;
#X connect 21 0 25 0;
#X connect 22 0 21 1;
#X connect 23 0 24 0;
#X connect 24 0 22 0;
#X connect 25 0 31 0;
#X connect 26 0 17 0;
#X connect 27 0 28 1;
#X connect 28 0 38 0;
#X connect 31 0 28 0;
#X connect 32 0 31 1;
#X connect 35 0 38 1;
#X connect 39 0 41 0;
#X connect 41 0 18 0;
