#N canvas 274 119 1902 1053 12;
#X obj 63 140 s planetstart;
#X obj 63 84 tgl 50 0 empty empty empty 0 -10 0 12 #dfdfdf #000000 #000000 0 1;
#X obj 72 247 hsl 128 15 0 1 0 0 empty empty empty -2 -8 0 10 #dfdfdf #000000 #000000 0 1;
#X text 60 229 dry;
#X text 196 229 wet, f 4;
#X text 115 227 Reverb;
#X obj 69 267 s reverb;
#N canvas 700 0 1210 966 sun 0;
#X obj 341 188 mtof;
#X obj 321 251 osc~;
#X obj 363 228 * 1.015;
#X obj 481 184 * 0.503;
#X obj 363 250 osc~;
#X obj 462 252 osc~;
#X obj 323 501 *~;
#X obj 301 697 dac~;
#X obj 113 199 hsl 90 19 0 1 0 0 empty empty mid\ note -2 -10 0 12 #fcfcfc #000000 #000000 0 1;
#X msg 159 153 56;
#X obj 111 143 tgl 30 0 empty empty start\ wobbly\ notes 0 -10 0 12 #ff8300 #000000 #000000 0 1;
#X obj 114 246 hsl 90 19 0 1 0 0 empty empty bass\ note -2 -10 0 12 #fcfcfc #000000 #000000 0 1;
#X obj 338 327 *~;
#X obj 458 301 *~;
#X text 187 153 note value;
#X obj 117 364 hsl 90 19 0 0.1 0 0 empty empty volume -2 -10 0 12 #ffe3c6 #000000 #000000 0 1;
#X text 374 326 mid note;
#X text 490 300 base note;
#X obj 288 645 freeverb~;
#X msg 151 583 wet \$1;
#X msg 205 583 dry \$1;
#X obj 117 317 hsl 128 15 0 1 0 0 empty empty empty -2 -8 0 10 #ffe3c6 #000000 #000000 0 1;
#N canvas 1 80 450 300 inv 0;
#X obj 154 69 inlet;
#X obj 154 179 outlet;
#X msg 154 124 1;
#X obj 154 97 t b f;
#X obj 154 151 -;
#X connect 0 0 3 0;
#X connect 2 0 4 0;
#X connect 3 0 2 0;
#X connect 3 1 4 1;
#X connect 4 0 1 0;
#X restore 205 556 pd inv;
#X floatatom 263 581 5 0 0 0 - - - 0;
#X text 103 299 dry;
#X text 234 301 wet, f 4;
#X floatatom 163 557 5 0 0 0 - - - 0;
#X text 163 298 Reverb;
#X msg 36 466 0;
#X obj 184 67 loadbang;
#X obj 36 443 select 0 1;
#X msg 68 467 1;
#X obj 116 467 *~;
#X obj 366 520 mtof;
#X obj 320 541 lop~;
#X obj 511 223 * 1.015;
#X obj 512 250 osc~;
#X connect 0 0 1 0;
#X connect 0 0 2 0;
#X connect 0 0 3 0;
#X connect 1 0 12 0;
#X connect 2 0 4 0;
#X connect 3 0 5 0;
#X connect 3 0 35 0;
#X connect 4 0 12 0;
#X connect 5 0 13 0;
#X connect 6 0 34 0;
#X connect 8 0 12 1;
#X connect 9 0 0 0;
#X connect 9 0 33 0;
#X connect 10 0 30 0;
#X connect 10 0 9 0;
#X connect 11 0 13 1;
#X connect 12 0 6 0;
#X connect 13 0 6 0;
#X connect 15 0 32 0;
#X connect 18 0 7 0;
#X connect 18 1 7 1;
#X connect 19 0 18 0;
#X connect 20 0 18 0;
#X connect 21 0 19 0;
#X connect 21 0 22 0;
#X connect 21 0 26 0;
#X connect 22 0 20 0;
#X connect 22 0 23 0;
#X connect 28 0 32 1;
#X connect 29 0 9 0;
#X connect 30 0 28 0;
#X connect 30 1 31 0;
#X connect 31 0 32 1;
#X connect 32 0 6 1;
#X connect 33 0 34 1;
#X connect 34 0 18 0;
#X connect 34 0 18 1;
#X connect 35 0 36 0;
#X connect 36 0 13 0;
#X coords 0 -1 1 1 259 297 1 100 100;
#X restore 51 710 pd sun;
#X msg 65 199 0.6;
#X obj 68 177 loadbang;
#N canvas 1149 265 1920 976 venus 0;
#X obj 313 459 mtof;
#X obj 313 489 osc~;
#X obj 338 583 *~;
#X obj 613 64 tgl 30 0 empty empty planet 0 -10 0 12 #ff8300 #000000 #000000 0 1;
#X obj 157 231 hsl 90 15 0 0.1 0 0 empty empty volume -2 -10 0 10 #ffe3c6 #000000 #000000 0 1;
#X obj 234 635 freeverb~;
#X msg 97 580 wet \$1;
#X msg 151 580 dry \$1;
#X obj 125 499 hsl 128 15 0 1 0 0 empty empty empty -2 -8 0 10 #c6feff #000000 #000000 0 1;
#N canvas 1 80 450 300 inv 0;
#X obj 154 69 inlet;
#X obj 154 179 outlet;
#X msg 154 124 1;
#X obj 154 97 t b f;
#X obj 154 151 -;
#X connect 0 0 3 0;
#X connect 2 0 4 0;
#X connect 3 0 2 0;
#X connect 3 1 4 1;
#X connect 4 0 1 0;
#X restore 151 553 pd inv;
#X floatatom 209 578 5 0 0 0 - - - 0;
#X text 111 481 dry;
#X text 247 481 wet, f 4;
#X floatatom 109 554 5 0 0 0 - - - 0;
#X text 166 479 Reverb;
#X msg 426 308 0;
#X obj 414 4 loadbang;
#X obj 426 285 select 0 1;
#X msg 458 309 1;
#X obj 421 356 *~;
#X obj 888 707 hsl 128 15 -1 1 0 0 empty empty empty -2 -8 0 10 #ffe3c6 #000000 #000000 0 1;
#X floatatom 886 681 10 0 0 0 - - - 0;
#X obj 885 652 sin;
#X obj 881 379 metro;
#X obj 881 403 bng 19 250 50 0 empty empty empty 0 -10 0 12 #fcfcfc #000000 #000000;
#X obj 936 450 + 1;
#X floatatom 882 498 15 0 0 0 - - - 0;
#X obj 882 521 / 360;
#X obj 882 545 * 6.28319;
#X obj 882 569 * 1;
#X obj 882 337 tgl 19 0 empty empty empty 0 -10 0 12 #fcfcfc #000000 #000000 0 1;
#X msg 1015 54 10, f 4;
#X text 424 262 on and off;
#X text 301 436 note;
#X text 138 446 reverb controls;
#X text 876 309 metro sequencer;
#X text 917 56 global speed;
#X obj 136 191 hsl 128 20 -1 1 0 0 empty empty empty -2 -8 0 10 #ff8300 #000000 #000000 0 1;
#X text 764 127 planet rotation;
#X text 759 138 around sun (days);
#X obj 986 627 /;
#X msg 984 593 686.98;
#X obj 314 518 *~ 0.5;
#X obj 311 697 mtof;
#X obj 286 729 lop~;
#X text 92 765 lowpass at the note value (remove scratches);
#X obj 1014 22 loadbang;
#X text 363 163 note value;
#X text 568 154 planet position;
#X text 619 170 in orbit;
#X obj 554 9 inlet;
#X obj 612 7 r planetstart;
#X obj 473 862 dac~;
#X msg 532 160 324;
#X msg 741 159 224.7, f 22;
#X obj 882 450 int 1;
#X obj 67 445 r reverb;
#X msg 334 162 65;
#X obj 254 685 *~ 1;
#X obj 475 784 *~;
#X obj 520 784 *~;
#X obj 495 626 * 0.5;
#X obj 584 628 * -0.5;
#X obj 495 650 + 0.5;
#X obj 584 652 + 0.5;
#X connect 0 0 1 0;
#X connect 1 0 42 0;
#X connect 2 0 5 0;
#X connect 2 0 5 1;
#X connect 3 0 17 0;
#X connect 3 0 54 0;
#X connect 3 0 53 0;
#X connect 3 0 57 0;
#X connect 3 0 30 0;
#X connect 4 0 19 0;
#X connect 5 0 58 0;
#X connect 5 1 58 0;
#X connect 6 0 5 0;
#X connect 7 0 5 0;
#X connect 8 0 6 0;
#X connect 8 0 9 0;
#X connect 8 0 13 0;
#X connect 9 0 7 0;
#X connect 9 0 10 0;
#X connect 15 0 19 1;
#X connect 16 0 57 0;
#X connect 16 0 54 0;
#X connect 17 0 15 0;
#X connect 17 1 18 0;
#X connect 18 0 19 1;
#X connect 19 0 2 1;
#X connect 20 0 37 0;
#X connect 20 0 61 0;
#X connect 20 0 62 0;
#X connect 22 0 20 0;
#X connect 22 0 21 0;
#X connect 23 0 24 0;
#X connect 24 0 55 0;
#X connect 25 0 55 1;
#X connect 26 0 27 0;
#X connect 27 0 28 0;
#X connect 28 0 29 0;
#X connect 29 0 22 0;
#X connect 30 0 23 0;
#X connect 30 0 53 0;
#X connect 31 0 23 1;
#X connect 40 0 29 1;
#X connect 41 0 40 0;
#X connect 42 0 2 0;
#X connect 43 0 44 1;
#X connect 44 0 59 0;
#X connect 44 0 60 0;
#X connect 46 0 31 0;
#X connect 50 0 3 0;
#X connect 51 0 3 0;
#X connect 53 0 55 1;
#X connect 54 0 40 1;
#X connect 54 0 41 0;
#X connect 55 0 25 0;
#X connect 55 0 26 0;
#X connect 56 0 8 0;
#X connect 57 0 0 0;
#X connect 57 0 43 0;
#X connect 58 0 44 0;
#X connect 59 0 52 0;
#X connect 60 0 52 1;
#X connect 61 0 63 0;
#X connect 62 0 64 0;
#X connect 63 0 59 1;
#X connect 64 0 60 1;
#X coords 0 -1 1 1 200 230 1 100 100;
#X restore 333 298 pd venus;
#N canvas -8 0 958 966 mercury 0;
#X obj 313 459 mtof;
#X obj 313 489 osc~;
#X obj 338 583 *~;
#X obj 613 64 tgl 30 0 empty empty planet 0 -10 0 12 #ff8300 #000000 #000000 0 1;
#X obj 158 235 hsl 90 15 0 0.1 0 0 empty empty volume -2 -10 0 10 #bbbbbb #000000 #000000 0 1;
#X obj 234 635 freeverb~;
#X msg 97 580 wet \$1;
#X msg 151 580 dry \$1;
#X obj 125 499 hsl 128 15 0 1 0 0 empty empty empty -2 -8 0 10 #c6feff #000000 #000000 0 1;
#N canvas 1 80 450 300 inv 0;
#X obj 154 69 inlet;
#X obj 154 179 outlet;
#X msg 154 124 1;
#X obj 154 97 t b f;
#X obj 154 151 -;
#X connect 0 0 3 0;
#X connect 2 0 4 0;
#X connect 3 0 2 0;
#X connect 3 1 4 1;
#X connect 4 0 1 0;
#X restore 151 553 pd inv;
#X floatatom 209 578 5 0 0 0 - - - 0;
#X text 111 481 dry;
#X text 247 481 wet, f 4;
#X floatatom 109 554 5 0 0 0 - - - 0;
#X text 166 479 Reverb;
#X msg 426 308 0;
#X obj 414 4 loadbang;
#X obj 426 285 select 0 1;
#X msg 458 309 1;
#X obj 421 356 *~;
#X obj 888 707 hsl 128 15 -1 1 0 0 empty empty empty -2 -8 0 10 #ffe3c6 #000000 #000000 0 1;
#X floatatom 886 681 10 0 0 0 - - - 0;
#X obj 885 652 sin;
#X obj 881 379 metro;
#X obj 881 403 bng 19 250 50 0 empty empty empty 0 -10 0 12 #fcfcfc #000000 #000000;
#X obj 936 450 + 1;
#X floatatom 882 498 15 0 0 0 - - - 0;
#X obj 882 521 / 360;
#X obj 882 545 * 6.28319;
#X obj 882 569 * 1;
#X obj 882 337 tgl 19 0 empty empty empty 0 -10 0 12 #fcfcfc #000000 #000000 0 1;
#X msg 1015 54 10, f 4;
#X text 424 262 on and off;
#X text 301 436 note;
#X text 138 446 reverb controls;
#X text 876 309 metro sequencer;
#X text 917 56 global speed;
#X obj 138 189 hsl 128 20 -1 1 0 0 empty empty empty -2 -8 0 10 #7c7c7c #000000 #000000 0 1;
#X text 764 127 planet rotation;
#X text 759 138 around sun (days);
#X obj 986 627 /;
#X msg 984 593 686.98;
#X obj 314 518 *~ 0.5;
#X obj 311 697 mtof;
#X obj 286 729 lop~;
#X text 92 765 lowpass at the note value (remove scratches);
#X obj 1014 22 loadbang;
#X text 363 163 note value;
#X text 568 154 planet position;
#X text 619 170 in orbit;
#X obj 554 9 inlet;
#X obj 612 7 r planetstart;
#X obj 473 862 dac~;
#X obj 882 450 int 1;
#X obj 67 445 r reverb;
#X obj 254 685 *~ 1;
#X obj 475 784 *~;
#X obj 520 784 *~;
#X obj 495 626 * 0.5;
#X obj 584 628 * -0.5;
#X obj 495 650 + 0.5;
#X obj 584 652 + 0.5;
#X msg 334 162 63;
#X msg 532 160 307;
#X msg 741 159 87.97, f 22;
#X connect 0 0 1 0;
#X connect 1 0 42 0;
#X connect 2 0 5 0;
#X connect 2 0 5 1;
#X connect 3 0 17 0;
#X connect 3 0 64 0;
#X connect 3 0 63 0;
#X connect 3 0 62 0;
#X connect 3 0 30 0;
#X connect 4 0 19 0;
#X connect 5 0 55 0;
#X connect 5 1 55 0;
#X connect 6 0 5 0;
#X connect 7 0 5 0;
#X connect 8 0 6 0;
#X connect 8 0 9 0;
#X connect 8 0 13 0;
#X connect 9 0 7 0;
#X connect 9 0 10 0;
#X connect 15 0 19 1;
#X connect 16 0 62 0;
#X connect 16 0 64 0;
#X connect 17 0 15 0;
#X connect 17 1 18 0;
#X connect 18 0 19 1;
#X connect 19 0 2 1;
#X connect 20 0 37 0;
#X connect 20 0 58 0;
#X connect 20 0 59 0;
#X connect 22 0 20 0;
#X connect 22 0 21 0;
#X connect 23 0 24 0;
#X connect 24 0 53 0;
#X connect 25 0 53 1;
#X connect 26 0 27 0;
#X connect 27 0 28 0;
#X connect 28 0 29 0;
#X connect 29 0 22 0;
#X connect 30 0 23 0;
#X connect 30 0 63 0;
#X connect 31 0 23 1;
#X connect 40 0 29 1;
#X connect 41 0 40 0;
#X connect 42 0 2 0;
#X connect 43 0 44 1;
#X connect 44 0 56 0;
#X connect 44 0 57 0;
#X connect 46 0 31 0;
#X connect 50 0 3 0;
#X connect 51 0 3 0;
#X connect 53 0 25 0;
#X connect 53 0 26 0;
#X connect 54 0 8 0;
#X connect 55 0 44 0;
#X connect 56 0 52 0;
#X connect 57 0 52 1;
#X connect 58 0 60 0;
#X connect 59 0 61 0;
#X connect 60 0 56 1;
#X connect 61 0 57 1;
#X connect 62 0 0 0;
#X connect 62 0 43 0;
#X connect 63 0 53 1;
#X connect 64 0 40 1;
#X connect 64 0 41 0;
#X coords 0 -1 1 1 200 230 1 100 100;
#X restore 560 296 pd mercury;
#N canvas -8 0 958 966 earth 0;
#X obj 313 459 mtof;
#X obj 313 489 osc~;
#X obj 338 583 *~;
#X obj 613 64 tgl 30 0 empty empty planet 0 -10 0 12 #ff8300 #000000 #000000 0 1;
#X obj 158 239 hsl 90 15 0 0.1 0 0 empty empty volume -2 -10 0 10 #c6ffc7 #000000 #000000 0 1;
#X obj 234 635 freeverb~;
#X msg 97 580 wet \$1;
#X msg 151 580 dry \$1;
#X obj 125 499 hsl 128 15 0 1 0 0 empty empty empty -2 -8 0 10 #c6feff #000000 #000000 0 1;
#N canvas 1 80 450 300 inv 0;
#X obj 154 69 inlet;
#X obj 154 179 outlet;
#X msg 154 124 1;
#X obj 154 97 t b f;
#X obj 154 151 -;
#X connect 0 0 3 0;
#X connect 2 0 4 0;
#X connect 3 0 2 0;
#X connect 3 1 4 1;
#X connect 4 0 1 0;
#X restore 151 553 pd inv;
#X floatatom 209 578 5 0 0 0 - - - 0;
#X text 111 481 dry;
#X text 247 481 wet, f 4;
#X floatatom 109 554 5 0 0 0 - - - 0;
#X text 166 479 Reverb;
#X msg 426 308 0;
#X obj 414 4 loadbang;
#X obj 426 285 select 0 1;
#X msg 458 309 1;
#X obj 421 356 *~;
#X obj 888 707 hsl 128 15 -1 1 0 0 empty empty empty -2 -8 0 10 #ffe3c6 #000000 #000000 0 1;
#X floatatom 886 681 10 0 0 0 - - - 0;
#X obj 885 652 sin;
#X obj 881 379 metro;
#X obj 881 403 bng 19 250 50 0 empty empty empty 0 -10 0 12 #fcfcfc #000000 #000000;
#X obj 936 450 + 1;
#X floatatom 882 498 15 0 0 0 - - - 0;
#X obj 882 521 / 360;
#X obj 882 545 * 6.28319;
#X obj 882 569 * 1;
#X obj 882 337 tgl 19 0 empty empty empty 0 -10 0 12 #fcfcfc #000000 #000000 0 1;
#X msg 1015 54 10, f 4;
#X text 424 262 on and off;
#X text 301 436 note;
#X text 138 446 reverb controls;
#X text 876 309 metro sequencer;
#X text 917 56 global speed;
#X obj 140 199 hsl 128 20 -1 1 0 0 empty empty empty -2 -8 0 10 #00ff04 #000000 #000000 0 1;
#X text 764 127 planet rotation;
#X text 759 138 around sun (days);
#X obj 986 627 /;
#X msg 984 593 686.98;
#X obj 314 518 *~ 0.5;
#X obj 311 697 mtof;
#X obj 286 729 lop~;
#X text 92 765 lowpass at the note value (remove scratches);
#X obj 1014 22 loadbang;
#X text 363 163 note value;
#X text 568 154 planet position;
#X text 619 170 in orbit;
#X obj 554 9 inlet;
#X obj 612 7 r planetstart;
#X obj 473 862 dac~;
#X obj 882 450 int 1;
#X obj 67 445 r reverb;
#X obj 254 685 *~ 1;
#X obj 475 784 *~;
#X obj 520 784 *~;
#X obj 495 626 * 0.5;
#X obj 584 628 * -0.5;
#X obj 495 650 + 0.5;
#X obj 584 652 + 0.5;
#X msg 334 162 61;
#X msg 532 160 244;
#X msg 741 159 365.26, f 22;
#X connect 0 0 1 0;
#X connect 1 0 42 0;
#X connect 2 0 5 0;
#X connect 2 0 5 1;
#X connect 3 0 17 0;
#X connect 3 0 64 0;
#X connect 3 0 63 0;
#X connect 3 0 62 0;
#X connect 3 0 30 0;
#X connect 4 0 19 0;
#X connect 5 0 55 0;
#X connect 5 1 55 0;
#X connect 6 0 5 0;
#X connect 7 0 5 0;
#X connect 8 0 6 0;
#X connect 8 0 9 0;
#X connect 8 0 13 0;
#X connect 9 0 7 0;
#X connect 9 0 10 0;
#X connect 15 0 19 1;
#X connect 16 0 62 0;
#X connect 16 0 64 0;
#X connect 17 0 15 0;
#X connect 17 1 18 0;
#X connect 18 0 19 1;
#X connect 19 0 2 1;
#X connect 20 0 37 0;
#X connect 20 0 58 0;
#X connect 20 0 59 0;
#X connect 22 0 20 0;
#X connect 22 0 21 0;
#X connect 23 0 24 0;
#X connect 24 0 53 0;
#X connect 25 0 53 1;
#X connect 26 0 27 0;
#X connect 27 0 28 0;
#X connect 28 0 29 0;
#X connect 29 0 22 0;
#X connect 30 0 23 0;
#X connect 30 0 63 0;
#X connect 31 0 23 1;
#X connect 40 0 29 1;
#X connect 41 0 40 0;
#X connect 42 0 2 0;
#X connect 43 0 44 1;
#X connect 44 0 56 0;
#X connect 44 0 57 0;
#X connect 46 0 31 0;
#X connect 50 0 3 0;
#X connect 51 0 3 0;
#X connect 53 0 25 0;
#X connect 53 0 26 0;
#X connect 54 0 8 0;
#X connect 55 0 44 0;
#X connect 56 0 52 0;
#X connect 57 0 52 1;
#X connect 58 0 60 0;
#X connect 59 0 61 0;
#X connect 60 0 56 1;
#X connect 61 0 57 1;
#X connect 62 0 0 0;
#X connect 62 0 43 0;
#X connect 63 0 53 1;
#X connect 64 0 40 1;
#X connect 64 0 41 0;
#X coords 0 -1 1 1 200 230 1 100 100;
#X restore 332 541 pd earth;
#N canvas -8 0 958 966 mars 0;
#X obj 313 459 mtof;
#X obj 313 489 osc~;
#X obj 338 583 *~;
#X obj 613 64 tgl 30 0 empty empty planet 0 -10 0 12 #ff8300 #000000 #000000 0 1;
#X obj 159 229 hsl 90 15 0 0.1 0 0 empty empty volume -2 -10 0 10 #ffc7c6 #000000 #000000 0 1;
#X obj 234 635 freeverb~;
#X msg 97 580 wet \$1;
#X msg 151 580 dry \$1;
#X obj 125 499 hsl 128 15 0 1 0 0 empty empty empty -2 -8 0 10 #c6feff #000000 #000000 0 1;
#N canvas 1 80 450 300 inv 0;
#X obj 154 69 inlet;
#X obj 154 179 outlet;
#X msg 154 124 1;
#X obj 154 97 t b f;
#X obj 154 151 -;
#X connect 0 0 3 0;
#X connect 2 0 4 0;
#X connect 3 0 2 0;
#X connect 3 1 4 1;
#X connect 4 0 1 0;
#X restore 151 553 pd inv;
#X floatatom 209 578 5 0 0 0 - - - 0;
#X text 111 481 dry;
#X text 247 481 wet, f 4;
#X floatatom 109 554 5 0 0 0 - - - 0;
#X text 166 479 Reverb;
#X msg 426 308 0;
#X obj 414 4 loadbang;
#X obj 426 285 select 0 1;
#X msg 458 309 1;
#X obj 421 356 *~;
#X obj 888 707 hsl 128 15 -1 1 0 0 empty empty empty -2 -8 0 10 #ffe3c6 #000000 #000000 0 1;
#X floatatom 886 681 10 0 0 0 - - - 0;
#X obj 885 652 sin;
#X obj 881 379 metro;
#X obj 881 403 bng 19 250 50 0 empty empty empty 0 -10 0 12 #fcfcfc #000000 #000000;
#X obj 936 450 + 1;
#X floatatom 882 498 15 0 0 0 - - - 0;
#X obj 882 521 / 360;
#X obj 882 545 * 6.28319;
#X obj 882 569 * 1;
#X obj 882 337 tgl 19 0 empty empty empty 0 -10 0 12 #fcfcfc #000000 #000000 0 1;
#X msg 1015 54 10, f 4;
#X text 424 262 on and off;
#X text 301 436 note;
#X text 138 446 reverb controls;
#X text 876 309 metro sequencer;
#X text 917 56 global speed;
#X obj 139 189 hsl 128 20 -1 1 0 0 empty empty empty -2 -8 0 10 #ff0400 #000000 #000000 0 1;
#X text 764 127 planet rotation;
#X text 759 138 around sun (days);
#X obj 986 627 /;
#X msg 984 593 686.98;
#X obj 314 518 *~ 0.5;
#X obj 311 697 mtof;
#X obj 286 729 lop~;
#X text 92 765 lowpass at the note value (remove scratches);
#X obj 1014 22 loadbang;
#X text 363 163 note value;
#X text 568 154 planet position;
#X text 619 170 in orbit;
#X obj 554 9 inlet;
#X obj 612 7 r planetstart;
#X obj 473 862 dac~;
#X obj 882 450 int 1;
#X obj 67 445 r reverb;
#X obj 254 685 *~ 1;
#X obj 475 784 *~;
#X obj 520 784 *~;
#X obj 495 626 * 0.5;
#X obj 584 628 * -0.5;
#X obj 495 650 + 0.5;
#X obj 584 652 + 0.5;
#X msg 532 160 309;
#X msg 741 159 686.98, f 22;
#X msg 334 162 54;
#X connect 0 0 1 0;
#X connect 1 0 42 0;
#X connect 2 0 5 0;
#X connect 2 0 5 1;
#X connect 3 0 17 0;
#X connect 3 0 63 0;
#X connect 3 0 62 0;
#X connect 3 0 64 0;
#X connect 3 0 30 0;
#X connect 4 0 19 0;
#X connect 5 0 55 0;
#X connect 5 1 55 0;
#X connect 6 0 5 0;
#X connect 7 0 5 0;
#X connect 8 0 6 0;
#X connect 8 0 9 0;
#X connect 8 0 13 0;
#X connect 9 0 7 0;
#X connect 9 0 10 0;
#X connect 15 0 19 1;
#X connect 16 0 64 0;
#X connect 16 0 63 0;
#X connect 17 0 15 0;
#X connect 17 1 18 0;
#X connect 18 0 19 1;
#X connect 19 0 2 1;
#X connect 20 0 58 0;
#X connect 20 0 59 0;
#X connect 20 0 37 0;
#X connect 22 0 20 0;
#X connect 22 0 21 0;
#X connect 23 0 24 0;
#X connect 24 0 53 0;
#X connect 25 0 53 1;
#X connect 26 0 27 0;
#X connect 27 0 28 0;
#X connect 28 0 29 0;
#X connect 29 0 22 0;
#X connect 30 0 23 0;
#X connect 30 0 62 0;
#X connect 31 0 23 1;
#X connect 40 0 29 1;
#X connect 41 0 40 0;
#X connect 42 0 2 0;
#X connect 43 0 44 1;
#X connect 44 0 56 0;
#X connect 44 0 57 0;
#X connect 46 0 31 0;
#X connect 50 0 3 0;
#X connect 51 0 3 0;
#X connect 53 0 25 0;
#X connect 53 0 26 0;
#X connect 54 0 8 0;
#X connect 55 0 44 0;
#X connect 56 0 52 0;
#X connect 57 0 52 1;
#X connect 58 0 60 0;
#X connect 59 0 61 0;
#X connect 60 0 56 1;
#X connect 61 0 57 1;
#X connect 62 0 53 1;
#X connect 63 0 40 1;
#X connect 63 0 41 0;
#X connect 64 0 0 0;
#X connect 64 0 43 0;
#X coords 0 -1 1 1 200 230 1 100 100;
#X restore 558 538 pd mars;
#N canvas -8 0 1847 966 jupiter 0;
#X obj 313 459 mtof;
#X obj 313 489 osc~;
#X obj 338 583 *~;
#X obj 613 64 tgl 30 0 empty empty planet 0 -10 0 12 #ff8300 #000000 #000000 0 1;
#X obj 154 247 hsl 90 15 0 0.1 0 0 empty empty volume -2 -10 0 10 #fbe2a2 #000000 #000000 0 1;
#X obj 234 635 freeverb~;
#X msg 97 580 wet \$1;
#X msg 151 580 dry \$1;
#X obj 125 499 hsl 128 15 0 1 0 0 empty empty empty -2 -8 0 10 #c6feff #000000 #000000 0 1;
#N canvas 1 80 450 300 inv 0;
#X obj 154 69 inlet;
#X obj 154 179 outlet;
#X msg 154 124 1;
#X obj 154 97 t b f;
#X obj 154 151 -;
#X connect 0 0 3 0;
#X connect 2 0 4 0;
#X connect 3 0 2 0;
#X connect 3 1 4 1;
#X connect 4 0 1 0;
#X restore 151 553 pd inv;
#X floatatom 209 578 5 0 0 0 - - - 0;
#X text 111 481 dry;
#X text 247 481 wet, f 4;
#X floatatom 109 554 5 0 0 0 - - - 0;
#X text 166 479 Reverb;
#X msg 426 308 0;
#X obj 414 4 loadbang;
#X obj 426 285 select 0 1;
#X msg 458 309 1;
#X obj 421 356 *~;
#X obj 888 707 hsl 128 15 -1 1 0 0 empty empty empty -2 -8 0 10 #ffe3c6 #000000 #000000 0 1;
#X floatatom 886 681 10 0 0 0 - - - 0;
#X obj 885 652 sin;
#X obj 881 379 metro;
#X obj 881 403 bng 19 250 50 0 empty empty empty 0 -10 0 12 #fcfcfc #000000 #000000;
#X obj 936 450 + 1;
#X floatatom 882 498 15 0 0 0 - - - 0;
#X obj 882 521 / 360;
#X obj 882 545 * 6.28319;
#X obj 882 569 * 1;
#X obj 882 337 tgl 19 0 empty empty empty 0 -10 0 12 #fcfcfc #000000 #000000 0 1;
#X msg 1015 54 10, f 4;
#X text 424 262 on and off;
#X text 301 436 note;
#X text 138 446 reverb controls;
#X text 876 309 metro sequencer;
#X text 917 56 global speed;
#X obj 134 201 hsl 128 20 -1 1 0 0 empty empty empty -2 -8 0 10 #efb00a #000000 #000000 0 1;
#X text 764 127 planet rotation;
#X text 759 138 around sun (days);
#X obj 986 627 /;
#X msg 984 593 686.98;
#X obj 314 518 *~ 0.5;
#X obj 311 697 mtof;
#X obj 286 729 lop~;
#X text 92 765 lowpass at the note value (remove scratches);
#X obj 1014 22 loadbang;
#X text 363 163 note value;
#X text 568 154 planet position;
#X text 619 170 in orbit;
#X obj 554 9 inlet;
#X obj 612 7 r planetstart;
#X obj 473 862 dac~;
#X obj 882 450 int 1;
#X obj 67 445 r reverb;
#X obj 254 685 *~ 1;
#X obj 475 784 *~;
#X obj 520 784 *~;
#X obj 495 626 * 0.5;
#X obj 584 628 * -0.5;
#X obj 495 650 + 0.5;
#X obj 584 652 + 0.5;
#X msg 334 162 42;
#X msg 532 160 62;
#X msg 741 159 4328.9, f 22;
#X connect 0 0 1 0;
#X connect 1 0 42 0;
#X connect 2 0 5 0;
#X connect 2 0 5 1;
#X connect 3 0 17 0;
#X connect 3 0 64 0;
#X connect 3 0 63 0;
#X connect 3 0 62 0;
#X connect 3 0 30 0;
#X connect 4 0 19 0;
#X connect 5 0 55 0;
#X connect 5 1 55 0;
#X connect 6 0 5 0;
#X connect 7 0 5 0;
#X connect 8 0 6 0;
#X connect 8 0 9 0;
#X connect 8 0 13 0;
#X connect 9 0 7 0;
#X connect 9 0 10 0;
#X connect 15 0 19 1;
#X connect 16 0 62 0;
#X connect 16 0 64 0;
#X connect 17 0 15 0;
#X connect 17 1 18 0;
#X connect 18 0 19 1;
#X connect 19 0 2 1;
#X connect 20 0 58 0;
#X connect 20 0 59 0;
#X connect 20 0 37 0;
#X connect 22 0 20 0;
#X connect 22 0 21 0;
#X connect 23 0 24 0;
#X connect 24 0 53 0;
#X connect 25 0 53 1;
#X connect 26 0 27 0;
#X connect 27 0 28 0;
#X connect 28 0 29 0;
#X connect 29 0 22 0;
#X connect 30 0 23 0;
#X connect 30 0 63 0;
#X connect 31 0 23 1;
#X connect 40 0 29 1;
#X connect 41 0 40 0;
#X connect 42 0 2 0;
#X connect 43 0 44 1;
#X connect 44 0 56 0;
#X connect 44 0 57 0;
#X connect 46 0 31 0;
#X connect 50 0 3 0;
#X connect 51 0 3 0;
#X connect 53 0 25 0;
#X connect 53 0 26 0;
#X connect 54 0 8 0;
#X connect 55 0 44 0;
#X connect 56 0 52 0;
#X connect 57 0 52 1;
#X connect 58 0 60 0;
#X connect 59 0 61 0;
#X connect 60 0 56 1;
#X connect 61 0 57 1;
#X connect 62 0 0 0;
#X connect 62 0 43 0;
#X connect 63 0 53 1;
#X connect 64 0 40 1;
#X connect 64 0 41 0;
#X coords 0 -1 1 1 200 230 1 100 100;
#X restore 559 785 pd jupiter;
#N canvas -8 0 958 966 saturn 0;
#X obj 313 459 mtof;
#X obj 313 489 osc~;
#X obj 338 583 *~;
#X obj 613 64 tgl 30 0 empty empty planet 0 -10 0 12 #ff8300 #000000 #000000 0 1;
#X obj 159 240 hsl 90 15 0 0.1 0 0 empty empty volume -2 -10 0 10 #feffc6 #000000 #000000 0 1;
#X obj 234 635 freeverb~;
#X msg 97 580 wet \$1;
#X msg 151 580 dry \$1;
#X obj 125 499 hsl 128 15 0 1 0 0 empty empty empty -2 -8 0 10 #c6feff #000000 #000000 0 1;
#N canvas 1 80 450 300 inv 0;
#X obj 154 69 inlet;
#X obj 154 179 outlet;
#X msg 154 124 1;
#X obj 154 97 t b f;
#X obj 154 151 -;
#X connect 0 0 3 0;
#X connect 2 0 4 0;
#X connect 3 0 2 0;
#X connect 3 1 4 1;
#X connect 4 0 1 0;
#X restore 151 553 pd inv;
#X floatatom 209 578 5 0 0 0 - - - 0;
#X text 111 481 dry;
#X text 247 481 wet, f 4;
#X floatatom 109 554 5 0 0 0 - - - 0;
#X text 166 479 Reverb;
#X msg 426 308 0;
#X obj 414 4 loadbang;
#X obj 426 285 select 0 1;
#X msg 458 309 1;
#X obj 421 356 *~;
#X obj 888 707 hsl 128 15 -1 1 0 0 empty empty empty -2 -8 0 10 #ffe3c6 #000000 #000000 0 1;
#X floatatom 886 681 10 0 0 0 - - - 0;
#X obj 885 652 sin;
#X obj 881 379 metro;
#X obj 881 403 bng 19 250 50 0 empty empty empty 0 -10 0 12 #fcfcfc #000000 #000000;
#X obj 936 450 + 1;
#X floatatom 882 498 15 0 0 0 - - - 0;
#X obj 882 521 / 360;
#X obj 882 545 * 6.28319;
#X obj 882 569 * 1;
#X obj 882 337 tgl 19 0 empty empty empty 0 -10 0 12 #fcfcfc #000000 #000000 0 1;
#X msg 1015 54 10, f 4;
#X text 424 262 on and off;
#X text 301 436 note;
#X text 138 446 reverb controls;
#X text 876 309 metro sequencer;
#X text 917 56 global speed;
#X obj 139 195 hsl 128 20 -1 1 0 0 empty empty empty -2 -8 0 10 #faff00 #000000 #000000 0 1;
#X text 764 127 planet rotation;
#X text 759 138 around sun (days);
#X obj 986 627 /;
#X msg 984 593 686.98;
#X obj 314 518 *~ 0.5;
#X obj 311 697 mtof;
#X obj 286 729 lop~;
#X text 92 765 lowpass at the note value (remove scratches);
#X obj 1014 22 loadbang;
#X text 363 163 note value;
#X text 568 154 planet position;
#X text 619 170 in orbit;
#X obj 554 9 inlet;
#X obj 612 7 r planetstart;
#X obj 473 862 dac~;
#X obj 882 450 int 1;
#X obj 67 445 r reverb;
#X obj 254 685 *~ 1;
#X obj 475 784 *~;
#X obj 520 784 *~;
#X obj 495 626 * 0.5;
#X obj 584 628 * -0.5;
#X obj 495 650 + 0.5;
#X obj 584 652 + 0.5;
#X msg 334 162 51;
#X msg 532 160 116;
#X msg 741 159 30663.7, f 22;
#X connect 0 0 1 0;
#X connect 1 0 42 0;
#X connect 2 0 5 0;
#X connect 2 0 5 1;
#X connect 3 0 17 0;
#X connect 3 0 64 0;
#X connect 3 0 63 0;
#X connect 3 0 62 0;
#X connect 3 0 30 0;
#X connect 4 0 19 0;
#X connect 5 0 55 0;
#X connect 5 1 55 0;
#X connect 6 0 5 0;
#X connect 7 0 5 0;
#X connect 8 0 6 0;
#X connect 8 0 9 0;
#X connect 8 0 13 0;
#X connect 9 0 7 0;
#X connect 9 0 10 0;
#X connect 15 0 19 1;
#X connect 16 0 62 0;
#X connect 16 0 64 0;
#X connect 17 0 15 0;
#X connect 17 1 18 0;
#X connect 18 0 19 1;
#X connect 19 0 2 1;
#X connect 20 0 37 0;
#X connect 20 0 58 0;
#X connect 20 0 59 0;
#X connect 22 0 20 0;
#X connect 22 0 21 0;
#X connect 23 0 24 0;
#X connect 24 0 53 0;
#X connect 25 0 53 1;
#X connect 26 0 27 0;
#X connect 27 0 28 0;
#X connect 28 0 29 0;
#X connect 29 0 22 0;
#X connect 30 0 23 0;
#X connect 30 0 63 0;
#X connect 31 0 23 1;
#X connect 40 0 29 1;
#X connect 41 0 40 0;
#X connect 42 0 2 0;
#X connect 43 0 44 1;
#X connect 44 0 56 0;
#X connect 44 0 57 0;
#X connect 46 0 31 0;
#X connect 50 0 3 0;
#X connect 51 0 3 0;
#X connect 53 0 25 0;
#X connect 53 0 26 0;
#X connect 54 0 8 0;
#X connect 55 0 44 0;
#X connect 56 0 52 0;
#X connect 57 0 52 1;
#X connect 58 0 60 0;
#X connect 59 0 61 0;
#X connect 60 0 56 1;
#X connect 61 0 57 1;
#X connect 62 0 0 0;
#X connect 62 0 43 0;
#X connect 63 0 53 1;
#X connect 64 0 40 1;
#X connect 64 0 41 0;
#X coords 0 -1 1 1 200 230 1 100 100;
#X restore 334 782 pd saturn;
#N canvas -8 0 958 966 uranus 0;
#X obj 313 459 mtof;
#X obj 313 489 osc~;
#X obj 338 583 *~;
#X obj 613 64 tgl 30 0 empty empty planet 0 -10 0 12 #ff8300 #000000 #000000 0 1;
#X obj 157 242 hsl 90 15 0 0.1 0 0 empty empty volume -2 -10 0 10 #c7c6ff #000000 #000000 0 1;
#X obj 234 635 freeverb~;
#X msg 97 580 wet \$1;
#X msg 151 580 dry \$1;
#X obj 125 499 hsl 128 15 0 1 0 0 empty empty empty -2 -8 0 10 #c6feff #000000 #000000 0 1;
#N canvas 1 80 450 300 inv 0;
#X obj 154 69 inlet;
#X obj 154 179 outlet;
#X msg 154 124 1;
#X obj 154 97 t b f;
#X obj 154 151 -;
#X connect 0 0 3 0;
#X connect 2 0 4 0;
#X connect 3 0 2 0;
#X connect 3 1 4 1;
#X connect 4 0 1 0;
#X restore 151 553 pd inv;
#X floatatom 209 578 5 0 0 0 - - - 0;
#X text 111 481 dry;
#X text 247 481 wet, f 4;
#X floatatom 109 554 5 0 0 0 - - - 0;
#X text 166 479 Reverb;
#X msg 426 308 0;
#X obj 414 4 loadbang;
#X obj 426 285 select 0 1;
#X msg 458 309 1;
#X obj 421 356 *~;
#X obj 888 707 hsl 128 15 -1 1 0 0 empty empty empty -2 -8 0 10 #ffe3c6 #000000 #000000 0 1;
#X floatatom 886 681 10 0 0 0 - - - 0;
#X obj 885 652 sin;
#X obj 881 379 metro;
#X obj 881 403 bng 19 250 50 0 empty empty empty 0 -10 0 12 #fcfcfc #000000 #000000;
#X obj 936 450 + 1;
#X floatatom 882 498 15 0 0 0 - - - 0;
#X obj 882 521 / 360;
#X obj 882 545 * 6.28319;
#X obj 882 569 * 1;
#X obj 882 337 tgl 19 0 empty empty empty 0 -10 0 12 #fcfcfc #000000 #000000 0 1;
#X msg 1015 54 10, f 4;
#X text 424 262 on and off;
#X text 301 436 note;
#X text 138 446 reverb controls;
#X text 876 309 metro sequencer;
#X text 917 56 global speed;
#X obj 138 196 hsl 128 20 -1 1 0 0 empty empty empty -2 -8 0 10 #0400ff #000000 #000000 0 1;
#X text 764 127 planet rotation;
#X text 759 138 around sun (days);
#X obj 986 627 /;
#X msg 984 593 686.98;
#X obj 314 518 *~ 0.5;
#X obj 311 697 mtof;
#X obj 286 729 lop~;
#X text 92 765 lowpass at the note value (remove scratches);
#X obj 1014 22 loadbang;
#X text 363 163 note value;
#X text 568 154 planet position;
#X text 619 170 in orbit;
#X obj 554 9 inlet;
#X obj 612 7 r planetstart;
#X obj 473 862 dac~;
#X obj 882 450 int 1;
#X obj 67 445 r reverb;
#X obj 254 685 *~ 1;
#X obj 475 784 *~;
#X obj 520 784 *~;
#X obj 495 626 * 0.5;
#X obj 584 628 * -0.5;
#X obj 495 650 + 0.5;
#X obj 584 652 + 0.5;
#X msg 741 159 30663.7, f 22;
#X msg 532 160 34;
#X msg 334 162 66;
#X connect 0 0 1 0;
#X connect 1 0 42 0;
#X connect 2 0 5 0;
#X connect 2 0 5 1;
#X connect 3 0 17 0;
#X connect 3 0 62 0;
#X connect 3 0 63 0;
#X connect 3 0 64 0;
#X connect 3 0 30 0;
#X connect 4 0 19 0;
#X connect 5 0 55 0;
#X connect 5 1 55 0;
#X connect 6 0 5 0;
#X connect 7 0 5 0;
#X connect 8 0 6 0;
#X connect 8 0 9 0;
#X connect 8 0 13 0;
#X connect 9 0 7 0;
#X connect 9 0 10 0;
#X connect 15 0 19 1;
#X connect 16 0 64 0;
#X connect 16 0 62 0;
#X connect 17 0 15 0;
#X connect 17 1 18 0;
#X connect 18 0 19 1;
#X connect 19 0 2 1;
#X connect 20 0 58 0;
#X connect 20 0 59 0;
#X connect 20 0 37 0;
#X connect 22 0 20 0;
#X connect 22 0 21 0;
#X connect 23 0 24 0;
#X connect 24 0 53 0;
#X connect 25 0 53 1;
#X connect 26 0 27 0;
#X connect 27 0 28 0;
#X connect 28 0 29 0;
#X connect 29 0 22 0;
#X connect 30 0 23 0;
#X connect 30 0 63 0;
#X connect 31 0 23 1;
#X connect 40 0 29 1;
#X connect 41 0 40 0;
#X connect 42 0 2 0;
#X connect 43 0 44 1;
#X connect 44 0 56 0;
#X connect 44 0 57 0;
#X connect 46 0 31 0;
#X connect 50 0 3 0;
#X connect 51 0 3 0;
#X connect 53 0 25 0;
#X connect 53 0 26 0;
#X connect 54 0 8 0;
#X connect 55 0 44 0;
#X connect 56 0 52 0;
#X connect 57 0 52 1;
#X connect 58 0 60 0;
#X connect 59 0 61 0;
#X connect 60 0 56 1;
#X connect 61 0 57 1;
#X connect 62 0 40 1;
#X connect 62 0 41 0;
#X connect 63 0 53 1;
#X connect 64 0 0 0;
#X connect 64 0 43 0;
#X coords 0 -1 1 1 200 230 1 100 100;
#X restore 559 50 pd uranus;
#N canvas -8 0 958 966 neptune 0;
#X obj 313 459 mtof;
#X obj 313 489 osc~;
#X obj 338 583 *~;
#X obj 613 64 tgl 30 0 empty empty planet 0 -10 0 12 #ff8300 #000000 #000000 0 1;
#X obj 159 235 hsl 90 15 0 0.1 0 0 empty empty volume -2 -10 0 10 #e3c6ff #000000 #000000 0 1;
#X obj 234 635 freeverb~;
#X msg 97 580 wet \$1;
#X msg 151 580 dry \$1;
#X obj 125 499 hsl 128 15 0 1 0 0 empty empty empty -2 -8 0 10 #c6feff #000000 #000000 0 1;
#N canvas 1 80 450 300 inv 0;
#X obj 154 69 inlet;
#X obj 154 179 outlet;
#X msg 154 124 1;
#X obj 154 97 t b f;
#X obj 154 151 -;
#X connect 0 0 3 0;
#X connect 2 0 4 0;
#X connect 3 0 2 0;
#X connect 3 1 4 1;
#X connect 4 0 1 0;
#X restore 151 553 pd inv;
#X floatatom 209 578 5 0 0 0 - - - 0;
#X text 111 481 dry;
#X text 247 481 wet, f 4;
#X floatatom 109 554 5 0 0 0 - - - 0;
#X text 166 479 Reverb;
#X msg 426 308 0;
#X obj 414 4 loadbang;
#X obj 426 285 select 0 1;
#X msg 458 309 1;
#X obj 421 356 *~;
#X obj 888 707 hsl 128 15 -1 1 0 0 empty empty empty -2 -8 0 10 #ffe3c6 #000000 #000000 0 1;
#X floatatom 886 681 10 0 0 0 - - - 0;
#X obj 885 652 sin;
#X obj 881 379 metro;
#X obj 881 403 bng 19 250 50 0 empty empty empty 0 -10 0 12 #fcfcfc #000000 #000000;
#X obj 936 450 + 1;
#X floatatom 882 498 15 0 0 0 - - - 0;
#X obj 882 521 / 360;
#X obj 882 545 * 6.28319;
#X obj 882 569 * 1;
#X obj 882 337 tgl 19 0 empty empty empty 0 -10 0 12 #fcfcfc #000000 #000000 0 1;
#X msg 1015 54 10, f 4;
#X text 424 262 on and off;
#X text 301 436 note;
#X text 138 446 reverb controls;
#X text 876 309 metro sequencer;
#X text 917 56 global speed;
#X obj 139 192 hsl 128 20 -1 1 0 0 empty empty empty -2 -8 0 10 #9c00ff #000000 #000000 0 1;
#X text 764 127 planet rotation;
#X text 759 138 around sun (days);
#X obj 986 627 /;
#X msg 984 593 686.98;
#X obj 314 518 *~ 0.5;
#X obj 311 697 mtof;
#X obj 286 729 lop~;
#X text 92 765 lowpass at the note value (remove scratches);
#X obj 1014 22 loadbang;
#X text 363 163 note value;
#X text 568 154 planet position;
#X text 619 170 in orbit;
#X obj 554 9 inlet;
#X obj 612 7 r planetstart;
#X obj 473 862 dac~;
#X obj 882 450 int 1;
#X obj 67 445 r reverb;
#X obj 254 685 *~ 1;
#X obj 475 784 *~;
#X obj 520 784 *~;
#X obj 495 626 * 0.5;
#X obj 584 628 * -0.5;
#X obj 495 650 + 0.5;
#X obj 584 652 + 0.5;
#X msg 334 162 71;
#X msg 532 160 88;
#X msg 741 159 60148.4, f 22;
#X connect 0 0 1 0;
#X connect 1 0 42 0;
#X connect 2 0 5 0;
#X connect 2 0 5 1;
#X connect 3 0 17 0;
#X connect 3 0 64 0;
#X connect 3 0 63 0;
#X connect 3 0 62 0;
#X connect 3 0 30 0;
#X connect 4 0 19 0;
#X connect 5 0 55 0;
#X connect 5 1 55 0;
#X connect 6 0 5 0;
#X connect 7 0 5 0;
#X connect 8 0 6 0;
#X connect 8 0 9 0;
#X connect 8 0 13 0;
#X connect 9 0 7 0;
#X connect 9 0 10 0;
#X connect 15 0 19 1;
#X connect 16 0 62 0;
#X connect 16 0 64 0;
#X connect 17 0 15 0;
#X connect 17 1 18 0;
#X connect 18 0 19 1;
#X connect 19 0 2 1;
#X connect 20 0 58 0;
#X connect 20 0 59 0;
#X connect 20 0 37 0;
#X connect 22 0 20 0;
#X connect 22 0 21 0;
#X connect 23 0 24 0;
#X connect 24 0 53 0;
#X connect 25 0 53 1;
#X connect 26 0 27 0;
#X connect 27 0 28 0;
#X connect 28 0 29 0;
#X connect 29 0 22 0;
#X connect 30 0 23 0;
#X connect 30 0 63 0;
#X connect 31 0 23 1;
#X connect 40 0 29 1;
#X connect 41 0 40 0;
#X connect 42 0 2 0;
#X connect 43 0 44 1;
#X connect 44 0 56 0;
#X connect 44 0 57 0;
#X connect 46 0 31 0;
#X connect 50 0 3 0;
#X connect 51 0 3 0;
#X connect 53 0 25 0;
#X connect 53 0 26 0;
#X connect 54 0 8 0;
#X connect 55 0 44 0;
#X connect 56 0 52 0;
#X connect 57 0 52 1;
#X connect 58 0 60 0;
#X connect 59 0 61 0;
#X connect 60 0 56 1;
#X connect 61 0 57 1;
#X connect 62 0 0 0;
#X connect 62 0 43 0;
#X connect 63 0 53 1;
#X connect 64 0 40 1;
#X connect 64 0 41 0;
#X coords 0 -1 1 1 200 230 1 100 100;
#X restore 332 51 pd neptune;
#X text 505 26 higher notes;
#X text 494 1027 lower notes;
#X text 70 327 above controls the notes;
#X text 69 346 to the right;
#X text 68 401 set individual volumes to;
#X text 67 418 change notes;
#X text 68 463 main coloured bar;
#X text 72 483 shows panning;
#X text 87 673 separate wobbly fun notes;
#X text 61 57 Main Notes Controls;
#X connect 1 0 0 0;
#X connect 2 0 6 0;
#X connect 8 0 2 0;
#X connect 9 0 8 0;
