#N canvas 501 144 1902 1053 12;
#X obj 39 123 s planetstart;
#X obj 39 67 tgl 50 0 empty empty empty 0 -10 0 12 #dfdfdf #000000 #000000 0 1;
#X obj 48 230 hsl 128 15 0 1 0 0 empty empty empty -2 -8 0 10 #dfdfdf #000000 #000000 0 1;
#X text 36 212 dry;
#X text 172 212 wet, f 4;
#X text 91 210 Reverb;
#X obj 45 250 s reverb;
#N canvas 700 0 1210 966 sun 0;
#X obj 341 188 mtof;
#X obj 321 251 osc~;
#X obj 363 228 * 1.015;
#X obj 481 184 * 0.503;
#X obj 363 250 osc~;
#X obj 462 252 osc~;
#X obj 323 501 *~;
#X obj 301 697 dac~;
#X obj 113 199 hsl 90 19 0 1 0 0 empty empty mid\ note -2 -10 0 12 #fcfcfc #000000 #000000 0 1;
#X msg 159 153 56;
#X obj 111 143 tgl 30 0 empty empty start\ sun 0 -10 0 12 #ff8300 #000000 #000000 0 1;
#X obj 114 246 hsl 90 19 0 1 0 0 empty empty bass\ note -2 -10 0 12 #fcfcfc #000000 #000000 0 1;
#X obj 338 327 *~;
#X obj 458 301 *~;
#X text 187 153 note value;
#X obj 117 364 hsl 90 19 0 0.1 0 0 empty empty volume -2 -10 0 12 #ffe3c6 #000000 #000000 0 1;
#X text 374 326 mid note;
#X text 490 300 base note;
#X obj 288 645 freeverb~;
#X msg 151 583 wet \$1;
#X msg 205 583 dry \$1;
#X obj 117 317 hsl 128 15 0 1 0 0 empty empty empty -2 -8 0 10 #ffe3c6 #000000 #000000 0 1;
#N canvas 1 80 450 300 inv 0;
#X obj 154 69 inlet;
#X obj 154 179 outlet;
#X msg 154 124 1;
#X obj 154 97 t b f;
#X obj 154 151 -;
#X connect 0 0 3 0;
#X connect 2 0 4 0;
#X connect 3 0 2 0;
#X connect 3 1 4 1;
#X connect 4 0 1 0;
#X restore 205 556 pd inv;
#X floatatom 263 581 5 0 0 0 - - - 0;
#X text 103 299 dry;
#X text 234 301 wet, f 4;
#X floatatom 163 557 5 0 0 0 - - - 0;
#X text 163 298 Reverb;
#X msg 36 466 0;
#X obj 184 67 loadbang;
#X obj 36 443 select 0 1;
#X msg 68 467 1;
#X obj 116 467 *~;
#X obj 366 520 mtof;
#X obj 320 541 lop~;
#X obj 511 223 * 1.015;
#X obj 512 250 osc~;
#X connect 0 0 1 0;
#X connect 0 0 2 0;
#X connect 0 0 3 0;
#X connect 1 0 12 0;
#X connect 2 0 4 0;
#X connect 3 0 5 0;
#X connect 3 0 35 0;
#X connect 4 0 12 0;
#X connect 5 0 13 0;
#X connect 6 0 34 0;
#X connect 8 0 12 1;
#X connect 9 0 0 0;
#X connect 9 0 33 0;
#X connect 10 0 30 0;
#X connect 10 0 9 0;
#X connect 11 0 13 1;
#X connect 12 0 6 0;
#X connect 13 0 6 0;
#X connect 15 0 32 0;
#X connect 18 0 7 0;
#X connect 18 1 7 1;
#X connect 19 0 18 0;
#X connect 20 0 18 0;
#X connect 21 0 19 0;
#X connect 21 0 22 0;
#X connect 21 0 26 0;
#X connect 22 0 20 0;
#X connect 22 0 23 0;
#X connect 28 0 32 1;
#X connect 29 0 9 0;
#X connect 30 0 28 0;
#X connect 30 1 31 0;
#X connect 31 0 32 1;
#X connect 32 0 6 1;
#X connect 33 0 34 1;
#X connect 34 0 18 0;
#X connect 34 0 18 1;
#X connect 35 0 36 0;
#X connect 36 0 13 0;
#X coords 0 -1 1 1 259 297 1 100 100;
#X restore 501 327 pd sun;
#X text 37 40 Planet Controls;
#X msg 41 182 0.6;
#X obj 44 160 loadbang;
#N canvas 1149 265 1920 976 venus 0;
#X obj 313 459 mtof;
#X obj 313 489 osc~;
#X obj 338 583 *~;
#X obj 613 64 tgl 30 0 empty empty planet 0 -10 0 12 #ff8300 #000000 #000000 0 1;
#X obj 160 304 hsl 90 15 0 0.1 0 0 empty empty volume -2 -10 0 10 #ffe3c6 #000000 #000000 0 1;
#X obj 234 635 freeverb~;
#X msg 97 580 wet \$1;
#X msg 151 580 dry \$1;
#X obj 125 499 hsl 128 15 0 1 0 0 empty empty empty -2 -8 0 10 #c6feff #000000 #000000 0 1;
#N canvas 1 80 450 300 inv 0;
#X obj 154 69 inlet;
#X obj 154 179 outlet;
#X msg 154 124 1;
#X obj 154 97 t b f;
#X obj 154 151 -;
#X connect 0 0 3 0;
#X connect 2 0 4 0;
#X connect 3 0 2 0;
#X connect 3 1 4 1;
#X connect 4 0 1 0;
#X restore 151 553 pd inv;
#X floatatom 209 578 5 0 0 0 - - - 0;
#X text 111 481 dry;
#X text 247 481 wet, f 4;
#X floatatom 109 554 5 0 0 0 - - - 0;
#X text 166 479 Reverb;
#X msg 426 308 0;
#X obj 414 4 loadbang;
#X obj 426 285 select 0 1;
#X msg 458 309 1;
#X obj 421 356 *~;
#X obj 888 707 hsl 128 15 -1 1 0 0 empty empty empty -2 -8 0 10 #ffe3c6 #000000 #000000 0 1;
#X floatatom 886 681 10 0 0 0 - - - 0;
#X obj 885 652 sin;
#X obj 881 379 metro;
#X obj 881 403 bng 19 250 50 0 empty empty empty 0 -10 0 12 #fcfcfc #000000 #000000;
#X obj 936 450 + 1;
#X floatatom 882 498 15 0 0 0 - - - 0;
#X obj 882 521 / 360;
#X obj 882 545 * 6.28319;
#X obj 882 569 * 1;
#X obj 882 337 tgl 19 0 empty empty empty 0 -10 0 12 #fcfcfc #000000 #000000 0 1;
#X msg 1015 54 10, f 4;
#X text 424 262 on and off;
#X text 301 436 note;
#X text 138 446 reverb controls;
#X text 876 309 metro sequencer;
#X text 917 56 global speed;
#X obj 141 153 hsl 128 20 -1 1 0 0 empty empty orbit\ position -2 -8 0 10 #ff8300 #000000 #000000 0 1;
#X text 764 127 planet rotation;
#X text 759 138 around sun (days);
#X obj 986 627 /;
#X msg 984 593 686.98;
#X obj 314 518 *~ 0.5;
#X obj 311 697 mtof;
#X obj 286 729 lop~;
#X text 92 765 lowpass at the note value (remove scratches);
#X obj 1014 22 loadbang;
#X text 363 163 note value;
#X text 568 154 planet position;
#X text 619 170 in orbit;
#X floatatom 186 265 5 0 0 0 - - - 0;
#X text 150 178 planet rotation;
#X text 148 190 around sun (days);
#X floatatom 135 211 20 0 0 0 - - - 0;
#X obj 554 9 inlet;
#X obj 612 7 r planetstart;
#X text 117 245 planet position in orbit;
#X obj 473 862 dac~;
#X text 176 118 VENUS;
#X msg 532 160 324;
#X msg 741 159 224.7, f 22;
#X obj 882 450 int 1;
#X obj 67 445 r reverb;
#X msg 334 162 65;
#X obj 254 685 *~ 1;
#X obj 475 784 *~;
#X obj 520 784 *~;
#X obj 495 626 * 0.5;
#X obj 584 628 * -0.5;
#X obj 495 650 + 0.5;
#X obj 584 652 + 0.5;
#X connect 0 0 1 0;
#X connect 1 0 42 0;
#X connect 2 0 5 0;
#X connect 2 0 5 1;
#X connect 3 0 17 0;
#X connect 3 0 60 0;
#X connect 3 0 59 0;
#X connect 3 0 63 0;
#X connect 3 0 30 0;
#X connect 4 0 19 0;
#X connect 5 0 64 0;
#X connect 5 1 64 0;
#X connect 6 0 5 0;
#X connect 7 0 5 0;
#X connect 8 0 6 0;
#X connect 8 0 9 0;
#X connect 8 0 13 0;
#X connect 9 0 7 0;
#X connect 9 0 10 0;
#X connect 15 0 19 1;
#X connect 16 0 63 0;
#X connect 16 0 60 0;
#X connect 17 0 15 0;
#X connect 17 1 18 0;
#X connect 18 0 19 1;
#X connect 19 0 2 1;
#X connect 20 0 37 0;
#X connect 20 0 67 0;
#X connect 20 0 68 0;
#X connect 22 0 20 0;
#X connect 22 0 21 0;
#X connect 23 0 24 0;
#X connect 24 0 61 0;
#X connect 25 0 61 1;
#X connect 26 0 27 0;
#X connect 27 0 28 0;
#X connect 28 0 29 0;
#X connect 29 0 22 0;
#X connect 30 0 23 0;
#X connect 30 0 59 0;
#X connect 31 0 23 1;
#X connect 40 0 29 1;
#X connect 41 0 40 0;
#X connect 42 0 2 0;
#X connect 43 0 44 1;
#X connect 44 0 65 0;
#X connect 44 0 66 0;
#X connect 46 0 31 0;
#X connect 54 0 3 0;
#X connect 55 0 3 0;
#X connect 59 0 50 0;
#X connect 59 0 61 1;
#X connect 60 0 40 1;
#X connect 60 0 41 0;
#X connect 60 0 53 0;
#X connect 61 0 25 0;
#X connect 61 0 26 0;
#X connect 62 0 8 0;
#X connect 63 0 0 0;
#X connect 63 0 43 0;
#X connect 64 0 44 0;
#X connect 65 0 57 0;
#X connect 66 0 57 1;
#X connect 67 0 69 0;
#X connect 68 0 70 0;
#X connect 69 0 65 1;
#X connect 70 0 66 1;
#X coords 0 -1 1 1 200 230 1 100 100;
#X restore 529 16 pd venus;
#N canvas -8 0 958 966 mercury 0;
#X obj 313 459 mtof;
#X obj 313 489 osc~;
#X obj 338 583 *~;
#X obj 613 64 tgl 30 0 empty empty planet 0 -10 0 12 #ff8300 #000000 #000000 0 1;
#X obj 160 304 hsl 90 15 0 0.1 0 0 empty empty volume -2 -10 0 10 #bbbbbb #000000 #000000 0 1;
#X obj 234 635 freeverb~;
#X msg 97 580 wet \$1;
#X msg 151 580 dry \$1;
#X obj 125 499 hsl 128 15 0 1 0 0 empty empty empty -2 -8 0 10 #c6feff #000000 #000000 0 1;
#N canvas 1 80 450 300 inv 0;
#X obj 154 69 inlet;
#X obj 154 179 outlet;
#X msg 154 124 1;
#X obj 154 97 t b f;
#X obj 154 151 -;
#X connect 0 0 3 0;
#X connect 2 0 4 0;
#X connect 3 0 2 0;
#X connect 3 1 4 1;
#X connect 4 0 1 0;
#X restore 151 553 pd inv;
#X floatatom 209 578 5 0 0 0 - - - 0;
#X text 111 481 dry;
#X text 247 481 wet, f 4;
#X floatatom 109 554 5 0 0 0 - - - 0;
#X text 166 479 Reverb;
#X msg 426 308 0;
#X obj 414 4 loadbang;
#X obj 426 285 select 0 1;
#X msg 458 309 1;
#X obj 421 356 *~;
#X obj 888 707 hsl 128 15 -1 1 0 0 empty empty empty -2 -8 0 10 #ffe3c6 #000000 #000000 0 1;
#X floatatom 886 681 10 0 0 0 - - - 0;
#X obj 885 652 sin;
#X obj 881 379 metro;
#X obj 881 403 bng 19 250 50 0 empty empty empty 0 -10 0 12 #fcfcfc #000000 #000000;
#X obj 936 450 + 1;
#X floatatom 882 498 15 0 0 0 - - - 0;
#X obj 882 521 / 360;
#X obj 882 545 * 6.28319;
#X obj 882 569 * 1;
#X obj 882 337 tgl 19 0 empty empty empty 0 -10 0 12 #fcfcfc #000000 #000000 0 1;
#X msg 1015 54 10, f 4;
#X text 424 262 on and off;
#X text 301 436 note;
#X text 138 446 reverb controls;
#X text 876 309 metro sequencer;
#X text 917 56 global speed;
#X obj 141 153 hsl 128 20 -1 1 0 0 empty empty orbit\ position -2 -8 0 10 #7c7c7c #000000 #000000 0 1;
#X text 764 127 planet rotation;
#X text 759 138 around sun (days);
#X obj 986 627 /;
#X msg 984 593 686.98;
#X obj 314 518 *~ 0.5;
#X obj 311 697 mtof;
#X obj 286 729 lop~;
#X text 92 765 lowpass at the note value (remove scratches);
#X obj 1014 22 loadbang;
#X text 363 163 note value;
#X text 568 154 planet position;
#X text 619 170 in orbit;
#X floatatom 186 265 5 0 0 0 - - - 0;
#X text 150 178 planet rotation;
#X text 148 190 around sun (days);
#X floatatom 135 211 20 0 0 0 - - - 0;
#X obj 554 9 inlet;
#X obj 612 7 r planetstart;
#X text 117 245 planet position in orbit;
#X obj 473 862 dac~;
#X obj 882 450 int 1;
#X obj 67 445 r reverb;
#X obj 254 685 *~ 1;
#X obj 475 784 *~;
#X obj 520 784 *~;
#X obj 495 626 * 0.5;
#X obj 584 628 * -0.5;
#X obj 495 650 + 0.5;
#X obj 584 652 + 0.5;
#X text 176 118 MERCURY;
#X msg 334 162 63;
#X msg 532 160 307;
#X msg 741 159 87.97, f 22;
#X connect 0 0 1 0;
#X connect 1 0 42 0;
#X connect 2 0 5 0;
#X connect 2 0 5 1;
#X connect 3 0 17 0;
#X connect 3 0 70 0;
#X connect 3 0 69 0;
#X connect 3 0 68 0;
#X connect 3 0 30 0;
#X connect 4 0 19 0;
#X connect 5 0 60 0;
#X connect 5 1 60 0;
#X connect 6 0 5 0;
#X connect 7 0 5 0;
#X connect 8 0 6 0;
#X connect 8 0 9 0;
#X connect 8 0 13 0;
#X connect 9 0 7 0;
#X connect 9 0 10 0;
#X connect 15 0 19 1;
#X connect 16 0 68 0;
#X connect 16 0 70 0;
#X connect 17 0 15 0;
#X connect 17 1 18 0;
#X connect 18 0 19 1;
#X connect 19 0 2 1;
#X connect 20 0 37 0;
#X connect 20 0 63 0;
#X connect 20 0 64 0;
#X connect 22 0 20 0;
#X connect 22 0 21 0;
#X connect 23 0 24 0;
#X connect 24 0 58 0;
#X connect 25 0 58 1;
#X connect 26 0 27 0;
#X connect 27 0 28 0;
#X connect 28 0 29 0;
#X connect 29 0 22 0;
#X connect 30 0 23 0;
#X connect 30 0 69 0;
#X connect 31 0 23 1;
#X connect 40 0 29 1;
#X connect 41 0 40 0;
#X connect 42 0 2 0;
#X connect 43 0 44 1;
#X connect 44 0 61 0;
#X connect 44 0 62 0;
#X connect 46 0 31 0;
#X connect 54 0 3 0;
#X connect 55 0 3 0;
#X connect 58 0 25 0;
#X connect 58 0 26 0;
#X connect 59 0 8 0;
#X connect 60 0 44 0;
#X connect 61 0 57 0;
#X connect 62 0 57 1;
#X connect 63 0 65 0;
#X connect 64 0 66 0;
#X connect 65 0 61 1;
#X connect 66 0 62 1;
#X connect 68 0 0 0;
#X connect 68 0 43 0;
#X connect 69 0 50 0;
#X connect 69 0 58 1;
#X connect 70 0 40 1;
#X connect 70 0 41 0;
#X connect 70 0 53 0;
#X coords 0 -1 1 1 200 230 1 100 100;
#X restore 269 81 pd mercury;
#N canvas -8 0 958 966 earth 0;
#X obj 313 459 mtof;
#X obj 313 489 osc~;
#X obj 338 583 *~;
#X obj 613 64 tgl 30 0 empty empty planet 0 -10 0 12 #ff8300 #000000 #000000 0 1;
#X obj 160 304 hsl 90 15 0 0.1 0 0 empty empty volume -2 -10 0 10 #c6ffc7 #000000 #000000 0 1;
#X obj 234 635 freeverb~;
#X msg 97 580 wet \$1;
#X msg 151 580 dry \$1;
#X obj 125 499 hsl 128 15 0 1 0 0 empty empty empty -2 -8 0 10 #c6feff #000000 #000000 0 1;
#N canvas 1 80 450 300 inv 0;
#X obj 154 69 inlet;
#X obj 154 179 outlet;
#X msg 154 124 1;
#X obj 154 97 t b f;
#X obj 154 151 -;
#X connect 0 0 3 0;
#X connect 2 0 4 0;
#X connect 3 0 2 0;
#X connect 3 1 4 1;
#X connect 4 0 1 0;
#X restore 151 553 pd inv;
#X floatatom 209 578 5 0 0 0 - - - 0;
#X text 111 481 dry;
#X text 247 481 wet, f 4;
#X floatatom 109 554 5 0 0 0 - - - 0;
#X text 166 479 Reverb;
#X msg 426 308 0;
#X obj 414 4 loadbang;
#X obj 426 285 select 0 1;
#X msg 458 309 1;
#X obj 421 356 *~;
#X obj 888 707 hsl 128 15 -1 1 0 0 empty empty empty -2 -8 0 10 #ffe3c6 #000000 #000000 0 1;
#X floatatom 886 681 10 0 0 0 - - - 0;
#X obj 885 652 sin;
#X obj 881 379 metro;
#X obj 881 403 bng 19 250 50 0 empty empty empty 0 -10 0 12 #fcfcfc #000000 #000000;
#X obj 936 450 + 1;
#X floatatom 882 498 15 0 0 0 - - - 0;
#X obj 882 521 / 360;
#X obj 882 545 * 6.28319;
#X obj 882 569 * 1;
#X obj 882 337 tgl 19 0 empty empty empty 0 -10 0 12 #fcfcfc #000000 #000000 0 1;
#X msg 1015 54 10, f 4;
#X text 424 262 on and off;
#X text 301 436 note;
#X text 138 446 reverb controls;
#X text 876 309 metro sequencer;
#X text 917 56 global speed;
#X obj 141 153 hsl 128 20 -1 1 0 0 empty empty orbit\ position -2 -8 0 10 #00ff04 #000000 #000000 0 1;
#X text 764 127 planet rotation;
#X text 759 138 around sun (days);
#X obj 986 627 /;
#X msg 984 593 686.98;
#X obj 314 518 *~ 0.5;
#X obj 311 697 mtof;
#X obj 286 729 lop~;
#X text 92 765 lowpass at the note value (remove scratches);
#X obj 1014 22 loadbang;
#X text 363 163 note value;
#X text 568 154 planet position;
#X text 619 170 in orbit;
#X floatatom 186 265 5 0 0 0 - - - 0;
#X text 150 178 planet rotation;
#X text 148 190 around sun (days);
#X floatatom 135 211 20 0 0 0 - - - 0;
#X obj 554 9 inlet;
#X obj 612 7 r planetstart;
#X text 117 245 planet position in orbit;
#X obj 473 862 dac~;
#X obj 882 450 int 1;
#X obj 67 445 r reverb;
#X obj 254 685 *~ 1;
#X obj 475 784 *~;
#X obj 520 784 *~;
#X obj 495 626 * 0.5;
#X obj 584 628 * -0.5;
#X obj 495 650 + 0.5;
#X obj 584 652 + 0.5;
#X text 176 118 EARTH;
#X msg 334 162 61;
#X msg 532 160 244;
#X msg 741 159 365.26, f 22;
#X connect 0 0 1 0;
#X connect 1 0 42 0;
#X connect 2 0 5 0;
#X connect 2 0 5 1;
#X connect 3 0 17 0;
#X connect 3 0 70 0;
#X connect 3 0 69 0;
#X connect 3 0 68 0;
#X connect 3 0 30 0;
#X connect 4 0 19 0;
#X connect 5 0 60 0;
#X connect 5 1 60 0;
#X connect 6 0 5 0;
#X connect 7 0 5 0;
#X connect 8 0 6 0;
#X connect 8 0 9 0;
#X connect 8 0 13 0;
#X connect 9 0 7 0;
#X connect 9 0 10 0;
#X connect 15 0 19 1;
#X connect 16 0 68 0;
#X connect 16 0 70 0;
#X connect 17 0 15 0;
#X connect 17 1 18 0;
#X connect 18 0 19 1;
#X connect 19 0 2 1;
#X connect 20 0 37 0;
#X connect 20 0 63 0;
#X connect 20 0 64 0;
#X connect 22 0 20 0;
#X connect 22 0 21 0;
#X connect 23 0 24 0;
#X connect 24 0 58 0;
#X connect 25 0 58 1;
#X connect 26 0 27 0;
#X connect 27 0 28 0;
#X connect 28 0 29 0;
#X connect 29 0 22 0;
#X connect 30 0 23 0;
#X connect 30 0 69 0;
#X connect 31 0 23 1;
#X connect 40 0 29 1;
#X connect 41 0 40 0;
#X connect 42 0 2 0;
#X connect 43 0 44 1;
#X connect 44 0 61 0;
#X connect 44 0 62 0;
#X connect 46 0 31 0;
#X connect 54 0 3 0;
#X connect 55 0 3 0;
#X connect 58 0 25 0;
#X connect 58 0 26 0;
#X connect 59 0 8 0;
#X connect 60 0 44 0;
#X connect 61 0 57 0;
#X connect 62 0 57 1;
#X connect 63 0 65 0;
#X connect 64 0 66 0;
#X connect 65 0 61 1;
#X connect 66 0 62 1;
#X connect 68 0 0 0;
#X connect 68 0 43 0;
#X connect 69 0 50 0;
#X connect 69 0 58 1;
#X connect 70 0 40 1;
#X connect 70 0 41 0;
#X connect 70 0 53 0;
#X coords 0 -1 1 1 200 230 1 100 100;
#X restore 788 84 pd earth;
#N canvas -8 0 958 966 mars 0;
#X obj 313 459 mtof;
#X obj 313 489 osc~;
#X obj 338 583 *~;
#X obj 613 64 tgl 30 0 empty empty planet 0 -10 0 12 #ff8300 #000000 #000000 0 1;
#X obj 160 304 hsl 90 15 0 0.1 0 0 empty empty volume -2 -10 0 10 #ffc7c6 #000000 #000000 0 1;
#X obj 234 635 freeverb~;
#X msg 97 580 wet \$1;
#X msg 151 580 dry \$1;
#X obj 125 499 hsl 128 15 0 1 0 0 empty empty empty -2 -8 0 10 #c6feff #000000 #000000 0 1;
#N canvas 1 80 450 300 inv 0;
#X obj 154 69 inlet;
#X obj 154 179 outlet;
#X msg 154 124 1;
#X obj 154 97 t b f;
#X obj 154 151 -;
#X connect 0 0 3 0;
#X connect 2 0 4 0;
#X connect 3 0 2 0;
#X connect 3 1 4 1;
#X connect 4 0 1 0;
#X restore 151 553 pd inv;
#X floatatom 209 578 5 0 0 0 - - - 0;
#X text 111 481 dry;
#X text 247 481 wet, f 4;
#X floatatom 109 554 5 0 0 0 - - - 0;
#X text 166 479 Reverb;
#X msg 426 308 0;
#X obj 414 4 loadbang;
#X obj 426 285 select 0 1;
#X msg 458 309 1;
#X obj 421 356 *~;
#X obj 888 707 hsl 128 15 -1 1 0 0 empty empty empty -2 -8 0 10 #ffe3c6 #000000 #000000 0 1;
#X floatatom 886 681 10 0 0 0 - - - 0;
#X obj 885 652 sin;
#X obj 881 379 metro;
#X obj 881 403 bng 19 250 50 0 empty empty empty 0 -10 0 12 #fcfcfc #000000 #000000;
#X obj 936 450 + 1;
#X floatatom 882 498 15 0 0 0 - - - 0;
#X obj 882 521 / 360;
#X obj 882 545 * 6.28319;
#X obj 882 569 * 1;
#X obj 882 337 tgl 19 0 empty empty empty 0 -10 0 12 #fcfcfc #000000 #000000 0 1;
#X msg 1015 54 10, f 4;
#X text 424 262 on and off;
#X text 301 436 note;
#X text 138 446 reverb controls;
#X text 876 309 metro sequencer;
#X text 917 56 global speed;
#X obj 141 153 hsl 128 20 -1 1 0 0 empty empty orbit\ position -2 -8 0 10 #ff0400 #000000 #000000 0 1;
#X text 764 127 planet rotation;
#X text 759 138 around sun (days);
#X obj 986 627 /;
#X msg 984 593 686.98;
#X obj 314 518 *~ 0.5;
#X obj 311 697 mtof;
#X obj 286 729 lop~;
#X text 92 765 lowpass at the note value (remove scratches);
#X obj 1014 22 loadbang;
#X text 363 163 note value;
#X text 568 154 planet position;
#X text 619 170 in orbit;
#X floatatom 186 265 5 0 0 0 - - - 0;
#X text 150 178 planet rotation;
#X text 148 190 around sun (days);
#X floatatom 135 211 20 0 0 0 - - - 0;
#X obj 554 9 inlet;
#X obj 612 7 r planetstart;
#X text 117 245 planet position in orbit;
#X obj 473 862 dac~;
#X obj 882 450 int 1;
#X obj 67 445 r reverb;
#X obj 254 685 *~ 1;
#X obj 475 784 *~;
#X obj 520 784 *~;
#X obj 495 626 * 0.5;
#X obj 584 628 * -0.5;
#X obj 495 650 + 0.5;
#X obj 584 652 + 0.5;
#X text 176 118 MARS;
#X msg 532 160 309;
#X msg 741 159 686.98, f 22;
#X msg 334 162 54;
#X connect 0 0 1 0;
#X connect 1 0 42 0;
#X connect 2 0 5 0;
#X connect 2 0 5 1;
#X connect 3 0 17 0;
#X connect 3 0 69 0;
#X connect 3 0 68 0;
#X connect 3 0 70 0;
#X connect 3 0 30 0;
#X connect 4 0 19 0;
#X connect 5 0 60 0;
#X connect 5 1 60 0;
#X connect 6 0 5 0;
#X connect 7 0 5 0;
#X connect 8 0 6 0;
#X connect 8 0 9 0;
#X connect 8 0 13 0;
#X connect 9 0 7 0;
#X connect 9 0 10 0;
#X connect 15 0 19 1;
#X connect 16 0 70 0;
#X connect 16 0 69 0;
#X connect 17 0 15 0;
#X connect 17 1 18 0;
#X connect 18 0 19 1;
#X connect 19 0 2 1;
#X connect 20 0 37 0;
#X connect 20 0 63 0;
#X connect 20 0 64 0;
#X connect 22 0 20 0;
#X connect 22 0 21 0;
#X connect 23 0 24 0;
#X connect 24 0 58 0;
#X connect 25 0 58 1;
#X connect 26 0 27 0;
#X connect 27 0 28 0;
#X connect 28 0 29 0;
#X connect 29 0 22 0;
#X connect 30 0 23 0;
#X connect 30 0 68 0;
#X connect 31 0 23 1;
#X connect 40 0 29 1;
#X connect 41 0 40 0;
#X connect 42 0 2 0;
#X connect 43 0 44 1;
#X connect 44 0 61 0;
#X connect 44 0 62 0;
#X connect 46 0 31 0;
#X connect 54 0 3 0;
#X connect 55 0 3 0;
#X connect 58 0 25 0;
#X connect 58 0 26 0;
#X connect 59 0 8 0;
#X connect 60 0 44 0;
#X connect 61 0 57 0;
#X connect 62 0 57 1;
#X connect 63 0 65 0;
#X connect 64 0 66 0;
#X connect 65 0 61 1;
#X connect 66 0 62 1;
#X connect 68 0 50 0;
#X connect 68 0 58 1;
#X connect 69 0 40 1;
#X connect 69 0 41 0;
#X connect 69 0 53 0;
#X connect 70 0 0 0;
#X connect 70 0 43 0;
#X coords 0 -1 1 1 200 230 1 100 100;
#X restore 889 362 pd mars;
#N canvas -8 0 958 966 jupiter 0;
#X obj 313 459 mtof;
#X obj 313 489 osc~;
#X obj 338 583 *~;
#X obj 613 64 tgl 30 0 empty empty planet 0 -10 0 12 #ff8300 #000000 #000000 0 1;
#X obj 154 298 hsl 90 15 0 0.1 0 0 empty empty volume -2 -10 0 10 #fbe2a2 #000000 #000000 0 1;
#X obj 234 635 freeverb~;
#X msg 97 580 wet \$1;
#X msg 151 580 dry \$1;
#X obj 125 499 hsl 128 15 0 1 0 0 empty empty empty -2 -8 0 10 #c6feff #000000 #000000 0 1;
#N canvas 1 80 450 300 inv 0;
#X obj 154 69 inlet;
#X obj 154 179 outlet;
#X msg 154 124 1;
#X obj 154 97 t b f;
#X obj 154 151 -;
#X connect 0 0 3 0;
#X connect 2 0 4 0;
#X connect 3 0 2 0;
#X connect 3 1 4 1;
#X connect 4 0 1 0;
#X restore 151 553 pd inv;
#X floatatom 209 578 5 0 0 0 - - - 0;
#X text 111 481 dry;
#X text 247 481 wet, f 4;
#X floatatom 109 554 5 0 0 0 - - - 0;
#X text 166 479 Reverb;
#X msg 426 308 0;
#X obj 414 4 loadbang;
#X obj 426 285 select 0 1;
#X msg 458 309 1;
#X obj 421 356 *~;
#X obj 888 707 hsl 128 15 -1 1 0 0 empty empty empty -2 -8 0 10 #ffe3c6 #000000 #000000 0 1;
#X floatatom 886 681 10 0 0 0 - - - 0;
#X obj 885 652 sin;
#X obj 881 379 metro;
#X obj 881 403 bng 19 250 50 0 empty empty empty 0 -10 0 12 #fcfcfc #000000 #000000;
#X obj 936 450 + 1;
#X floatatom 882 498 15 0 0 0 - - - 0;
#X obj 882 521 / 360;
#X obj 882 545 * 6.28319;
#X obj 882 569 * 1;
#X obj 882 337 tgl 19 0 empty empty empty 0 -10 0 12 #fcfcfc #000000 #000000 0 1;
#X msg 1015 54 10, f 4;
#X text 424 262 on and off;
#X text 301 436 note;
#X text 138 446 reverb controls;
#X text 876 309 metro sequencer;
#X text 917 56 global speed;
#X obj 141 153 hsl 128 20 -1 1 0 0 empty empty orbit\ position -2 -8 0 10 #efb00a #000000 #000000 0 1;
#X text 764 127 planet rotation;
#X text 759 138 around sun (days);
#X obj 986 627 /;
#X msg 984 593 686.98;
#X obj 314 518 *~ 0.5;
#X obj 311 697 mtof;
#X obj 286 729 lop~;
#X text 92 765 lowpass at the note value (remove scratches);
#X obj 1014 22 loadbang;
#X text 363 163 note value;
#X text 568 154 planet position;
#X text 619 170 in orbit;
#X floatatom 186 265 5 0 0 0 - - - 0;
#X text 150 178 planet rotation;
#X text 148 190 around sun (days);
#X floatatom 135 211 20 0 0 0 - - - 0;
#X obj 554 9 inlet;
#X obj 612 7 r planetstart;
#X text 117 245 planet position in orbit;
#X obj 473 862 dac~;
#X obj 882 450 int 1;
#X obj 67 445 r reverb;
#X obj 254 685 *~ 1;
#X obj 475 784 *~;
#X obj 520 784 *~;
#X obj 495 626 * 0.5;
#X obj 584 628 * -0.5;
#X obj 495 650 + 0.5;
#X obj 584 652 + 0.5;
#X text 176 118 JUPITER;
#X msg 334 162 42;
#X msg 532 160 62;
#X msg 741 159 4328.9, f 22;
#X connect 0 0 1 0;
#X connect 1 0 42 0;
#X connect 2 0 5 0;
#X connect 2 0 5 1;
#X connect 3 0 17 0;
#X connect 3 0 70 0;
#X connect 3 0 69 0;
#X connect 3 0 68 0;
#X connect 3 0 30 0;
#X connect 4 0 19 0;
#X connect 5 0 60 0;
#X connect 5 1 60 0;
#X connect 6 0 5 0;
#X connect 7 0 5 0;
#X connect 8 0 6 0;
#X connect 8 0 9 0;
#X connect 8 0 13 0;
#X connect 9 0 7 0;
#X connect 9 0 10 0;
#X connect 15 0 19 1;
#X connect 16 0 68 0;
#X connect 16 0 70 0;
#X connect 17 0 15 0;
#X connect 17 1 18 0;
#X connect 18 0 19 1;
#X connect 19 0 2 1;
#X connect 20 0 37 0;
#X connect 20 0 63 0;
#X connect 20 0 64 0;
#X connect 22 0 20 0;
#X connect 22 0 21 0;
#X connect 23 0 24 0;
#X connect 24 0 58 0;
#X connect 25 0 58 1;
#X connect 26 0 27 0;
#X connect 27 0 28 0;
#X connect 28 0 29 0;
#X connect 29 0 22 0;
#X connect 30 0 23 0;
#X connect 30 0 69 0;
#X connect 31 0 23 1;
#X connect 40 0 29 1;
#X connect 41 0 40 0;
#X connect 42 0 2 0;
#X connect 43 0 44 1;
#X connect 44 0 61 0;
#X connect 44 0 62 0;
#X connect 46 0 31 0;
#X connect 54 0 3 0;
#X connect 55 0 3 0;
#X connect 58 0 25 0;
#X connect 58 0 26 0;
#X connect 59 0 8 0;
#X connect 60 0 44 0;
#X connect 61 0 57 0;
#X connect 62 0 57 1;
#X connect 63 0 65 0;
#X connect 64 0 66 0;
#X connect 65 0 61 1;
#X connect 66 0 62 1;
#X connect 68 0 0 0;
#X connect 68 0 43 0;
#X connect 69 0 50 0;
#X connect 69 0 58 1;
#X connect 70 0 40 1;
#X connect 70 0 41 0;
#X connect 70 0 53 0;
#X coords 0 -1 1 1 200 230 1 100 100;
#X restore 791 651 pd jupiter;
#N canvas -8 0 958 966 saturn 0;
#X obj 313 459 mtof;
#X obj 313 489 osc~;
#X obj 338 583 *~;
#X obj 613 64 tgl 30 0 empty empty planet 0 -10 0 12 #ff8300 #000000 #000000 0 1;
#X obj 160 304 hsl 90 15 0 0.1 0 0 empty empty volume -2 -10 0 10 #feffc6 #000000 #000000 0 1;
#X obj 234 635 freeverb~;
#X msg 97 580 wet \$1;
#X msg 151 580 dry \$1;
#X obj 125 499 hsl 128 15 0 1 0 0 empty empty empty -2 -8 0 10 #c6feff #000000 #000000 0 1;
#N canvas 1 80 450 300 inv 0;
#X obj 154 69 inlet;
#X obj 154 179 outlet;
#X msg 154 124 1;
#X obj 154 97 t b f;
#X obj 154 151 -;
#X connect 0 0 3 0;
#X connect 2 0 4 0;
#X connect 3 0 2 0;
#X connect 3 1 4 1;
#X connect 4 0 1 0;
#X restore 151 553 pd inv;
#X floatatom 209 578 5 0 0 0 - - - 0;
#X text 111 481 dry;
#X text 247 481 wet, f 4;
#X floatatom 109 554 5 0 0 0 - - - 0;
#X text 166 479 Reverb;
#X msg 426 308 0;
#X obj 414 4 loadbang;
#X obj 426 285 select 0 1;
#X msg 458 309 1;
#X obj 421 356 *~;
#X obj 888 707 hsl 128 15 -1 1 0 0 empty empty empty -2 -8 0 10 #ffe3c6 #000000 #000000 0 1;
#X floatatom 886 681 10 0 0 0 - - - 0;
#X obj 885 652 sin;
#X obj 881 379 metro;
#X obj 881 403 bng 19 250 50 0 empty empty empty 0 -10 0 12 #fcfcfc #000000 #000000;
#X obj 936 450 + 1;
#X floatatom 882 498 15 0 0 0 - - - 0;
#X obj 882 521 / 360;
#X obj 882 545 * 6.28319;
#X obj 882 569 * 1;
#X obj 882 337 tgl 19 0 empty empty empty 0 -10 0 12 #fcfcfc #000000 #000000 0 1;
#X msg 1015 54 10, f 4;
#X text 424 262 on and off;
#X text 301 436 note;
#X text 138 446 reverb controls;
#X text 876 309 metro sequencer;
#X text 917 56 global speed;
#X obj 141 153 hsl 128 20 -1 1 0 0 empty empty orbit\ position -2 -8 0 10 #faff00 #000000 #000000 0 1;
#X text 764 127 planet rotation;
#X text 759 138 around sun (days);
#X obj 986 627 /;
#X msg 984 593 686.98;
#X obj 314 518 *~ 0.5;
#X obj 311 697 mtof;
#X obj 286 729 lop~;
#X text 92 765 lowpass at the note value (remove scratches);
#X obj 1014 22 loadbang;
#X text 363 163 note value;
#X text 568 154 planet position;
#X text 619 170 in orbit;
#X floatatom 186 265 5 0 0 0 - - - 0;
#X text 150 178 planet rotation;
#X text 148 190 around sun (days);
#X floatatom 135 211 20 0 0 0 - - - 0;
#X obj 554 9 inlet;
#X obj 612 7 r planetstart;
#X text 117 245 planet position in orbit;
#X obj 473 862 dac~;
#X obj 882 450 int 1;
#X obj 67 445 r reverb;
#X obj 254 685 *~ 1;
#X obj 475 784 *~;
#X obj 520 784 *~;
#X obj 495 626 * 0.5;
#X obj 584 628 * -0.5;
#X obj 495 650 + 0.5;
#X obj 584 652 + 0.5;
#X text 176 118 SATURN;
#X msg 334 162 51;
#X msg 532 160 116;
#X msg 741 159 30663.7, f 22;
#X connect 0 0 1 0;
#X connect 1 0 42 0;
#X connect 2 0 5 0;
#X connect 2 0 5 1;
#X connect 3 0 17 0;
#X connect 3 0 70 0;
#X connect 3 0 69 0;
#X connect 3 0 68 0;
#X connect 3 0 30 0;
#X connect 4 0 19 0;
#X connect 5 0 60 0;
#X connect 5 1 60 0;
#X connect 6 0 5 0;
#X connect 7 0 5 0;
#X connect 8 0 6 0;
#X connect 8 0 9 0;
#X connect 8 0 13 0;
#X connect 9 0 7 0;
#X connect 9 0 10 0;
#X connect 15 0 19 1;
#X connect 16 0 68 0;
#X connect 16 0 70 0;
#X connect 17 0 15 0;
#X connect 17 1 18 0;
#X connect 18 0 19 1;
#X connect 19 0 2 1;
#X connect 20 0 37 0;
#X connect 20 0 63 0;
#X connect 20 0 64 0;
#X connect 22 0 20 0;
#X connect 22 0 21 0;
#X connect 23 0 24 0;
#X connect 24 0 58 0;
#X connect 25 0 58 1;
#X connect 26 0 27 0;
#X connect 27 0 28 0;
#X connect 28 0 29 0;
#X connect 29 0 22 0;
#X connect 30 0 23 0;
#X connect 30 0 69 0;
#X connect 31 0 23 1;
#X connect 40 0 29 1;
#X connect 41 0 40 0;
#X connect 42 0 2 0;
#X connect 43 0 44 1;
#X connect 44 0 61 0;
#X connect 44 0 62 0;
#X connect 46 0 31 0;
#X connect 54 0 3 0;
#X connect 55 0 3 0;
#X connect 58 0 25 0;
#X connect 58 0 26 0;
#X connect 59 0 8 0;
#X connect 60 0 44 0;
#X connect 61 0 57 0;
#X connect 62 0 57 1;
#X connect 63 0 65 0;
#X connect 64 0 66 0;
#X connect 65 0 61 1;
#X connect 66 0 62 1;
#X connect 68 0 0 0;
#X connect 68 0 43 0;
#X connect 69 0 50 0;
#X connect 69 0 58 1;
#X connect 70 0 40 1;
#X connect 70 0 41 0;
#X connect 70 0 53 0;
#X coords 0 -1 1 1 200 230 1 100 100;
#X restore 540 693 pd saturn;
#N canvas -8 0 958 966 uranus 0;
#X obj 313 459 mtof;
#X obj 313 489 osc~;
#X obj 338 583 *~;
#X obj 613 64 tgl 30 0 empty empty planet 0 -10 0 12 #ff8300 #000000 #000000 0 1;
#X obj 160 304 hsl 90 15 0 0.1 0 0 empty empty volume -2 -10 0 10 #c7c6ff #000000 #000000 0 1;
#X obj 234 635 freeverb~;
#X msg 97 580 wet \$1;
#X msg 151 580 dry \$1;
#X obj 125 499 hsl 128 15 0 1 0 0 empty empty empty -2 -8 0 10 #c6feff #000000 #000000 0 1;
#N canvas 1 80 450 300 inv 0;
#X obj 154 69 inlet;
#X obj 154 179 outlet;
#X msg 154 124 1;
#X obj 154 97 t b f;
#X obj 154 151 -;
#X connect 0 0 3 0;
#X connect 2 0 4 0;
#X connect 3 0 2 0;
#X connect 3 1 4 1;
#X connect 4 0 1 0;
#X restore 151 553 pd inv;
#X floatatom 209 578 5 0 0 0 - - - 0;
#X text 111 481 dry;
#X text 247 481 wet, f 4;
#X floatatom 109 554 5 0 0 0 - - - 0;
#X text 166 479 Reverb;
#X msg 426 308 0;
#X obj 414 4 loadbang;
#X obj 426 285 select 0 1;
#X msg 458 309 1;
#X obj 421 356 *~;
#X obj 888 707 hsl 128 15 -1 1 0 0 empty empty empty -2 -8 0 10 #ffe3c6 #000000 #000000 0 1;
#X floatatom 886 681 10 0 0 0 - - - 0;
#X obj 885 652 sin;
#X obj 881 379 metro;
#X obj 881 403 bng 19 250 50 0 empty empty empty 0 -10 0 12 #fcfcfc #000000 #000000;
#X obj 936 450 + 1;
#X floatatom 882 498 15 0 0 0 - - - 0;
#X obj 882 521 / 360;
#X obj 882 545 * 6.28319;
#X obj 882 569 * 1;
#X obj 882 337 tgl 19 0 empty empty empty 0 -10 0 12 #fcfcfc #000000 #000000 0 1;
#X msg 1015 54 10, f 4;
#X text 424 262 on and off;
#X text 301 436 note;
#X text 138 446 reverb controls;
#X text 876 309 metro sequencer;
#X text 917 56 global speed;
#X obj 141 153 hsl 128 20 -1 1 0 0 empty empty orbit\ position -2 -8 0 10 #0400ff #000000 #000000 0 1;
#X text 764 127 planet rotation;
#X text 759 138 around sun (days);
#X obj 986 627 /;
#X msg 984 593 686.98;
#X obj 314 518 *~ 0.5;
#X obj 311 697 mtof;
#X obj 286 729 lop~;
#X text 92 765 lowpass at the note value (remove scratches);
#X obj 1014 22 loadbang;
#X text 363 163 note value;
#X text 568 154 planet position;
#X text 619 170 in orbit;
#X floatatom 186 265 5 0 0 0 - - - 0;
#X text 150 178 planet rotation;
#X text 148 190 around sun (days);
#X floatatom 135 211 20 0 0 0 - - - 0;
#X obj 554 9 inlet;
#X obj 612 7 r planetstart;
#X text 117 245 planet position in orbit;
#X obj 473 862 dac~;
#X obj 882 450 int 1;
#X obj 67 445 r reverb;
#X obj 254 685 *~ 1;
#X obj 475 784 *~;
#X obj 520 784 *~;
#X obj 495 626 * 0.5;
#X obj 584 628 * -0.5;
#X obj 495 650 + 0.5;
#X obj 584 652 + 0.5;
#X text 176 118 URANUS;
#X msg 741 159 30663.7, f 22;
#X msg 532 160 34;
#X msg 334 162 66;
#X connect 0 0 1 0;
#X connect 1 0 42 0;
#X connect 2 0 5 0;
#X connect 2 0 5 1;
#X connect 3 0 17 0;
#X connect 3 0 68 0;
#X connect 3 0 69 0;
#X connect 3 0 70 0;
#X connect 3 0 30 0;
#X connect 4 0 19 0;
#X connect 5 0 60 0;
#X connect 5 1 60 0;
#X connect 6 0 5 0;
#X connect 7 0 5 0;
#X connect 8 0 6 0;
#X connect 8 0 9 0;
#X connect 8 0 13 0;
#X connect 9 0 7 0;
#X connect 9 0 10 0;
#X connect 15 0 19 1;
#X connect 16 0 70 0;
#X connect 16 0 68 0;
#X connect 17 0 15 0;
#X connect 17 1 18 0;
#X connect 18 0 19 1;
#X connect 19 0 2 1;
#X connect 20 0 37 0;
#X connect 20 0 63 0;
#X connect 20 0 64 0;
#X connect 22 0 20 0;
#X connect 22 0 21 0;
#X connect 23 0 24 0;
#X connect 24 0 58 0;
#X connect 25 0 58 1;
#X connect 26 0 27 0;
#X connect 27 0 28 0;
#X connect 28 0 29 0;
#X connect 29 0 22 0;
#X connect 30 0 23 0;
#X connect 30 0 69 0;
#X connect 31 0 23 1;
#X connect 40 0 29 1;
#X connect 41 0 40 0;
#X connect 42 0 2 0;
#X connect 43 0 44 1;
#X connect 44 0 61 0;
#X connect 44 0 62 0;
#X connect 46 0 31 0;
#X connect 54 0 3 0;
#X connect 55 0 3 0;
#X connect 58 0 25 0;
#X connect 58 0 26 0;
#X connect 59 0 8 0;
#X connect 60 0 44 0;
#X connect 61 0 57 0;
#X connect 62 0 57 1;
#X connect 63 0 65 0;
#X connect 64 0 66 0;
#X connect 65 0 61 1;
#X connect 66 0 62 1;
#X connect 68 0 40 1;
#X connect 68 0 41 0;
#X connect 68 0 53 0;
#X connect 69 0 50 0;
#X connect 69 0 58 1;
#X connect 70 0 0 0;
#X connect 70 0 43 0;
#X coords 0 -1 1 1 200 230 1 100 100;
#X restore 269 649 pd uranus;
#N canvas -8 0 958 966 neptune 0;
#X obj 313 459 mtof;
#X obj 313 489 osc~;
#X obj 338 583 *~;
#X obj 613 64 tgl 30 0 empty empty planet 0 -10 0 12 #ff8300 #000000 #000000 0 1;
#X obj 160 304 hsl 90 15 0 0.1 0 0 empty empty volume -2 -10 0 10 #e3c6ff #000000 #000000 0 1;
#X obj 234 635 freeverb~;
#X msg 97 580 wet \$1;
#X msg 151 580 dry \$1;
#X obj 125 499 hsl 128 15 0 1 0 0 empty empty empty -2 -8 0 10 #c6feff #000000 #000000 0 1;
#N canvas 1 80 450 300 inv 0;
#X obj 154 69 inlet;
#X obj 154 179 outlet;
#X msg 154 124 1;
#X obj 154 97 t b f;
#X obj 154 151 -;
#X connect 0 0 3 0;
#X connect 2 0 4 0;
#X connect 3 0 2 0;
#X connect 3 1 4 1;
#X connect 4 0 1 0;
#X restore 151 553 pd inv;
#X floatatom 209 578 5 0 0 0 - - - 0;
#X text 111 481 dry;
#X text 247 481 wet, f 4;
#X floatatom 109 554 5 0 0 0 - - - 0;
#X text 166 479 Reverb;
#X msg 426 308 0;
#X obj 414 4 loadbang;
#X obj 426 285 select 0 1;
#X msg 458 309 1;
#X obj 421 356 *~;
#X obj 888 707 hsl 128 15 -1 1 0 0 empty empty empty -2 -8 0 10 #ffe3c6 #000000 #000000 0 1;
#X floatatom 886 681 10 0 0 0 - - - 0;
#X obj 885 652 sin;
#X obj 881 379 metro;
#X obj 881 403 bng 19 250 50 0 empty empty empty 0 -10 0 12 #fcfcfc #000000 #000000;
#X obj 936 450 + 1;
#X floatatom 882 498 15 0 0 0 - - - 0;
#X obj 882 521 / 360;
#X obj 882 545 * 6.28319;
#X obj 882 569 * 1;
#X obj 882 337 tgl 19 0 empty empty empty 0 -10 0 12 #fcfcfc #000000 #000000 0 1;
#X msg 1015 54 10, f 4;
#X text 424 262 on and off;
#X text 301 436 note;
#X text 138 446 reverb controls;
#X text 876 309 metro sequencer;
#X text 917 56 global speed;
#X obj 141 153 hsl 128 20 -1 1 0 0 empty empty orbit\ position -2 -8 0 10 #9c00ff #000000 #000000 0 1;
#X text 764 127 planet rotation;
#X text 759 138 around sun (days);
#X obj 986 627 /;
#X msg 984 593 686.98;
#X obj 314 518 *~ 0.5;
#X obj 311 697 mtof;
#X obj 286 729 lop~;
#X text 92 765 lowpass at the note value (remove scratches);
#X obj 1014 22 loadbang;
#X text 363 163 note value;
#X text 568 154 planet position;
#X text 619 170 in orbit;
#X floatatom 186 265 5 0 0 0 - - - 0;
#X text 150 178 planet rotation;
#X text 148 190 around sun (days);
#X floatatom 135 211 20 0 0 0 - - - 0;
#X obj 554 9 inlet;
#X obj 612 7 r planetstart;
#X text 117 245 planet position in orbit;
#X obj 473 862 dac~;
#X obj 882 450 int 1;
#X obj 67 445 r reverb;
#X obj 254 685 *~ 1;
#X obj 475 784 *~;
#X obj 520 784 *~;
#X obj 495 626 * 0.5;
#X obj 584 628 * -0.5;
#X obj 495 650 + 0.5;
#X obj 584 652 + 0.5;
#X text 176 118 NEPTUNE;
#X msg 334 162 71;
#X msg 532 160 88;
#X msg 741 159 60148.4, f 22;
#X connect 0 0 1 0;
#X connect 1 0 42 0;
#X connect 2 0 5 0;
#X connect 2 0 5 1;
#X connect 3 0 17 0;
#X connect 3 0 70 0;
#X connect 3 0 69 0;
#X connect 3 0 68 0;
#X connect 3 0 30 0;
#X connect 4 0 19 0;
#X connect 5 0 60 0;
#X connect 5 1 60 0;
#X connect 6 0 5 0;
#X connect 7 0 5 0;
#X connect 8 0 6 0;
#X connect 8 0 9 0;
#X connect 8 0 13 0;
#X connect 9 0 7 0;
#X connect 9 0 10 0;
#X connect 15 0 19 1;
#X connect 16 0 68 0;
#X connect 16 0 70 0;
#X connect 17 0 15 0;
#X connect 17 1 18 0;
#X connect 18 0 19 1;
#X connect 19 0 2 1;
#X connect 20 0 37 0;
#X connect 20 0 63 0;
#X connect 20 0 64 0;
#X connect 22 0 20 0;
#X connect 22 0 21 0;
#X connect 23 0 24 0;
#X connect 24 0 58 0;
#X connect 25 0 58 1;
#X connect 26 0 27 0;
#X connect 27 0 28 0;
#X connect 28 0 29 0;
#X connect 29 0 22 0;
#X connect 30 0 23 0;
#X connect 30 0 69 0;
#X connect 31 0 23 1;
#X connect 40 0 29 1;
#X connect 41 0 40 0;
#X connect 42 0 2 0;
#X connect 43 0 44 1;
#X connect 44 0 61 0;
#X connect 44 0 62 0;
#X connect 46 0 31 0;
#X connect 54 0 3 0;
#X connect 55 0 3 0;
#X connect 58 0 25 0;
#X connect 58 0 26 0;
#X connect 59 0 8 0;
#X connect 60 0 44 0;
#X connect 61 0 57 0;
#X connect 62 0 57 1;
#X connect 63 0 65 0;
#X connect 64 0 66 0;
#X connect 65 0 61 1;
#X connect 66 0 62 1;
#X connect 68 0 0 0;
#X connect 68 0 43 0;
#X connect 69 0 50 0;
#X connect 69 0 58 1;
#X connect 70 0 40 1;
#X connect 70 0 41 0;
#X connect 70 0 53 0;
#X coords 0 -1 1 1 200 230 1 100 100;
#X restore 156 359 pd neptune;
#N canvas 516 344 715 500 metronomeCounter 0;
#X floatatom 244 163 5 0 0 0 beat\ length - - 0;
#X obj 146 297 f;
#X obj 215 296 + 1;
#X obj 146 320 % 8;
#X obj 146 274 metro;
#X obj 108 189 hradio 19 1 0 8 empty empty empty 0 -10 0 12 #ffffff #000000 #000000 0;
#X obj 225 36 loadbang;
#X msg 225 59 150;
#X obj 108 126 tgl 50 0 empty empty ON 55 28 0 20 #ffc7c6 #000000 #000000 0 1;
#X obj 317 106 select 0;
#X obj 319 150 bng 19 250 50 0 empty empty empty 0 -10 0 12 #fcfcfc #000000 #000000;
#X obj 379 236 s turnoff_ns;
#X obj 146 343 s trigger_ns;
#X msg 320 237 0;
#X obj 379 209 delay 50;
#X connect 0 0 4 1;
#X connect 1 0 2 0;
#X connect 1 0 3 0;
#X connect 2 0 1 1;
#X connect 3 0 5 0;
#X connect 3 0 12 0;
#X connect 4 0 1 0;
#X connect 6 0 7 0;
#X connect 7 0 0 0;
#X connect 8 0 4 0;
#X connect 8 0 9 0;
#X connect 9 0 10 0;
#X connect 10 0 13 0;
#X connect 10 0 14 0;
#X connect 13 0 1 0;
#X connect 14 0 11 0;
#X coords 0 -1 1 1 200 120 1 100 100;
#X restore 1433 45 pd metronomeCounter;
#X obj 1260 51 hsl 162 19 0 0.01 0 0 empty empty Volume -2 -10 0 12 #ffc7c6 #000000 #000000 0 1;
#X obj 1255 238 s noteA;
#X obj 1510 176 r noteA;
#X msg 1510 204 78;
#X obj 1257 86 s starVolume;
#N canvas 665 164 645 499 stars_a 0;
#X text 243 31 number in sequence (1-8);
#X obj 148 54 sel 0 1 2 3 4 5 6 7;
#X obj 51 180 f;
#X obj 92 180 f;
#X obj 133 180 f;
#X obj 174 180 f;
#X obj 228 180 f;
#X obj 269 180 f;
#X obj 312 180 f;
#X obj 353 180 f;
#X obj 206 268 f;
#X floatatom 262 324 5 0 0 0 - - - 0;
#X text 304 311 volume control;
#X msg 304 290 0;
#X obj 148 32 r trigger_ns;
#X obj 113 117 tgl 19 0 empty empty empty 0 -10 0 12 #feffc6 #000000 #000000 0 1;
#X obj 139 117 tgl 19 0 empty empty empty 0 -10 0 12 #fcff88 #000000 #000000 0 1;
#X obj 164 117 tgl 19 0 empty empty empty 0 -10 0 12 #faf48d #000000 #000000 0 1;
#X obj 190 117 tgl 19 0 empty empty empty 0 -10 0 12 #f1ed41 #000000 #000000 0 1;
#X obj 221 117 tgl 19 0 empty empty empty 0 -10 0 12 #fffda4 #000000 #000000 0 1;
#X obj 247 117 tgl 19 0 empty empty empty 0 -10 0 12 #eff939 #000000 #000000 0 1;
#X obj 272 117 tgl 19 0 empty empty empty 0 -10 0 12 #faf5a9 #000000 #000000 0 1;
#X obj 298 117 tgl 19 0 empty empty empty 0 -10 0 12 #e7fc6d #000000 #000000 0 1;
#X obj 304 268 r turnoff_ns;
#X obj 212 401 outlet;
#X connect 1 0 2 0;
#X connect 1 1 3 0;
#X connect 1 2 4 0;
#X connect 1 3 5 0;
#X connect 1 4 6 0;
#X connect 1 5 7 0;
#X connect 1 6 8 0;
#X connect 1 7 9 0;
#X connect 2 0 10 0;
#X connect 3 0 10 0;
#X connect 4 0 10 0;
#X connect 5 0 10 0;
#X connect 6 0 10 0;
#X connect 7 0 10 0;
#X connect 8 0 10 0;
#X connect 9 0 10 0;
#X connect 10 0 11 0;
#X connect 11 0 24 0;
#X connect 13 0 11 0;
#X connect 14 0 1 0;
#X connect 15 0 2 1;
#X connect 16 0 3 1;
#X connect 17 0 4 1;
#X connect 18 0 5 1;
#X connect 19 0 6 1;
#X connect 20 0 7 1;
#X connect 21 0 8 1;
#X connect 22 0 9 1;
#X connect 23 0 13 0;
#X coords 0 -1 1 1 230 50 1 100 100;
#X restore 1255 533 pd stars_a;
#N canvas 665 164 645 499 stars_a 0;
#X text 243 31 number in sequence (1-8);
#X obj 148 54 sel 0 1 2 3 4 5 6 7;
#X obj 51 180 f;
#X obj 92 180 f;
#X obj 133 180 f;
#X obj 174 180 f;
#X obj 228 180 f;
#X obj 269 180 f;
#X obj 312 180 f;
#X obj 353 180 f;
#X obj 206 268 f;
#X floatatom 262 324 5 0 0 0 - - - 0;
#X text 304 311 volume control;
#X msg 304 290 0;
#X obj 148 32 r trigger_ns;
#X obj 113 117 tgl 19 0 empty empty empty 0 -10 0 12 #feffc6 #000000 #000000 0 1;
#X obj 139 117 tgl 19 0 empty empty empty 0 -10 0 12 #fcff88 #000000 #000000 0 1;
#X obj 164 117 tgl 19 0 empty empty empty 0 -10 0 12 #faf48d #000000 #000000 0 1;
#X obj 190 117 tgl 19 0 empty empty empty 0 -10 0 12 #f1ed41 #000000 #000000 0 1;
#X obj 221 117 tgl 19 0 empty empty empty 0 -10 0 12 #fffda4 #000000 #000000 0 1;
#X obj 247 117 tgl 19 0 empty empty empty 0 -10 0 12 #eff939 #000000 #000000 0 1;
#X obj 272 117 tgl 19 0 empty empty empty 0 -10 0 12 #faf5a9 #000000 #000000 0 1;
#X obj 298 117 tgl 19 0 empty empty empty 0 -10 0 12 #e7fc6d #000000 #000000 0 1;
#X obj 304 268 r turnoff_ns;
#X obj 212 401 outlet;
#X connect 1 0 2 0;
#X connect 1 1 3 0;
#X connect 1 2 4 0;
#X connect 1 3 5 0;
#X connect 1 4 6 0;
#X connect 1 5 7 0;
#X connect 1 6 8 0;
#X connect 1 7 9 0;
#X connect 2 0 10 0;
#X connect 3 0 10 0;
#X connect 4 0 10 0;
#X connect 5 0 10 0;
#X connect 6 0 10 0;
#X connect 7 0 10 0;
#X connect 8 0 10 0;
#X connect 9 0 10 0;
#X connect 10 0 11 0;
#X connect 11 0 24 0;
#X connect 13 0 11 0;
#X connect 14 0 1 0;
#X connect 15 0 2 1;
#X connect 16 0 3 1;
#X connect 17 0 4 1;
#X connect 18 0 5 1;
#X connect 19 0 6 1;
#X connect 20 0 7 1;
#X connect 21 0 8 1;
#X connect 22 0 9 1;
#X connect 23 0 13 0;
#X coords 0 -1 1 1 230 50 1 100 100;
#X restore 1255 621 pd stars_a;
#N canvas 665 164 645 499 stars_a 0;
#X text 243 31 number in sequence (1-8);
#X obj 148 54 sel 0 1 2 3 4 5 6 7;
#X obj 51 180 f;
#X obj 92 180 f;
#X obj 133 180 f;
#X obj 174 180 f;
#X obj 228 180 f;
#X obj 269 180 f;
#X obj 312 180 f;
#X obj 353 180 f;
#X obj 206 268 f;
#X floatatom 262 324 5 0 0 0 - - - 0;
#X text 304 311 volume control;
#X msg 304 290 0;
#X obj 148 32 r trigger_ns;
#X obj 113 117 tgl 19 0 empty empty empty 0 -10 0 12 #feffc6 #000000 #000000 0 1;
#X obj 139 117 tgl 19 0 empty empty empty 0 -10 0 12 #fcff88 #000000 #000000 0 1;
#X obj 164 117 tgl 19 0 empty empty empty 0 -10 0 12 #faf48d #000000 #000000 0 1;
#X obj 190 117 tgl 19 0 empty empty empty 0 -10 0 12 #f1ed41 #000000 #000000 0 1;
#X obj 221 117 tgl 19 0 empty empty empty 0 -10 0 12 #fffda4 #000000 #000000 0 1;
#X obj 247 117 tgl 19 0 empty empty empty 0 -10 0 12 #eff939 #000000 #000000 0 1;
#X obj 272 117 tgl 19 0 empty empty empty 0 -10 0 12 #faf5a9 #000000 #000000 0 1;
#X obj 298 117 tgl 19 0 empty empty empty 0 -10 0 12 #e7fc6d #000000 #000000 0 1;
#X obj 304 268 r turnoff_ns;
#X obj 212 401 outlet;
#X connect 1 0 2 0;
#X connect 1 1 3 0;
#X connect 1 2 4 0;
#X connect 1 3 5 0;
#X connect 1 4 6 0;
#X connect 1 5 7 0;
#X connect 1 6 8 0;
#X connect 1 7 9 0;
#X connect 2 0 10 0;
#X connect 3 0 10 0;
#X connect 4 0 10 0;
#X connect 5 0 10 0;
#X connect 6 0 10 0;
#X connect 7 0 10 0;
#X connect 8 0 10 0;
#X connect 9 0 10 0;
#X connect 10 0 11 0;
#X connect 11 0 24 0;
#X connect 13 0 11 0;
#X connect 14 0 1 0;
#X connect 15 0 2 1;
#X connect 16 0 3 1;
#X connect 17 0 4 1;
#X connect 18 0 5 1;
#X connect 19 0 6 1;
#X connect 20 0 7 1;
#X connect 21 0 8 1;
#X connect 22 0 9 1;
#X connect 23 0 13 0;
#X coords 0 -1 1 1 230 50 1 100 100;
#X restore 1256 708 pd stars_a;
#X obj 1255 326 s noteB;
#N canvas 665 164 645 499 stars 0;
#X text 243 31 number in sequence (1-8);
#X obj 148 54 sel 0 1 2 3 4 5 6 7;
#X obj 51 180 f;
#X obj 92 180 f;
#X obj 133 180 f;
#X obj 174 180 f;
#X obj 228 180 f;
#X obj 269 180 f;
#X obj 312 180 f;
#X obj 353 180 f;
#X obj 206 268 f;
#X floatatom 262 324 5 0 0 0 - - - 0;
#X text 304 311 volume control;
#X msg 304 290 0;
#X obj 148 32 r trigger_ns;
#X obj 113 117 tgl 19 0 empty empty empty 0 -10 0 12 #feffc6 #000000 #000000 0 1;
#X obj 139 117 tgl 19 0 empty empty empty 0 -10 0 12 #fcff88 #000000 #000000 0 1;
#X obj 164 117 tgl 19 0 empty empty empty 0 -10 0 12 #faf48d #000000 #000000 0 1;
#X obj 190 117 tgl 19 0 empty empty empty 0 -10 0 12 #f1ed41 #000000 #000000 0 1;
#X obj 221 117 tgl 19 0 empty empty empty 0 -10 0 12 #fffda4 #000000 #000000 0 1;
#X obj 247 117 tgl 19 0 empty empty empty 0 -10 0 12 #eff939 #000000 #000000 0 1;
#X obj 272 117 tgl 19 0 empty empty empty 0 -10 0 12 #faf5a9 #000000 #000000 0 1;
#X obj 298 117 tgl 19 0 empty empty empty 0 -10 0 12 #e7fc6d #000000 #000000 0 1;
#X obj 304 268 r turnoff_ns;
#X obj 212 401 outlet;
#X connect 1 0 2 0;
#X connect 1 1 3 0;
#X connect 1 2 4 0;
#X connect 1 3 5 0;
#X connect 1 4 6 0;
#X connect 1 5 7 0;
#X connect 1 6 8 0;
#X connect 1 7 9 0;
#X connect 2 0 10 0;
#X connect 3 0 10 0;
#X connect 4 0 10 0;
#X connect 5 0 10 0;
#X connect 6 0 10 0;
#X connect 7 0 10 0;
#X connect 8 0 10 0;
#X connect 9 0 10 0;
#X connect 10 0 11 0;
#X connect 11 0 24 0;
#X connect 13 0 11 0;
#X connect 14 0 1 0;
#X connect 15 0 2 1;
#X connect 16 0 3 1;
#X connect 17 0 4 1;
#X connect 18 0 5 1;
#X connect 19 0 6 1;
#X connect 20 0 7 1;
#X connect 21 0 8 1;
#X connect 22 0 9 1;
#X connect 23 0 13 0;
#X coords 0 -1 1 1 230 50 1 100 100;
#X restore 1255 269 pd stars;
#N canvas 665 164 645 499 stars 0;
#X text 243 31 number in sequence (1-8);
#X obj 148 54 sel 0 1 2 3 4 5 6 7;
#X obj 51 180 f;
#X obj 92 180 f;
#X obj 133 180 f;
#X obj 174 180 f;
#X obj 228 180 f;
#X obj 269 180 f;
#X obj 312 180 f;
#X obj 353 180 f;
#X obj 206 268 f;
#X floatatom 262 324 5 0 0 0 - - - 0;
#X text 304 311 volume control;
#X msg 304 290 0;
#X obj 148 32 r trigger_ns;
#X obj 113 117 tgl 19 0 empty empty empty 0 -10 0 12 #feffc6 #000000 #000000 0 1;
#X obj 139 117 tgl 19 0 empty empty empty 0 -10 0 12 #fcff88 #000000 #000000 0 1;
#X obj 164 117 tgl 19 0 empty empty empty 0 -10 0 12 #faf48d #000000 #000000 0 1;
#X obj 190 117 tgl 19 0 empty empty empty 0 -10 0 12 #f1ed41 #000000 #000000 0 1;
#X obj 221 117 tgl 19 0 empty empty empty 0 -10 0 12 #fffda4 #000000 #000000 0 1;
#X obj 247 117 tgl 19 0 empty empty empty 0 -10 0 12 #eff939 #000000 #000000 0 1;
#X obj 272 117 tgl 19 0 empty empty empty 0 -10 0 12 #faf5a9 #000000 #000000 0 1;
#X obj 298 117 tgl 19 0 empty empty empty 0 -10 0 12 #e7fc6d #000000 #000000 0 1;
#X obj 304 268 r turnoff_ns;
#X obj 212 401 outlet;
#X connect 1 0 2 0;
#X connect 1 1 3 0;
#X connect 1 2 4 0;
#X connect 1 3 5 0;
#X connect 1 4 6 0;
#X connect 1 5 7 0;
#X connect 1 6 8 0;
#X connect 1 7 9 0;
#X connect 2 0 10 0;
#X connect 3 0 10 0;
#X connect 4 0 10 0;
#X connect 5 0 10 0;
#X connect 6 0 10 0;
#X connect 7 0 10 0;
#X connect 8 0 10 0;
#X connect 9 0 10 0;
#X connect 10 0 11 0;
#X connect 11 0 24 0;
#X connect 13 0 11 0;
#X connect 14 0 1 0;
#X connect 15 0 2 1;
#X connect 16 0 3 1;
#X connect 17 0 4 1;
#X connect 18 0 5 1;
#X connect 19 0 6 1;
#X connect 20 0 7 1;
#X connect 21 0 8 1;
#X connect 22 0 9 1;
#X connect 23 0 13 0;
#X coords 0 -1 1 1 230 50 1 100 100;
#X restore 1255 181 pd stars;
#N canvas 665 164 645 499 stars 0;
#X text 243 31 number in sequence (1-8);
#X obj 148 54 sel 0 1 2 3 4 5 6 7;
#X obj 51 180 f;
#X obj 92 180 f;
#X obj 133 180 f;
#X obj 174 180 f;
#X obj 228 180 f;
#X obj 269 180 f;
#X obj 312 180 f;
#X obj 353 180 f;
#X obj 206 268 f;
#X floatatom 262 324 5 0 0 0 - - - 0;
#X text 304 311 volume control;
#X msg 304 290 0;
#X obj 148 32 r trigger_ns;
#X obj 113 117 tgl 19 0 empty empty empty 0 -10 0 12 #feffc6 #000000 #000000 0 1;
#X obj 139 117 tgl 19 0 empty empty empty 0 -10 0 12 #fcff88 #000000 #000000 0 1;
#X obj 164 117 tgl 19 0 empty empty empty 0 -10 0 12 #faf48d #000000 #000000 0 1;
#X obj 190 117 tgl 19 0 empty empty empty 0 -10 0 12 #f1ed41 #000000 #000000 0 1;
#X obj 221 117 tgl 19 0 empty empty empty 0 -10 0 12 #fffda4 #000000 #000000 0 1;
#X obj 247 117 tgl 19 0 empty empty empty 0 -10 0 12 #eff939 #000000 #000000 0 1;
#X obj 272 117 tgl 19 0 empty empty empty 0 -10 0 12 #faf5a9 #000000 #000000 0 1;
#X obj 298 117 tgl 19 0 empty empty empty 0 -10 0 12 #e7fc6d #000000 #000000 0 1;
#X obj 304 268 r turnoff_ns;
#X obj 212 401 outlet;
#X connect 1 0 2 0;
#X connect 1 1 3 0;
#X connect 1 2 4 0;
#X connect 1 3 5 0;
#X connect 1 4 6 0;
#X connect 1 5 7 0;
#X connect 1 6 8 0;
#X connect 1 7 9 0;
#X connect 2 0 10 0;
#X connect 3 0 10 0;
#X connect 4 0 10 0;
#X connect 5 0 10 0;
#X connect 6 0 10 0;
#X connect 7 0 10 0;
#X connect 8 0 10 0;
#X connect 9 0 10 0;
#X connect 10 0 11 0;
#X connect 11 0 24 0;
#X connect 13 0 11 0;
#X connect 14 0 1 0;
#X connect 15 0 2 1;
#X connect 16 0 3 1;
#X connect 17 0 4 1;
#X connect 18 0 5 1;
#X connect 19 0 6 1;
#X connect 20 0 7 1;
#X connect 21 0 8 1;
#X connect 22 0 9 1;
#X connect 23 0 13 0;
#X coords 0 -1 1 1 230 50 1 100 100;
#X restore 1256 356 pd stars;
#N canvas 665 164 645 499 stars 0;
#X text 243 31 number in sequence (1-8);
#X obj 148 54 sel 0 1 2 3 4 5 6 7;
#X obj 51 180 f;
#X obj 92 180 f;
#X obj 133 180 f;
#X obj 174 180 f;
#X obj 228 180 f;
#X obj 269 180 f;
#X obj 312 180 f;
#X obj 353 180 f;
#X obj 206 268 f;
#X floatatom 262 324 5 0 0 0 - - - 0;
#X text 304 311 volume control;
#X msg 304 290 0;
#X obj 148 32 r trigger_ns;
#X obj 113 117 tgl 19 0 empty empty empty 0 -10 0 12 #feffc6 #000000 #000000 0 1;
#X obj 139 117 tgl 19 0 empty empty empty 0 -10 0 12 #fcff88 #000000 #000000 0 1;
#X obj 164 117 tgl 19 0 empty empty empty 0 -10 0 12 #faf48d #000000 #000000 0 1;
#X obj 190 117 tgl 19 0 empty empty empty 0 -10 0 12 #f1ed41 #000000 #000000 0 1;
#X obj 221 117 tgl 19 0 empty empty empty 0 -10 0 12 #fffda4 #000000 #000000 0 1;
#X obj 247 117 tgl 19 0 empty empty empty 0 -10 0 12 #eff939 #000000 #000000 0 1;
#X obj 272 117 tgl 19 0 empty empty empty 0 -10 0 12 #faf5a9 #000000 #000000 0 1;
#X obj 298 117 tgl 19 0 empty empty empty 0 -10 0 12 #e7fc6d #000000 #000000 0 1;
#X obj 304 268 r turnoff_ns;
#X obj 212 401 outlet;
#X connect 1 0 2 0;
#X connect 1 1 3 0;
#X connect 1 2 4 0;
#X connect 1 3 5 0;
#X connect 1 4 6 0;
#X connect 1 5 7 0;
#X connect 1 6 8 0;
#X connect 1 7 9 0;
#X connect 2 0 10 0;
#X connect 3 0 10 0;
#X connect 4 0 10 0;
#X connect 5 0 10 0;
#X connect 6 0 10 0;
#X connect 7 0 10 0;
#X connect 8 0 10 0;
#X connect 9 0 10 0;
#X connect 10 0 11 0;
#X connect 11 0 24 0;
#X connect 13 0 11 0;
#X connect 14 0 1 0;
#X connect 15 0 2 1;
#X connect 16 0 3 1;
#X connect 17 0 4 1;
#X connect 18 0 5 1;
#X connect 19 0 6 1;
#X connect 20 0 7 1;
#X connect 21 0 8 1;
#X connect 22 0 9 1;
#X connect 23 0 13 0;
#X coords 0 -1 1 1 230 50 1 100 100;
#X restore 1256 444 pd stars;
#X obj 1509 264 r noteB;
#X msg 1510 292 80;
#X obj 1256 413 s noteC;
#X obj 1510 355 r noteC;
#X msg 1511 379 75;
#X msg 1511 467 76;
#X obj 1256 501 s noteD;
#X obj 1510 443 r noteD;
#X msg 1510 556 82;
#X obj 1255 590 s noteE;
#X obj 1509 532 r noteE;
#X obj 1255 678 s noteF;
#X obj 1509 620 r noteF;
#X obj 1256 765 s noteG;
#X msg 1510 644 84;
#X msg 1511 731 86;
#X obj 1510 707 r noteG;
#N canvas 747 205 627 862 stars 0;
#X obj 196 632 dac~;
#X obj 201 584 *~ 1;
#X obj 233 147 sel 1;
#N canvas 1999 407 1344 966 starnoise_delay 0;
#X obj 269 71 inlet;
#X text 269 44 recieve signal inlet;
#X obj 81 74 inlet;
#X text 75 47 recieve note inlet;
#X obj 79 180 osc~;
#X obj 80 97 mtof;
#X obj 269 119 bng 19 250 50 0 empty empty empty 0 -10 0 12 #fcfcfc #000000 #000000;
#X obj 76 269 *~;
#X obj 269 172 vline~;
#X msg 269 143 1 \, 0 100;
#X text 343 142 decay;
#X obj 78 485 freeverb~;
#X msg 271 387 wet \$1;
#X msg 325 387 dry \$1;
#X obj 272 330 hsl 128 15 0 1 0 0 empty empty empty -2 -8 0 10 #c6feff #000000 #000000 0 1;
#N canvas 1 80 450 300 inv 0;
#X obj 154 69 inlet;
#X obj 154 179 outlet;
#X msg 154 124 1;
#X obj 154 97 t b f;
#X obj 154 151 -;
#X connect 0 0 3 0;
#X connect 2 0 4 0;
#X connect 3 0 2 0;
#X connect 3 1 4 1;
#X connect 4 0 1 0;
#X restore 325 360 pd inv;
#X floatatom 383 385 5 0 0 0 - - - 0;
#X text 258 312 dry;
#X text 394 312 wet, f 4;
#X floatatom 283 361 5 0 0 0 - - - 0;
#X text 313 310 Reverb;
#X obj 269 264 loadbang;
#X obj 77 296 *~ 0.2;
#X text 432 286 reverb;
#X obj 115 180 osc~;
#X obj 151 180 osc~;
#X obj 114 147 * 1.01;
#X obj 166 147 * 0.97;
#X obj 269 535 r starVolume;
#X obj 85 569 *~;
#X msg 269 288 0.267;
#X obj 146 631 outlet~;
#X connect 0 0 6 0;
#X connect 2 0 5 0;
#X connect 4 0 7 0;
#X connect 5 0 4 0;
#X connect 5 0 26 0;
#X connect 5 0 27 0;
#X connect 6 0 9 0;
#X connect 7 0 22 0;
#X connect 8 0 7 1;
#X connect 9 0 8 0;
#X connect 11 0 29 0;
#X connect 11 1 29 0;
#X connect 12 0 11 0;
#X connect 13 0 11 0;
#X connect 14 0 12 0;
#X connect 14 0 15 0;
#X connect 14 0 19 0;
#X connect 15 0 13 0;
#X connect 15 0 16 0;
#X connect 21 0 30 0;
#X connect 22 0 11 0;
#X connect 24 0 7 0;
#X connect 25 0 7 0;
#X connect 26 0 24 0;
#X connect 27 0 25 0;
#X connect 28 0 29 1;
#X connect 29 0 31 0;
#X connect 30 0 14 0;
#X restore 361 405 pd starnoise_delay;
#X obj 269 175 bng 19 250 50 0 empty empty empty 0 -10 0 12 #fcfcfc #000000 #000000;
#N canvas 1999 407 1344 966 starnoise_delay 0;
#X obj 269 71 inlet;
#X text 269 44 recieve signal inlet;
#X obj 81 74 inlet;
#X text 75 47 recieve note inlet;
#X obj 79 180 osc~;
#X obj 80 97 mtof;
#X obj 269 119 bng 19 250 50 0 empty empty empty 0 -10 0 12 #fcfcfc #000000 #000000;
#X obj 76 269 *~;
#X obj 269 172 vline~;
#X msg 269 143 1 \, 0 100;
#X text 343 142 decay;
#X obj 78 485 freeverb~;
#X msg 271 387 wet \$1;
#X msg 325 387 dry \$1;
#X obj 272 330 hsl 128 15 0 1 0 0 empty empty empty -2 -8 0 10 #c6feff #000000 #000000 0 1;
#N canvas 1 80 450 300 inv 0;
#X obj 154 69 inlet;
#X obj 154 179 outlet;
#X msg 154 124 1;
#X obj 154 97 t b f;
#X obj 154 151 -;
#X connect 0 0 3 0;
#X connect 2 0 4 0;
#X connect 3 0 2 0;
#X connect 3 1 4 1;
#X connect 4 0 1 0;
#X restore 325 360 pd inv;
#X floatatom 383 385 5 0 0 0 - - - 0;
#X text 258 312 dry;
#X text 394 312 wet, f 4;
#X floatatom 283 361 5 0 0 0 - - - 0;
#X text 313 310 Reverb;
#X obj 269 264 loadbang;
#X obj 77 296 *~ 0.2;
#X text 432 286 reverb;
#X obj 115 180 osc~;
#X obj 151 180 osc~;
#X obj 114 147 * 1.01;
#X obj 166 147 * 0.97;
#X obj 269 535 r starVolume;
#X obj 85 569 *~;
#X msg 269 288 0.267;
#X obj 146 631 outlet~;
#X connect 0 0 6 0;
#X connect 2 0 5 0;
#X connect 4 0 7 0;
#X connect 5 0 4 0;
#X connect 5 0 26 0;
#X connect 5 0 27 0;
#X connect 6 0 9 0;
#X connect 7 0 22 0;
#X connect 8 0 7 1;
#X connect 9 0 8 0;
#X connect 11 0 29 0;
#X connect 11 1 29 0;
#X connect 12 0 11 0;
#X connect 13 0 11 0;
#X connect 14 0 12 0;
#X connect 14 0 15 0;
#X connect 14 0 19 0;
#X connect 15 0 13 0;
#X connect 15 0 16 0;
#X connect 21 0 30 0;
#X connect 22 0 11 0;
#X connect 24 0 7 0;
#X connect 25 0 7 0;
#X connect 26 0 24 0;
#X connect 27 0 25 0;
#X connect 28 0 29 1;
#X connect 29 0 31 0;
#X connect 30 0 14 0;
#X restore 202 431 pd starnoise_delay;
#X obj 204 63 inlet;
#N canvas 1999 407 1344 966 starnoise_delay 0;
#X obj 269 71 inlet;
#X text 269 44 recieve signal inlet;
#X obj 81 74 inlet;
#X text 75 47 recieve note inlet;
#X obj 79 180 osc~;
#X obj 80 97 mtof;
#X obj 269 119 bng 19 250 50 0 empty empty empty 0 -10 0 12 #fcfcfc #000000 #000000;
#X obj 76 269 *~;
#X obj 269 172 vline~;
#X msg 269 143 1 \, 0 100;
#X text 343 142 decay;
#X obj 78 485 freeverb~;
#X msg 271 387 wet \$1;
#X msg 325 387 dry \$1;
#X obj 272 330 hsl 128 15 0 1 0 0 empty empty empty -2 -8 0 10 #c6feff #000000 #000000 0 1;
#N canvas 1 80 450 300 inv 0;
#X obj 154 69 inlet;
#X obj 154 179 outlet;
#X msg 154 124 1;
#X obj 154 97 t b f;
#X obj 154 151 -;
#X connect 0 0 3 0;
#X connect 2 0 4 0;
#X connect 3 0 2 0;
#X connect 3 1 4 1;
#X connect 4 0 1 0;
#X restore 325 360 pd inv;
#X floatatom 383 385 5 0 0 0 - - - 0;
#X text 258 312 dry;
#X text 394 312 wet, f 4;
#X floatatom 283 361 5 0 0 0 - - - 0;
#X text 313 310 Reverb;
#X obj 269 264 loadbang;
#X obj 77 296 *~ 0.2;
#X text 432 286 reverb;
#X obj 115 180 osc~;
#X obj 151 180 osc~;
#X obj 114 147 * 1.01;
#X obj 166 147 * 0.97;
#X obj 269 535 r starVolume;
#X obj 85 569 *~;
#X msg 269 288 0.267;
#X obj 146 631 outlet~;
#X connect 0 0 6 0;
#X connect 2 0 5 0;
#X connect 4 0 7 0;
#X connect 5 0 4 0;
#X connect 5 0 26 0;
#X connect 5 0 27 0;
#X connect 6 0 9 0;
#X connect 7 0 22 0;
#X connect 8 0 7 1;
#X connect 9 0 8 0;
#X connect 11 0 29 0;
#X connect 11 1 29 0;
#X connect 12 0 11 0;
#X connect 13 0 11 0;
#X connect 14 0 12 0;
#X connect 14 0 15 0;
#X connect 14 0 19 0;
#X connect 15 0 13 0;
#X connect 15 0 16 0;
#X connect 21 0 30 0;
#X connect 22 0 11 0;
#X connect 24 0 7 0;
#X connect 25 0 7 0;
#X connect 26 0 24 0;
#X connect 27 0 25 0;
#X connect 28 0 29 1;
#X connect 29 0 31 0;
#X connect 30 0 14 0;
#X restore 60 434 pd starnoise_delay;
#X obj 125 403 delay 10;
#X obj 61 458 *~ 0.9;
#X obj 362 429 *~ 0.2;
#X obj 267 400 delay 200;
#X obj 426 374 delay 450;
#X obj 203 455 *~ 0.4;
#X obj 60 105 inlet;
#X connect 1 0 0 0;
#X connect 1 0 0 1;
#X connect 2 0 4 0;
#X connect 2 0 8 0;
#X connect 2 0 11 0;
#X connect 2 0 12 0;
#X connect 3 0 10 0;
#X connect 5 0 13 0;
#X connect 6 0 2 0;
#X connect 7 0 9 0;
#X connect 8 0 7 1;
#X connect 9 0 1 0;
#X connect 10 0 1 0;
#X connect 11 0 5 1;
#X connect 12 0 3 1;
#X connect 13 0 1 0;
#X connect 14 0 7 0;
#X connect 14 0 5 0;
#X connect 14 0 3 0;
#X restore 1509 228 pd stars;
#N canvas 747 205 627 862 stars 0;
#X obj 196 632 dac~;
#X obj 201 584 *~ 1;
#X obj 233 147 sel 1;
#N canvas 1999 407 1344 966 starnoise_delay 0;
#X obj 269 71 inlet;
#X text 269 44 recieve signal inlet;
#X obj 81 74 inlet;
#X text 75 47 recieve note inlet;
#X obj 79 180 osc~;
#X obj 80 97 mtof;
#X obj 269 119 bng 19 250 50 0 empty empty empty 0 -10 0 12 #fcfcfc #000000 #000000;
#X obj 76 269 *~;
#X obj 269 172 vline~;
#X msg 269 143 1 \, 0 100;
#X text 343 142 decay;
#X obj 78 485 freeverb~;
#X msg 271 387 wet \$1;
#X msg 325 387 dry \$1;
#X obj 272 330 hsl 128 15 0 1 0 0 empty empty empty -2 -8 0 10 #c6feff #000000 #000000 0 1;
#N canvas 1 80 450 300 inv 0;
#X obj 154 69 inlet;
#X obj 154 179 outlet;
#X msg 154 124 1;
#X obj 154 97 t b f;
#X obj 154 151 -;
#X connect 0 0 3 0;
#X connect 2 0 4 0;
#X connect 3 0 2 0;
#X connect 3 1 4 1;
#X connect 4 0 1 0;
#X restore 325 360 pd inv;
#X floatatom 383 385 5 0 0 0 - - - 0;
#X text 258 312 dry;
#X text 394 312 wet, f 4;
#X floatatom 283 361 5 0 0 0 - - - 0;
#X text 313 310 Reverb;
#X obj 269 264 loadbang;
#X obj 77 296 *~ 0.2;
#X text 432 286 reverb;
#X obj 115 180 osc~;
#X obj 151 180 osc~;
#X obj 114 147 * 1.01;
#X obj 166 147 * 0.97;
#X obj 269 535 r starVolume;
#X obj 85 569 *~;
#X msg 269 288 0.267;
#X obj 146 631 outlet~;
#X connect 0 0 6 0;
#X connect 2 0 5 0;
#X connect 4 0 7 0;
#X connect 5 0 4 0;
#X connect 5 0 26 0;
#X connect 5 0 27 0;
#X connect 6 0 9 0;
#X connect 7 0 22 0;
#X connect 8 0 7 1;
#X connect 9 0 8 0;
#X connect 11 0 29 0;
#X connect 11 1 29 0;
#X connect 12 0 11 0;
#X connect 13 0 11 0;
#X connect 14 0 12 0;
#X connect 14 0 15 0;
#X connect 14 0 19 0;
#X connect 15 0 13 0;
#X connect 15 0 16 0;
#X connect 21 0 30 0;
#X connect 22 0 11 0;
#X connect 24 0 7 0;
#X connect 25 0 7 0;
#X connect 26 0 24 0;
#X connect 27 0 25 0;
#X connect 28 0 29 1;
#X connect 29 0 31 0;
#X connect 30 0 14 0;
#X restore 361 405 pd starnoise_delay;
#X obj 269 175 bng 19 250 50 0 empty empty empty 0 -10 0 12 #fcfcfc #000000 #000000;
#N canvas 1999 407 1344 966 starnoise_delay 0;
#X obj 269 71 inlet;
#X text 269 44 recieve signal inlet;
#X obj 81 74 inlet;
#X text 75 47 recieve note inlet;
#X obj 79 180 osc~;
#X obj 80 97 mtof;
#X obj 269 119 bng 19 250 50 0 empty empty empty 0 -10 0 12 #fcfcfc #000000 #000000;
#X obj 76 269 *~;
#X obj 269 172 vline~;
#X msg 269 143 1 \, 0 100;
#X text 343 142 decay;
#X obj 78 485 freeverb~;
#X msg 271 387 wet \$1;
#X msg 325 387 dry \$1;
#X obj 272 330 hsl 128 15 0 1 0 0 empty empty empty -2 -8 0 10 #c6feff #000000 #000000 0 1;
#N canvas 1 80 450 300 inv 0;
#X obj 154 69 inlet;
#X obj 154 179 outlet;
#X msg 154 124 1;
#X obj 154 97 t b f;
#X obj 154 151 -;
#X connect 0 0 3 0;
#X connect 2 0 4 0;
#X connect 3 0 2 0;
#X connect 3 1 4 1;
#X connect 4 0 1 0;
#X restore 325 360 pd inv;
#X floatatom 383 385 5 0 0 0 - - - 0;
#X text 258 312 dry;
#X text 394 312 wet, f 4;
#X floatatom 283 361 5 0 0 0 - - - 0;
#X text 313 310 Reverb;
#X obj 269 264 loadbang;
#X obj 77 296 *~ 0.2;
#X text 432 286 reverb;
#X obj 115 180 osc~;
#X obj 151 180 osc~;
#X obj 114 147 * 1.01;
#X obj 166 147 * 0.97;
#X obj 269 535 r starVolume;
#X obj 85 569 *~;
#X msg 269 288 0.267;
#X obj 146 631 outlet~;
#X connect 0 0 6 0;
#X connect 2 0 5 0;
#X connect 4 0 7 0;
#X connect 5 0 4 0;
#X connect 5 0 26 0;
#X connect 5 0 27 0;
#X connect 6 0 9 0;
#X connect 7 0 22 0;
#X connect 8 0 7 1;
#X connect 9 0 8 0;
#X connect 11 0 29 0;
#X connect 11 1 29 0;
#X connect 12 0 11 0;
#X connect 13 0 11 0;
#X connect 14 0 12 0;
#X connect 14 0 15 0;
#X connect 14 0 19 0;
#X connect 15 0 13 0;
#X connect 15 0 16 0;
#X connect 21 0 30 0;
#X connect 22 0 11 0;
#X connect 24 0 7 0;
#X connect 25 0 7 0;
#X connect 26 0 24 0;
#X connect 27 0 25 0;
#X connect 28 0 29 1;
#X connect 29 0 31 0;
#X connect 30 0 14 0;
#X restore 202 431 pd starnoise_delay;
#X obj 204 63 inlet;
#N canvas 1999 407 1344 966 starnoise_delay 0;
#X obj 269 71 inlet;
#X text 269 44 recieve signal inlet;
#X obj 81 74 inlet;
#X text 75 47 recieve note inlet;
#X obj 79 180 osc~;
#X obj 80 97 mtof;
#X obj 269 119 bng 19 250 50 0 empty empty empty 0 -10 0 12 #fcfcfc #000000 #000000;
#X obj 76 269 *~;
#X obj 269 172 vline~;
#X msg 269 143 1 \, 0 100;
#X text 343 142 decay;
#X obj 78 485 freeverb~;
#X msg 271 387 wet \$1;
#X msg 325 387 dry \$1;
#X obj 272 330 hsl 128 15 0 1 0 0 empty empty empty -2 -8 0 10 #c6feff #000000 #000000 0 1;
#N canvas 1 80 450 300 inv 0;
#X obj 154 69 inlet;
#X obj 154 179 outlet;
#X msg 154 124 1;
#X obj 154 97 t b f;
#X obj 154 151 -;
#X connect 0 0 3 0;
#X connect 2 0 4 0;
#X connect 3 0 2 0;
#X connect 3 1 4 1;
#X connect 4 0 1 0;
#X restore 325 360 pd inv;
#X floatatom 383 385 5 0 0 0 - - - 0;
#X text 258 312 dry;
#X text 394 312 wet, f 4;
#X floatatom 283 361 5 0 0 0 - - - 0;
#X text 313 310 Reverb;
#X obj 269 264 loadbang;
#X obj 77 296 *~ 0.2;
#X text 432 286 reverb;
#X obj 115 180 osc~;
#X obj 151 180 osc~;
#X obj 114 147 * 1.01;
#X obj 166 147 * 0.97;
#X obj 269 535 r starVolume;
#X obj 85 569 *~;
#X msg 269 288 0.267;
#X obj 146 631 outlet~;
#X connect 0 0 6 0;
#X connect 2 0 5 0;
#X connect 4 0 7 0;
#X connect 5 0 4 0;
#X connect 5 0 26 0;
#X connect 5 0 27 0;
#X connect 6 0 9 0;
#X connect 7 0 22 0;
#X connect 8 0 7 1;
#X connect 9 0 8 0;
#X connect 11 0 29 0;
#X connect 11 1 29 0;
#X connect 12 0 11 0;
#X connect 13 0 11 0;
#X connect 14 0 12 0;
#X connect 14 0 15 0;
#X connect 14 0 19 0;
#X connect 15 0 13 0;
#X connect 15 0 16 0;
#X connect 21 0 30 0;
#X connect 22 0 11 0;
#X connect 24 0 7 0;
#X connect 25 0 7 0;
#X connect 26 0 24 0;
#X connect 27 0 25 0;
#X connect 28 0 29 1;
#X connect 29 0 31 0;
#X connect 30 0 14 0;
#X restore 60 434 pd starnoise_delay;
#X obj 125 403 delay 10;
#X obj 61 458 *~ 0.9;
#X obj 362 429 *~ 0.2;
#X obj 267 400 delay 200;
#X obj 426 374 delay 450;
#X obj 203 455 *~ 0.4;
#X obj 60 105 inlet;
#X connect 1 0 0 0;
#X connect 1 0 0 1;
#X connect 2 0 4 0;
#X connect 2 0 8 0;
#X connect 2 0 11 0;
#X connect 2 0 12 0;
#X connect 3 0 10 0;
#X connect 5 0 13 0;
#X connect 6 0 2 0;
#X connect 7 0 9 0;
#X connect 8 0 7 1;
#X connect 9 0 1 0;
#X connect 10 0 1 0;
#X connect 11 0 5 1;
#X connect 12 0 3 1;
#X connect 13 0 1 0;
#X connect 14 0 7 0;
#X connect 14 0 5 0;
#X connect 14 0 3 0;
#X restore 1509 319 pd stars;
#N canvas 747 205 627 862 stars 0;
#X obj 196 632 dac~;
#X obj 201 584 *~ 1;
#X obj 233 147 sel 1;
#N canvas 1999 407 1344 966 starnoise_delay 0;
#X obj 269 71 inlet;
#X text 269 44 recieve signal inlet;
#X obj 81 74 inlet;
#X text 75 47 recieve note inlet;
#X obj 79 180 osc~;
#X obj 80 97 mtof;
#X obj 269 119 bng 19 250 50 0 empty empty empty 0 -10 0 12 #fcfcfc #000000 #000000;
#X obj 76 269 *~;
#X obj 269 172 vline~;
#X msg 269 143 1 \, 0 100;
#X text 343 142 decay;
#X obj 78 485 freeverb~;
#X msg 271 387 wet \$1;
#X msg 325 387 dry \$1;
#X obj 272 330 hsl 128 15 0 1 0 0 empty empty empty -2 -8 0 10 #c6feff #000000 #000000 0 1;
#N canvas 1 80 450 300 inv 0;
#X obj 154 69 inlet;
#X obj 154 179 outlet;
#X msg 154 124 1;
#X obj 154 97 t b f;
#X obj 154 151 -;
#X connect 0 0 3 0;
#X connect 2 0 4 0;
#X connect 3 0 2 0;
#X connect 3 1 4 1;
#X connect 4 0 1 0;
#X restore 325 360 pd inv;
#X floatatom 383 385 5 0 0 0 - - - 0;
#X text 258 312 dry;
#X text 394 312 wet, f 4;
#X floatatom 283 361 5 0 0 0 - - - 0;
#X text 313 310 Reverb;
#X obj 269 264 loadbang;
#X obj 77 296 *~ 0.2;
#X text 432 286 reverb;
#X obj 115 180 osc~;
#X obj 151 180 osc~;
#X obj 114 147 * 1.01;
#X obj 166 147 * 0.97;
#X obj 269 535 r starVolume;
#X obj 85 569 *~;
#X msg 269 288 0.267;
#X obj 146 631 outlet~;
#X connect 0 0 6 0;
#X connect 2 0 5 0;
#X connect 4 0 7 0;
#X connect 5 0 4 0;
#X connect 5 0 26 0;
#X connect 5 0 27 0;
#X connect 6 0 9 0;
#X connect 7 0 22 0;
#X connect 8 0 7 1;
#X connect 9 0 8 0;
#X connect 11 0 29 0;
#X connect 11 1 29 0;
#X connect 12 0 11 0;
#X connect 13 0 11 0;
#X connect 14 0 12 0;
#X connect 14 0 15 0;
#X connect 14 0 19 0;
#X connect 15 0 13 0;
#X connect 15 0 16 0;
#X connect 21 0 30 0;
#X connect 22 0 11 0;
#X connect 24 0 7 0;
#X connect 25 0 7 0;
#X connect 26 0 24 0;
#X connect 27 0 25 0;
#X connect 28 0 29 1;
#X connect 29 0 31 0;
#X connect 30 0 14 0;
#X restore 361 405 pd starnoise_delay;
#X obj 269 175 bng 19 250 50 0 empty empty empty 0 -10 0 12 #fcfcfc #000000 #000000;
#N canvas 1999 407 1344 966 starnoise_delay 0;
#X obj 269 71 inlet;
#X text 269 44 recieve signal inlet;
#X obj 81 74 inlet;
#X text 75 47 recieve note inlet;
#X obj 79 180 osc~;
#X obj 80 97 mtof;
#X obj 269 119 bng 19 250 50 0 empty empty empty 0 -10 0 12 #fcfcfc #000000 #000000;
#X obj 76 269 *~;
#X obj 269 172 vline~;
#X msg 269 143 1 \, 0 100;
#X text 343 142 decay;
#X obj 78 485 freeverb~;
#X msg 271 387 wet \$1;
#X msg 325 387 dry \$1;
#X obj 272 330 hsl 128 15 0 1 0 0 empty empty empty -2 -8 0 10 #c6feff #000000 #000000 0 1;
#N canvas 1 80 450 300 inv 0;
#X obj 154 69 inlet;
#X obj 154 179 outlet;
#X msg 154 124 1;
#X obj 154 97 t b f;
#X obj 154 151 -;
#X connect 0 0 3 0;
#X connect 2 0 4 0;
#X connect 3 0 2 0;
#X connect 3 1 4 1;
#X connect 4 0 1 0;
#X restore 325 360 pd inv;
#X floatatom 383 385 5 0 0 0 - - - 0;
#X text 258 312 dry;
#X text 394 312 wet, f 4;
#X floatatom 283 361 5 0 0 0 - - - 0;
#X text 313 310 Reverb;
#X obj 269 264 loadbang;
#X obj 77 296 *~ 0.2;
#X text 432 286 reverb;
#X obj 115 180 osc~;
#X obj 151 180 osc~;
#X obj 114 147 * 1.01;
#X obj 166 147 * 0.97;
#X obj 269 535 r starVolume;
#X obj 85 569 *~;
#X msg 269 288 0.267;
#X obj 146 631 outlet~;
#X connect 0 0 6 0;
#X connect 2 0 5 0;
#X connect 4 0 7 0;
#X connect 5 0 4 0;
#X connect 5 0 26 0;
#X connect 5 0 27 0;
#X connect 6 0 9 0;
#X connect 7 0 22 0;
#X connect 8 0 7 1;
#X connect 9 0 8 0;
#X connect 11 0 29 0;
#X connect 11 1 29 0;
#X connect 12 0 11 0;
#X connect 13 0 11 0;
#X connect 14 0 12 0;
#X connect 14 0 15 0;
#X connect 14 0 19 0;
#X connect 15 0 13 0;
#X connect 15 0 16 0;
#X connect 21 0 30 0;
#X connect 22 0 11 0;
#X connect 24 0 7 0;
#X connect 25 0 7 0;
#X connect 26 0 24 0;
#X connect 27 0 25 0;
#X connect 28 0 29 1;
#X connect 29 0 31 0;
#X connect 30 0 14 0;
#X restore 202 431 pd starnoise_delay;
#X obj 204 63 inlet;
#N canvas 1999 407 1344 966 starnoise_delay 0;
#X obj 269 71 inlet;
#X text 269 44 recieve signal inlet;
#X obj 81 74 inlet;
#X text 75 47 recieve note inlet;
#X obj 79 180 osc~;
#X obj 80 97 mtof;
#X obj 269 119 bng 19 250 50 0 empty empty empty 0 -10 0 12 #fcfcfc #000000 #000000;
#X obj 76 269 *~;
#X obj 269 172 vline~;
#X msg 269 143 1 \, 0 100;
#X text 343 142 decay;
#X obj 78 485 freeverb~;
#X msg 271 387 wet \$1;
#X msg 325 387 dry \$1;
#X obj 272 330 hsl 128 15 0 1 0 0 empty empty empty -2 -8 0 10 #c6feff #000000 #000000 0 1;
#N canvas 1 80 450 300 inv 0;
#X obj 154 69 inlet;
#X obj 154 179 outlet;
#X msg 154 124 1;
#X obj 154 97 t b f;
#X obj 154 151 -;
#X connect 0 0 3 0;
#X connect 2 0 4 0;
#X connect 3 0 2 0;
#X connect 3 1 4 1;
#X connect 4 0 1 0;
#X restore 325 360 pd inv;
#X floatatom 383 385 5 0 0 0 - - - 0;
#X text 258 312 dry;
#X text 394 312 wet, f 4;
#X floatatom 283 361 5 0 0 0 - - - 0;
#X text 313 310 Reverb;
#X obj 269 264 loadbang;
#X obj 77 296 *~ 0.2;
#X text 432 286 reverb;
#X obj 115 180 osc~;
#X obj 151 180 osc~;
#X obj 114 147 * 1.01;
#X obj 166 147 * 0.97;
#X obj 269 535 r starVolume;
#X obj 85 569 *~;
#X msg 269 288 0.267;
#X obj 146 631 outlet~;
#X connect 0 0 6 0;
#X connect 2 0 5 0;
#X connect 4 0 7 0;
#X connect 5 0 4 0;
#X connect 5 0 26 0;
#X connect 5 0 27 0;
#X connect 6 0 9 0;
#X connect 7 0 22 0;
#X connect 8 0 7 1;
#X connect 9 0 8 0;
#X connect 11 0 29 0;
#X connect 11 1 29 0;
#X connect 12 0 11 0;
#X connect 13 0 11 0;
#X connect 14 0 12 0;
#X connect 14 0 15 0;
#X connect 14 0 19 0;
#X connect 15 0 13 0;
#X connect 15 0 16 0;
#X connect 21 0 30 0;
#X connect 22 0 11 0;
#X connect 24 0 7 0;
#X connect 25 0 7 0;
#X connect 26 0 24 0;
#X connect 27 0 25 0;
#X connect 28 0 29 1;
#X connect 29 0 31 0;
#X connect 30 0 14 0;
#X restore 60 434 pd starnoise_delay;
#X obj 125 403 delay 10;
#X obj 61 458 *~ 0.9;
#X obj 362 429 *~ 0.2;
#X obj 267 400 delay 200;
#X obj 426 374 delay 450;
#X obj 203 455 *~ 0.4;
#X obj 60 105 inlet;
#X connect 1 0 0 0;
#X connect 1 0 0 1;
#X connect 2 0 4 0;
#X connect 2 0 8 0;
#X connect 2 0 11 0;
#X connect 2 0 12 0;
#X connect 3 0 10 0;
#X connect 5 0 13 0;
#X connect 6 0 2 0;
#X connect 7 0 9 0;
#X connect 8 0 7 1;
#X connect 9 0 1 0;
#X connect 10 0 1 0;
#X connect 11 0 5 1;
#X connect 12 0 3 1;
#X connect 13 0 1 0;
#X connect 14 0 7 0;
#X connect 14 0 5 0;
#X connect 14 0 3 0;
#X restore 1513 404 pd stars;
#N canvas 747 205 627 862 stars 0;
#X obj 196 632 dac~;
#X obj 201 584 *~ 1;
#X obj 233 147 sel 1;
#N canvas 1999 407 1344 966 starnoise_delay 0;
#X obj 269 71 inlet;
#X text 269 44 recieve signal inlet;
#X obj 81 74 inlet;
#X text 75 47 recieve note inlet;
#X obj 79 180 osc~;
#X obj 80 97 mtof;
#X obj 269 119 bng 19 250 50 0 empty empty empty 0 -10 0 12 #fcfcfc #000000 #000000;
#X obj 76 269 *~;
#X obj 269 172 vline~;
#X msg 269 143 1 \, 0 100;
#X text 343 142 decay;
#X obj 78 485 freeverb~;
#X msg 271 387 wet \$1;
#X msg 325 387 dry \$1;
#X obj 272 330 hsl 128 15 0 1 0 0 empty empty empty -2 -8 0 10 #c6feff #000000 #000000 0 1;
#N canvas 1 80 450 300 inv 0;
#X obj 154 69 inlet;
#X obj 154 179 outlet;
#X msg 154 124 1;
#X obj 154 97 t b f;
#X obj 154 151 -;
#X connect 0 0 3 0;
#X connect 2 0 4 0;
#X connect 3 0 2 0;
#X connect 3 1 4 1;
#X connect 4 0 1 0;
#X restore 325 360 pd inv;
#X floatatom 383 385 5 0 0 0 - - - 0;
#X text 258 312 dry;
#X text 394 312 wet, f 4;
#X floatatom 283 361 5 0 0 0 - - - 0;
#X text 313 310 Reverb;
#X obj 269 264 loadbang;
#X obj 77 296 *~ 0.2;
#X text 432 286 reverb;
#X obj 115 180 osc~;
#X obj 151 180 osc~;
#X obj 114 147 * 1.01;
#X obj 166 147 * 0.97;
#X obj 269 535 r starVolume;
#X obj 85 569 *~;
#X msg 269 288 0.267;
#X obj 146 631 outlet~;
#X connect 0 0 6 0;
#X connect 2 0 5 0;
#X connect 4 0 7 0;
#X connect 5 0 4 0;
#X connect 5 0 26 0;
#X connect 5 0 27 0;
#X connect 6 0 9 0;
#X connect 7 0 22 0;
#X connect 8 0 7 1;
#X connect 9 0 8 0;
#X connect 11 0 29 0;
#X connect 11 1 29 0;
#X connect 12 0 11 0;
#X connect 13 0 11 0;
#X connect 14 0 12 0;
#X connect 14 0 15 0;
#X connect 14 0 19 0;
#X connect 15 0 13 0;
#X connect 15 0 16 0;
#X connect 21 0 30 0;
#X connect 22 0 11 0;
#X connect 24 0 7 0;
#X connect 25 0 7 0;
#X connect 26 0 24 0;
#X connect 27 0 25 0;
#X connect 28 0 29 1;
#X connect 29 0 31 0;
#X connect 30 0 14 0;
#X restore 361 405 pd starnoise_delay;
#X obj 269 175 bng 19 250 50 0 empty empty empty 0 -10 0 12 #fcfcfc #000000 #000000;
#N canvas 1999 407 1344 966 starnoise_delay 0;
#X obj 269 71 inlet;
#X text 269 44 recieve signal inlet;
#X obj 81 74 inlet;
#X text 75 47 recieve note inlet;
#X obj 79 180 osc~;
#X obj 80 97 mtof;
#X obj 269 119 bng 19 250 50 0 empty empty empty 0 -10 0 12 #fcfcfc #000000 #000000;
#X obj 76 269 *~;
#X obj 269 172 vline~;
#X msg 269 143 1 \, 0 100;
#X text 343 142 decay;
#X obj 78 485 freeverb~;
#X msg 271 387 wet \$1;
#X msg 325 387 dry \$1;
#X obj 272 330 hsl 128 15 0 1 0 0 empty empty empty -2 -8 0 10 #c6feff #000000 #000000 0 1;
#N canvas 1 80 450 300 inv 0;
#X obj 154 69 inlet;
#X obj 154 179 outlet;
#X msg 154 124 1;
#X obj 154 97 t b f;
#X obj 154 151 -;
#X connect 0 0 3 0;
#X connect 2 0 4 0;
#X connect 3 0 2 0;
#X connect 3 1 4 1;
#X connect 4 0 1 0;
#X restore 325 360 pd inv;
#X floatatom 383 385 5 0 0 0 - - - 0;
#X text 258 312 dry;
#X text 394 312 wet, f 4;
#X floatatom 283 361 5 0 0 0 - - - 0;
#X text 313 310 Reverb;
#X obj 269 264 loadbang;
#X obj 77 296 *~ 0.2;
#X text 432 286 reverb;
#X obj 115 180 osc~;
#X obj 151 180 osc~;
#X obj 114 147 * 1.01;
#X obj 166 147 * 0.97;
#X obj 269 535 r starVolume;
#X obj 85 569 *~;
#X msg 269 288 0.267;
#X obj 146 631 outlet~;
#X connect 0 0 6 0;
#X connect 2 0 5 0;
#X connect 4 0 7 0;
#X connect 5 0 4 0;
#X connect 5 0 26 0;
#X connect 5 0 27 0;
#X connect 6 0 9 0;
#X connect 7 0 22 0;
#X connect 8 0 7 1;
#X connect 9 0 8 0;
#X connect 11 0 29 0;
#X connect 11 1 29 0;
#X connect 12 0 11 0;
#X connect 13 0 11 0;
#X connect 14 0 12 0;
#X connect 14 0 15 0;
#X connect 14 0 19 0;
#X connect 15 0 13 0;
#X connect 15 0 16 0;
#X connect 21 0 30 0;
#X connect 22 0 11 0;
#X connect 24 0 7 0;
#X connect 25 0 7 0;
#X connect 26 0 24 0;
#X connect 27 0 25 0;
#X connect 28 0 29 1;
#X connect 29 0 31 0;
#X connect 30 0 14 0;
#X restore 202 431 pd starnoise_delay;
#X obj 204 63 inlet;
#N canvas 1999 407 1344 966 starnoise_delay 0;
#X obj 269 71 inlet;
#X text 269 44 recieve signal inlet;
#X obj 81 74 inlet;
#X text 75 47 recieve note inlet;
#X obj 79 180 osc~;
#X obj 80 97 mtof;
#X obj 269 119 bng 19 250 50 0 empty empty empty 0 -10 0 12 #fcfcfc #000000 #000000;
#X obj 76 269 *~;
#X obj 269 172 vline~;
#X msg 269 143 1 \, 0 100;
#X text 343 142 decay;
#X obj 78 485 freeverb~;
#X msg 271 387 wet \$1;
#X msg 325 387 dry \$1;
#X obj 272 330 hsl 128 15 0 1 0 0 empty empty empty -2 -8 0 10 #c6feff #000000 #000000 0 1;
#N canvas 1 80 450 300 inv 0;
#X obj 154 69 inlet;
#X obj 154 179 outlet;
#X msg 154 124 1;
#X obj 154 97 t b f;
#X obj 154 151 -;
#X connect 0 0 3 0;
#X connect 2 0 4 0;
#X connect 3 0 2 0;
#X connect 3 1 4 1;
#X connect 4 0 1 0;
#X restore 325 360 pd inv;
#X floatatom 383 385 5 0 0 0 - - - 0;
#X text 258 312 dry;
#X text 394 312 wet, f 4;
#X floatatom 283 361 5 0 0 0 - - - 0;
#X text 313 310 Reverb;
#X obj 269 264 loadbang;
#X obj 77 296 *~ 0.2;
#X text 432 286 reverb;
#X obj 115 180 osc~;
#X obj 151 180 osc~;
#X obj 114 147 * 1.01;
#X obj 166 147 * 0.97;
#X obj 269 535 r starVolume;
#X obj 85 569 *~;
#X msg 269 288 0.267;
#X obj 146 631 outlet~;
#X connect 0 0 6 0;
#X connect 2 0 5 0;
#X connect 4 0 7 0;
#X connect 5 0 4 0;
#X connect 5 0 26 0;
#X connect 5 0 27 0;
#X connect 6 0 9 0;
#X connect 7 0 22 0;
#X connect 8 0 7 1;
#X connect 9 0 8 0;
#X connect 11 0 29 0;
#X connect 11 1 29 0;
#X connect 12 0 11 0;
#X connect 13 0 11 0;
#X connect 14 0 12 0;
#X connect 14 0 15 0;
#X connect 14 0 19 0;
#X connect 15 0 13 0;
#X connect 15 0 16 0;
#X connect 21 0 30 0;
#X connect 22 0 11 0;
#X connect 24 0 7 0;
#X connect 25 0 7 0;
#X connect 26 0 24 0;
#X connect 27 0 25 0;
#X connect 28 0 29 1;
#X connect 29 0 31 0;
#X connect 30 0 14 0;
#X restore 60 434 pd starnoise_delay;
#X obj 125 403 delay 10;
#X obj 61 458 *~ 0.9;
#X obj 362 429 *~ 0.2;
#X obj 267 400 delay 200;
#X obj 426 374 delay 450;
#X obj 203 455 *~ 0.4;
#X obj 60 105 inlet;
#X connect 1 0 0 0;
#X connect 1 0 0 1;
#X connect 2 0 4 0;
#X connect 2 0 8 0;
#X connect 2 0 11 0;
#X connect 2 0 12 0;
#X connect 3 0 10 0;
#X connect 5 0 13 0;
#X connect 6 0 2 0;
#X connect 7 0 9 0;
#X connect 8 0 7 1;
#X connect 9 0 1 0;
#X connect 10 0 1 0;
#X connect 11 0 5 1;
#X connect 12 0 3 1;
#X connect 13 0 1 0;
#X connect 14 0 7 0;
#X connect 14 0 5 0;
#X connect 14 0 3 0;
#X restore 1509 495 pd stars;
#N canvas 747 205 627 862 stars 0;
#X obj 196 632 dac~;
#X obj 201 584 *~ 1;
#X obj 233 147 sel 1;
#N canvas 1999 407 1344 966 starnoise_delay 0;
#X obj 269 71 inlet;
#X text 269 44 recieve signal inlet;
#X obj 81 74 inlet;
#X text 75 47 recieve note inlet;
#X obj 79 180 osc~;
#X obj 80 97 mtof;
#X obj 269 119 bng 19 250 50 0 empty empty empty 0 -10 0 12 #fcfcfc #000000 #000000;
#X obj 76 269 *~;
#X obj 269 172 vline~;
#X msg 269 143 1 \, 0 100;
#X text 343 142 decay;
#X obj 78 485 freeverb~;
#X msg 271 387 wet \$1;
#X msg 325 387 dry \$1;
#X obj 272 330 hsl 128 15 0 1 0 0 empty empty empty -2 -8 0 10 #c6feff #000000 #000000 0 1;
#N canvas 1 80 450 300 inv 0;
#X obj 154 69 inlet;
#X obj 154 179 outlet;
#X msg 154 124 1;
#X obj 154 97 t b f;
#X obj 154 151 -;
#X connect 0 0 3 0;
#X connect 2 0 4 0;
#X connect 3 0 2 0;
#X connect 3 1 4 1;
#X connect 4 0 1 0;
#X restore 325 360 pd inv;
#X floatatom 383 385 5 0 0 0 - - - 0;
#X text 258 312 dry;
#X text 394 312 wet, f 4;
#X floatatom 283 361 5 0 0 0 - - - 0;
#X text 313 310 Reverb;
#X obj 269 264 loadbang;
#X obj 77 296 *~ 0.2;
#X text 432 286 reverb;
#X obj 115 180 osc~;
#X obj 151 180 osc~;
#X obj 114 147 * 1.01;
#X obj 166 147 * 0.97;
#X obj 269 535 r starVolume;
#X obj 85 569 *~;
#X msg 269 288 0.267;
#X obj 146 631 outlet~;
#X connect 0 0 6 0;
#X connect 2 0 5 0;
#X connect 4 0 7 0;
#X connect 5 0 4 0;
#X connect 5 0 26 0;
#X connect 5 0 27 0;
#X connect 6 0 9 0;
#X connect 7 0 22 0;
#X connect 8 0 7 1;
#X connect 9 0 8 0;
#X connect 11 0 29 0;
#X connect 11 1 29 0;
#X connect 12 0 11 0;
#X connect 13 0 11 0;
#X connect 14 0 12 0;
#X connect 14 0 15 0;
#X connect 14 0 19 0;
#X connect 15 0 13 0;
#X connect 15 0 16 0;
#X connect 21 0 30 0;
#X connect 22 0 11 0;
#X connect 24 0 7 0;
#X connect 25 0 7 0;
#X connect 26 0 24 0;
#X connect 27 0 25 0;
#X connect 28 0 29 1;
#X connect 29 0 31 0;
#X connect 30 0 14 0;
#X restore 361 405 pd starnoise_delay;
#X obj 269 175 bng 19 250 50 0 empty empty empty 0 -10 0 12 #fcfcfc #000000 #000000;
#N canvas 1999 407 1344 966 starnoise_delay 0;
#X obj 269 71 inlet;
#X text 269 44 recieve signal inlet;
#X obj 81 74 inlet;
#X text 75 47 recieve note inlet;
#X obj 79 180 osc~;
#X obj 80 97 mtof;
#X obj 269 119 bng 19 250 50 0 empty empty empty 0 -10 0 12 #fcfcfc #000000 #000000;
#X obj 76 269 *~;
#X obj 269 172 vline~;
#X msg 269 143 1 \, 0 100;
#X text 343 142 decay;
#X obj 78 485 freeverb~;
#X msg 271 387 wet \$1;
#X msg 325 387 dry \$1;
#X obj 272 330 hsl 128 15 0 1 0 0 empty empty empty -2 -8 0 10 #c6feff #000000 #000000 0 1;
#N canvas 1 80 450 300 inv 0;
#X obj 154 69 inlet;
#X obj 154 179 outlet;
#X msg 154 124 1;
#X obj 154 97 t b f;
#X obj 154 151 -;
#X connect 0 0 3 0;
#X connect 2 0 4 0;
#X connect 3 0 2 0;
#X connect 3 1 4 1;
#X connect 4 0 1 0;
#X restore 325 360 pd inv;
#X floatatom 383 385 5 0 0 0 - - - 0;
#X text 258 312 dry;
#X text 394 312 wet, f 4;
#X floatatom 283 361 5 0 0 0 - - - 0;
#X text 313 310 Reverb;
#X obj 269 264 loadbang;
#X obj 77 296 *~ 0.2;
#X text 432 286 reverb;
#X obj 115 180 osc~;
#X obj 151 180 osc~;
#X obj 114 147 * 1.01;
#X obj 166 147 * 0.97;
#X obj 269 535 r starVolume;
#X obj 85 569 *~;
#X msg 269 288 0.267;
#X obj 146 631 outlet~;
#X connect 0 0 6 0;
#X connect 2 0 5 0;
#X connect 4 0 7 0;
#X connect 5 0 4 0;
#X connect 5 0 26 0;
#X connect 5 0 27 0;
#X connect 6 0 9 0;
#X connect 7 0 22 0;
#X connect 8 0 7 1;
#X connect 9 0 8 0;
#X connect 11 0 29 0;
#X connect 11 1 29 0;
#X connect 12 0 11 0;
#X connect 13 0 11 0;
#X connect 14 0 12 0;
#X connect 14 0 15 0;
#X connect 14 0 19 0;
#X connect 15 0 13 0;
#X connect 15 0 16 0;
#X connect 21 0 30 0;
#X connect 22 0 11 0;
#X connect 24 0 7 0;
#X connect 25 0 7 0;
#X connect 26 0 24 0;
#X connect 27 0 25 0;
#X connect 28 0 29 1;
#X connect 29 0 31 0;
#X connect 30 0 14 0;
#X restore 202 431 pd starnoise_delay;
#X obj 204 63 inlet;
#N canvas 1999 407 1344 966 starnoise_delay 0;
#X obj 269 71 inlet;
#X text 269 44 recieve signal inlet;
#X obj 81 74 inlet;
#X text 75 47 recieve note inlet;
#X obj 79 180 osc~;
#X obj 80 97 mtof;
#X obj 269 119 bng 19 250 50 0 empty empty empty 0 -10 0 12 #fcfcfc #000000 #000000;
#X obj 76 269 *~;
#X obj 269 172 vline~;
#X msg 269 143 1 \, 0 100;
#X text 343 142 decay;
#X obj 78 485 freeverb~;
#X msg 271 387 wet \$1;
#X msg 325 387 dry \$1;
#X obj 272 330 hsl 128 15 0 1 0 0 empty empty empty -2 -8 0 10 #c6feff #000000 #000000 0 1;
#N canvas 1 80 450 300 inv 0;
#X obj 154 69 inlet;
#X obj 154 179 outlet;
#X msg 154 124 1;
#X obj 154 97 t b f;
#X obj 154 151 -;
#X connect 0 0 3 0;
#X connect 2 0 4 0;
#X connect 3 0 2 0;
#X connect 3 1 4 1;
#X connect 4 0 1 0;
#X restore 325 360 pd inv;
#X floatatom 383 385 5 0 0 0 - - - 0;
#X text 258 312 dry;
#X text 394 312 wet, f 4;
#X floatatom 283 361 5 0 0 0 - - - 0;
#X text 313 310 Reverb;
#X obj 269 264 loadbang;
#X obj 77 296 *~ 0.2;
#X text 432 286 reverb;
#X obj 115 180 osc~;
#X obj 151 180 osc~;
#X obj 114 147 * 1.01;
#X obj 166 147 * 0.97;
#X obj 269 535 r starVolume;
#X obj 85 569 *~;
#X msg 269 288 0.267;
#X obj 146 631 outlet~;
#X connect 0 0 6 0;
#X connect 2 0 5 0;
#X connect 4 0 7 0;
#X connect 5 0 4 0;
#X connect 5 0 26 0;
#X connect 5 0 27 0;
#X connect 6 0 9 0;
#X connect 7 0 22 0;
#X connect 8 0 7 1;
#X connect 9 0 8 0;
#X connect 11 0 29 0;
#X connect 11 1 29 0;
#X connect 12 0 11 0;
#X connect 13 0 11 0;
#X connect 14 0 12 0;
#X connect 14 0 15 0;
#X connect 14 0 19 0;
#X connect 15 0 13 0;
#X connect 15 0 16 0;
#X connect 21 0 30 0;
#X connect 22 0 11 0;
#X connect 24 0 7 0;
#X connect 25 0 7 0;
#X connect 26 0 24 0;
#X connect 27 0 25 0;
#X connect 28 0 29 1;
#X connect 29 0 31 0;
#X connect 30 0 14 0;
#X restore 60 434 pd starnoise_delay;
#X obj 125 403 delay 10;
#X obj 61 458 *~ 0.9;
#X obj 362 429 *~ 0.2;
#X obj 267 400 delay 200;
#X obj 426 374 delay 450;
#X obj 203 455 *~ 0.4;
#X obj 60 105 inlet;
#X connect 1 0 0 0;
#X connect 1 0 0 1;
#X connect 2 0 4 0;
#X connect 2 0 8 0;
#X connect 2 0 11 0;
#X connect 2 0 12 0;
#X connect 3 0 10 0;
#X connect 5 0 13 0;
#X connect 6 0 2 0;
#X connect 7 0 9 0;
#X connect 8 0 7 1;
#X connect 9 0 1 0;
#X connect 10 0 1 0;
#X connect 11 0 5 1;
#X connect 12 0 3 1;
#X connect 13 0 1 0;
#X connect 14 0 7 0;
#X connect 14 0 5 0;
#X connect 14 0 3 0;
#X restore 1511 584 pd stars;
#N canvas 747 205 627 862 stars 0;
#X obj 196 632 dac~;
#X obj 201 584 *~ 1;
#X obj 233 147 sel 1;
#N canvas 1999 407 1344 966 starnoise_delay 0;
#X obj 269 71 inlet;
#X text 269 44 recieve signal inlet;
#X obj 81 74 inlet;
#X text 75 47 recieve note inlet;
#X obj 79 180 osc~;
#X obj 80 97 mtof;
#X obj 269 119 bng 19 250 50 0 empty empty empty 0 -10 0 12 #fcfcfc #000000 #000000;
#X obj 76 269 *~;
#X obj 269 172 vline~;
#X msg 269 143 1 \, 0 100;
#X text 343 142 decay;
#X obj 78 485 freeverb~;
#X msg 271 387 wet \$1;
#X msg 325 387 dry \$1;
#X obj 272 330 hsl 128 15 0 1 0 0 empty empty empty -2 -8 0 10 #c6feff #000000 #000000 0 1;
#N canvas 1 80 450 300 inv 0;
#X obj 154 69 inlet;
#X obj 154 179 outlet;
#X msg 154 124 1;
#X obj 154 97 t b f;
#X obj 154 151 -;
#X connect 0 0 3 0;
#X connect 2 0 4 0;
#X connect 3 0 2 0;
#X connect 3 1 4 1;
#X connect 4 0 1 0;
#X restore 325 360 pd inv;
#X floatatom 383 385 5 0 0 0 - - - 0;
#X text 258 312 dry;
#X text 394 312 wet, f 4;
#X floatatom 283 361 5 0 0 0 - - - 0;
#X text 313 310 Reverb;
#X obj 269 264 loadbang;
#X obj 77 296 *~ 0.2;
#X text 432 286 reverb;
#X obj 115 180 osc~;
#X obj 151 180 osc~;
#X obj 114 147 * 1.01;
#X obj 166 147 * 0.97;
#X obj 269 535 r starVolume;
#X obj 85 569 *~;
#X msg 269 288 0.267;
#X obj 146 631 outlet~;
#X connect 0 0 6 0;
#X connect 2 0 5 0;
#X connect 4 0 7 0;
#X connect 5 0 4 0;
#X connect 5 0 26 0;
#X connect 5 0 27 0;
#X connect 6 0 9 0;
#X connect 7 0 22 0;
#X connect 8 0 7 1;
#X connect 9 0 8 0;
#X connect 11 0 29 0;
#X connect 11 1 29 0;
#X connect 12 0 11 0;
#X connect 13 0 11 0;
#X connect 14 0 12 0;
#X connect 14 0 15 0;
#X connect 14 0 19 0;
#X connect 15 0 13 0;
#X connect 15 0 16 0;
#X connect 21 0 30 0;
#X connect 22 0 11 0;
#X connect 24 0 7 0;
#X connect 25 0 7 0;
#X connect 26 0 24 0;
#X connect 27 0 25 0;
#X connect 28 0 29 1;
#X connect 29 0 31 0;
#X connect 30 0 14 0;
#X restore 361 405 pd starnoise_delay;
#X obj 269 175 bng 19 250 50 0 empty empty empty 0 -10 0 12 #fcfcfc #000000 #000000;
#N canvas 1999 407 1344 966 starnoise_delay 0;
#X obj 269 71 inlet;
#X text 269 44 recieve signal inlet;
#X obj 81 74 inlet;
#X text 75 47 recieve note inlet;
#X obj 79 180 osc~;
#X obj 80 97 mtof;
#X obj 269 119 bng 19 250 50 0 empty empty empty 0 -10 0 12 #fcfcfc #000000 #000000;
#X obj 76 269 *~;
#X obj 269 172 vline~;
#X msg 269 143 1 \, 0 100;
#X text 343 142 decay;
#X obj 78 485 freeverb~;
#X msg 271 387 wet \$1;
#X msg 325 387 dry \$1;
#X obj 272 330 hsl 128 15 0 1 0 0 empty empty empty -2 -8 0 10 #c6feff #000000 #000000 0 1;
#N canvas 1 80 450 300 inv 0;
#X obj 154 69 inlet;
#X obj 154 179 outlet;
#X msg 154 124 1;
#X obj 154 97 t b f;
#X obj 154 151 -;
#X connect 0 0 3 0;
#X connect 2 0 4 0;
#X connect 3 0 2 0;
#X connect 3 1 4 1;
#X connect 4 0 1 0;
#X restore 325 360 pd inv;
#X floatatom 383 385 5 0 0 0 - - - 0;
#X text 258 312 dry;
#X text 394 312 wet, f 4;
#X floatatom 283 361 5 0 0 0 - - - 0;
#X text 313 310 Reverb;
#X obj 269 264 loadbang;
#X obj 77 296 *~ 0.2;
#X text 432 286 reverb;
#X obj 115 180 osc~;
#X obj 151 180 osc~;
#X obj 114 147 * 1.01;
#X obj 166 147 * 0.97;
#X obj 269 535 r starVolume;
#X obj 85 569 *~;
#X msg 269 288 0.267;
#X obj 146 631 outlet~;
#X connect 0 0 6 0;
#X connect 2 0 5 0;
#X connect 4 0 7 0;
#X connect 5 0 4 0;
#X connect 5 0 26 0;
#X connect 5 0 27 0;
#X connect 6 0 9 0;
#X connect 7 0 22 0;
#X connect 8 0 7 1;
#X connect 9 0 8 0;
#X connect 11 0 29 0;
#X connect 11 1 29 0;
#X connect 12 0 11 0;
#X connect 13 0 11 0;
#X connect 14 0 12 0;
#X connect 14 0 15 0;
#X connect 14 0 19 0;
#X connect 15 0 13 0;
#X connect 15 0 16 0;
#X connect 21 0 30 0;
#X connect 22 0 11 0;
#X connect 24 0 7 0;
#X connect 25 0 7 0;
#X connect 26 0 24 0;
#X connect 27 0 25 0;
#X connect 28 0 29 1;
#X connect 29 0 31 0;
#X connect 30 0 14 0;
#X restore 202 431 pd starnoise_delay;
#X obj 204 63 inlet;
#N canvas 1999 407 1344 966 starnoise_delay 0;
#X obj 269 71 inlet;
#X text 269 44 recieve signal inlet;
#X obj 81 74 inlet;
#X text 75 47 recieve note inlet;
#X obj 79 180 osc~;
#X obj 80 97 mtof;
#X obj 269 119 bng 19 250 50 0 empty empty empty 0 -10 0 12 #fcfcfc #000000 #000000;
#X obj 76 269 *~;
#X obj 269 172 vline~;
#X msg 269 143 1 \, 0 100;
#X text 343 142 decay;
#X obj 78 485 freeverb~;
#X msg 271 387 wet \$1;
#X msg 325 387 dry \$1;
#X obj 272 330 hsl 128 15 0 1 0 0 empty empty empty -2 -8 0 10 #c6feff #000000 #000000 0 1;
#N canvas 1 80 450 300 inv 0;
#X obj 154 69 inlet;
#X obj 154 179 outlet;
#X msg 154 124 1;
#X obj 154 97 t b f;
#X obj 154 151 -;
#X connect 0 0 3 0;
#X connect 2 0 4 0;
#X connect 3 0 2 0;
#X connect 3 1 4 1;
#X connect 4 0 1 0;
#X restore 325 360 pd inv;
#X floatatom 383 385 5 0 0 0 - - - 0;
#X text 258 312 dry;
#X text 394 312 wet, f 4;
#X floatatom 283 361 5 0 0 0 - - - 0;
#X text 313 310 Reverb;
#X obj 269 264 loadbang;
#X obj 77 296 *~ 0.2;
#X text 432 286 reverb;
#X obj 115 180 osc~;
#X obj 151 180 osc~;
#X obj 114 147 * 1.01;
#X obj 166 147 * 0.97;
#X obj 269 535 r starVolume;
#X obj 85 569 *~;
#X msg 269 288 0.267;
#X obj 146 631 outlet~;
#X connect 0 0 6 0;
#X connect 2 0 5 0;
#X connect 4 0 7 0;
#X connect 5 0 4 0;
#X connect 5 0 26 0;
#X connect 5 0 27 0;
#X connect 6 0 9 0;
#X connect 7 0 22 0;
#X connect 8 0 7 1;
#X connect 9 0 8 0;
#X connect 11 0 29 0;
#X connect 11 1 29 0;
#X connect 12 0 11 0;
#X connect 13 0 11 0;
#X connect 14 0 12 0;
#X connect 14 0 15 0;
#X connect 14 0 19 0;
#X connect 15 0 13 0;
#X connect 15 0 16 0;
#X connect 21 0 30 0;
#X connect 22 0 11 0;
#X connect 24 0 7 0;
#X connect 25 0 7 0;
#X connect 26 0 24 0;
#X connect 27 0 25 0;
#X connect 28 0 29 1;
#X connect 29 0 31 0;
#X connect 30 0 14 0;
#X restore 60 434 pd starnoise_delay;
#X obj 125 403 delay 10;
#X obj 61 458 *~ 0.9;
#X obj 362 429 *~ 0.2;
#X obj 267 400 delay 200;
#X obj 426 374 delay 450;
#X obj 203 455 *~ 0.4;
#X obj 60 105 inlet;
#X connect 1 0 0 0;
#X connect 1 0 0 1;
#X connect 2 0 4 0;
#X connect 2 0 8 0;
#X connect 2 0 11 0;
#X connect 2 0 12 0;
#X connect 3 0 10 0;
#X connect 5 0 13 0;
#X connect 6 0 2 0;
#X connect 7 0 9 0;
#X connect 8 0 7 1;
#X connect 9 0 1 0;
#X connect 10 0 1 0;
#X connect 11 0 5 1;
#X connect 12 0 3 1;
#X connect 13 0 1 0;
#X connect 14 0 7 0;
#X connect 14 0 5 0;
#X connect 14 0 3 0;
#X restore 1511 670 pd stars;
#N canvas 747 205 627 862 stars 0;
#X obj 196 632 dac~;
#X obj 201 584 *~ 1;
#X obj 233 147 sel 1;
#N canvas 1999 407 1344 966 starnoise_delay 0;
#X obj 269 71 inlet;
#X text 269 44 recieve signal inlet;
#X obj 81 74 inlet;
#X text 75 47 recieve note inlet;
#X obj 79 180 osc~;
#X obj 80 97 mtof;
#X obj 269 119 bng 19 250 50 0 empty empty empty 0 -10 0 12 #fcfcfc #000000 #000000;
#X obj 76 269 *~;
#X obj 269 172 vline~;
#X msg 269 143 1 \, 0 100;
#X text 343 142 decay;
#X obj 78 485 freeverb~;
#X msg 271 387 wet \$1;
#X msg 325 387 dry \$1;
#X obj 272 330 hsl 128 15 0 1 0 0 empty empty empty -2 -8 0 10 #c6feff #000000 #000000 0 1;
#N canvas 1 80 450 300 inv 0;
#X obj 154 69 inlet;
#X obj 154 179 outlet;
#X msg 154 124 1;
#X obj 154 97 t b f;
#X obj 154 151 -;
#X connect 0 0 3 0;
#X connect 2 0 4 0;
#X connect 3 0 2 0;
#X connect 3 1 4 1;
#X connect 4 0 1 0;
#X restore 325 360 pd inv;
#X floatatom 383 385 5 0 0 0 - - - 0;
#X text 258 312 dry;
#X text 394 312 wet, f 4;
#X floatatom 283 361 5 0 0 0 - - - 0;
#X text 313 310 Reverb;
#X obj 269 264 loadbang;
#X obj 77 296 *~ 0.2;
#X text 432 286 reverb;
#X obj 115 180 osc~;
#X obj 151 180 osc~;
#X obj 114 147 * 1.01;
#X obj 166 147 * 0.97;
#X obj 269 535 r starVolume;
#X obj 85 569 *~;
#X msg 269 288 0.267;
#X obj 146 631 outlet~;
#X connect 0 0 6 0;
#X connect 2 0 5 0;
#X connect 4 0 7 0;
#X connect 5 0 4 0;
#X connect 5 0 26 0;
#X connect 5 0 27 0;
#X connect 6 0 9 0;
#X connect 7 0 22 0;
#X connect 8 0 7 1;
#X connect 9 0 8 0;
#X connect 11 0 29 0;
#X connect 11 1 29 0;
#X connect 12 0 11 0;
#X connect 13 0 11 0;
#X connect 14 0 12 0;
#X connect 14 0 15 0;
#X connect 14 0 19 0;
#X connect 15 0 13 0;
#X connect 15 0 16 0;
#X connect 21 0 30 0;
#X connect 22 0 11 0;
#X connect 24 0 7 0;
#X connect 25 0 7 0;
#X connect 26 0 24 0;
#X connect 27 0 25 0;
#X connect 28 0 29 1;
#X connect 29 0 31 0;
#X connect 30 0 14 0;
#X restore 361 405 pd starnoise_delay;
#X obj 269 175 bng 19 250 50 0 empty empty empty 0 -10 0 12 #fcfcfc #000000 #000000;
#N canvas 1999 407 1344 966 starnoise_delay 0;
#X obj 269 71 inlet;
#X text 269 44 recieve signal inlet;
#X obj 81 74 inlet;
#X text 75 47 recieve note inlet;
#X obj 79 180 osc~;
#X obj 80 97 mtof;
#X obj 269 119 bng 19 250 50 0 empty empty empty 0 -10 0 12 #fcfcfc #000000 #000000;
#X obj 76 269 *~;
#X obj 269 172 vline~;
#X msg 269 143 1 \, 0 100;
#X text 343 142 decay;
#X obj 78 485 freeverb~;
#X msg 271 387 wet \$1;
#X msg 325 387 dry \$1;
#X obj 272 330 hsl 128 15 0 1 0 0 empty empty empty -2 -8 0 10 #c6feff #000000 #000000 0 1;
#N canvas 1 80 450 300 inv 0;
#X obj 154 69 inlet;
#X obj 154 179 outlet;
#X msg 154 124 1;
#X obj 154 97 t b f;
#X obj 154 151 -;
#X connect 0 0 3 0;
#X connect 2 0 4 0;
#X connect 3 0 2 0;
#X connect 3 1 4 1;
#X connect 4 0 1 0;
#X restore 325 360 pd inv;
#X floatatom 383 385 5 0 0 0 - - - 0;
#X text 258 312 dry;
#X text 394 312 wet, f 4;
#X floatatom 283 361 5 0 0 0 - - - 0;
#X text 313 310 Reverb;
#X obj 269 264 loadbang;
#X obj 77 296 *~ 0.2;
#X text 432 286 reverb;
#X obj 115 180 osc~;
#X obj 151 180 osc~;
#X obj 114 147 * 1.01;
#X obj 166 147 * 0.97;
#X obj 269 535 r starVolume;
#X obj 85 569 *~;
#X msg 269 288 0.267;
#X obj 146 631 outlet~;
#X connect 0 0 6 0;
#X connect 2 0 5 0;
#X connect 4 0 7 0;
#X connect 5 0 4 0;
#X connect 5 0 26 0;
#X connect 5 0 27 0;
#X connect 6 0 9 0;
#X connect 7 0 22 0;
#X connect 8 0 7 1;
#X connect 9 0 8 0;
#X connect 11 0 29 0;
#X connect 11 1 29 0;
#X connect 12 0 11 0;
#X connect 13 0 11 0;
#X connect 14 0 12 0;
#X connect 14 0 15 0;
#X connect 14 0 19 0;
#X connect 15 0 13 0;
#X connect 15 0 16 0;
#X connect 21 0 30 0;
#X connect 22 0 11 0;
#X connect 24 0 7 0;
#X connect 25 0 7 0;
#X connect 26 0 24 0;
#X connect 27 0 25 0;
#X connect 28 0 29 1;
#X connect 29 0 31 0;
#X connect 30 0 14 0;
#X restore 202 431 pd starnoise_delay;
#X obj 204 63 inlet;
#N canvas 1999 407 1344 966 starnoise_delay 0;
#X obj 269 71 inlet;
#X text 269 44 recieve signal inlet;
#X obj 81 74 inlet;
#X text 75 47 recieve note inlet;
#X obj 79 180 osc~;
#X obj 80 97 mtof;
#X obj 269 119 bng 19 250 50 0 empty empty empty 0 -10 0 12 #fcfcfc #000000 #000000;
#X obj 76 269 *~;
#X obj 269 172 vline~;
#X msg 269 143 1 \, 0 100;
#X text 343 142 decay;
#X obj 78 485 freeverb~;
#X msg 271 387 wet \$1;
#X msg 325 387 dry \$1;
#X obj 272 330 hsl 128 15 0 1 0 0 empty empty empty -2 -8 0 10 #c6feff #000000 #000000 0 1;
#N canvas 1 80 450 300 inv 0;
#X obj 154 69 inlet;
#X obj 154 179 outlet;
#X msg 154 124 1;
#X obj 154 97 t b f;
#X obj 154 151 -;
#X connect 0 0 3 0;
#X connect 2 0 4 0;
#X connect 3 0 2 0;
#X connect 3 1 4 1;
#X connect 4 0 1 0;
#X restore 325 360 pd inv;
#X floatatom 383 385 5 0 0 0 - - - 0;
#X text 258 312 dry;
#X text 394 312 wet, f 4;
#X floatatom 283 361 5 0 0 0 - - - 0;
#X text 313 310 Reverb;
#X obj 269 264 loadbang;
#X obj 77 296 *~ 0.2;
#X text 432 286 reverb;
#X obj 115 180 osc~;
#X obj 151 180 osc~;
#X obj 114 147 * 1.01;
#X obj 166 147 * 0.97;
#X obj 269 535 r starVolume;
#X obj 85 569 *~;
#X msg 269 288 0.267;
#X obj 146 631 outlet~;
#X connect 0 0 6 0;
#X connect 2 0 5 0;
#X connect 4 0 7 0;
#X connect 5 0 4 0;
#X connect 5 0 26 0;
#X connect 5 0 27 0;
#X connect 6 0 9 0;
#X connect 7 0 22 0;
#X connect 8 0 7 1;
#X connect 9 0 8 0;
#X connect 11 0 29 0;
#X connect 11 1 29 0;
#X connect 12 0 11 0;
#X connect 13 0 11 0;
#X connect 14 0 12 0;
#X connect 14 0 15 0;
#X connect 14 0 19 0;
#X connect 15 0 13 0;
#X connect 15 0 16 0;
#X connect 21 0 30 0;
#X connect 22 0 11 0;
#X connect 24 0 7 0;
#X connect 25 0 7 0;
#X connect 26 0 24 0;
#X connect 27 0 25 0;
#X connect 28 0 29 1;
#X connect 29 0 31 0;
#X connect 30 0 14 0;
#X restore 60 434 pd starnoise_delay;
#X obj 125 403 delay 10;
#X obj 61 458 *~ 0.9;
#X obj 362 429 *~ 0.2;
#X obj 267 400 delay 200;
#X obj 426 374 delay 450;
#X obj 203 455 *~ 0.4;
#X obj 60 105 inlet;
#X connect 1 0 0 0;
#X connect 1 0 0 1;
#X connect 2 0 4 0;
#X connect 2 0 8 0;
#X connect 2 0 11 0;
#X connect 2 0 12 0;
#X connect 3 0 10 0;
#X connect 5 0 13 0;
#X connect 6 0 2 0;
#X connect 7 0 9 0;
#X connect 8 0 7 1;
#X connect 9 0 1 0;
#X connect 10 0 1 0;
#X connect 11 0 5 1;
#X connect 12 0 3 1;
#X connect 13 0 1 0;
#X connect 14 0 7 0;
#X connect 14 0 5 0;
#X connect 14 0 3 0;
#X restore 1510 759 pd stars;
#X obj 1289 923 dac~;
#X msg 1295 809 open greetings.wav \, 1;
#X msg 1118 911 wet \$1;
#X msg 1172 911 dry \$1;
#X obj 1123 861 hsl 128 15 0 1 0 0 empty empty empty -2 -8 0 10 #c6feff #000000 #000000 0 1;
#N canvas 1 80 450 300 inv 0;
#X obj 154 69 inlet;
#X obj 154 179 outlet;
#X msg 154 124 1;
#X obj 154 97 t b f;
#X obj 154 151 -;
#X connect 0 0 3 0;
#X connect 2 0 4 0;
#X connect 3 0 2 0;
#X connect 3 1 4 1;
#X connect 4 0 1 0;
#X restore 1172 884 pd inv;
#X text 1109 843 dry;
#X text 1245 843 wet, f 4;
#X floatatom 1127 885 5 0 0 0 - - - 0;
#X text 1164 841 Reverb;
#X obj 1294 862 freeverb~;
#X msg 1072 862 0.181;
#X obj 1295 835 readsf~;
#X obj 1340 893 hsl 162 19 0 0.2 0 0 empty empty empty -2 -10 0 12 #2f004d #ffffff #000000 0 1;
#X obj 1298 893 *~;
#X connect 1 0 0 0;
#X connect 2 0 6 0;
#X connect 9 0 2 0;
#X connect 10 0 9 0;
#X connect 20 0 24 0;
#X connect 22 0 23 0;
#X connect 22 0 50 1;
#X connect 23 0 50 0;
#X connect 25 0 42 0;
#X connect 26 0 44 0;
#X connect 27 0 46 0;
#X connect 29 0 28 0;
#X connect 30 0 21 0;
#X connect 31 0 35 0;
#X connect 32 0 39 0;
#X connect 33 0 34 0;
#X connect 33 0 51 1;
#X connect 34 0 51 0;
#X connect 36 0 37 0;
#X connect 36 0 52 1;
#X connect 37 0 52 0;
#X connect 38 0 53 0;
#X connect 40 0 38 0;
#X connect 40 0 53 1;
#X connect 41 0 54 0;
#X connect 43 0 41 0;
#X connect 43 0 54 1;
#X connect 45 0 47 0;
#X connect 45 0 55 1;
#X connect 47 0 55 0;
#X connect 48 0 56 0;
#X connect 49 0 48 0;
#X connect 49 0 56 1;
#X connect 58 0 69 0;
#X connect 59 0 67 0;
#X connect 60 0 67 0;
#X connect 61 0 59 0;
#X connect 61 0 62 0;
#X connect 61 0 65 0;
#X connect 62 0 60 0;
#X connect 67 0 71 0;
#X connect 68 0 61 0;
#X connect 69 0 67 0;
#X connect 70 0 71 1;
#X connect 71 0 57 0;
#X connect 71 0 57 1;
