#N canvas 11 24 1920 976 12;
#N canvas 700 0 1210 966 mercury 0;
#X obj 331 336 mtof;
#X obj 331 366 osc~;
#X obj 238 548 *~;
#X obj 119 147 tgl 30 0 empty empty planet 0 -10 0 12 #ff8300 #000000 #000000 0 1;
#X text 214 132 note value;
#X obj 118 372 hsl 90 19 0 0.1 0 0 empty empty volume -2 -10 0 12 #c6feff #000000 #000000 0 1;
#X obj 225 722 freeverb~;
#X msg 30 590 wet \$1;
#X msg 84 590 dry \$1;
#X obj 119 332 hsl 128 15 0 1 0 0 empty empty empty -2 -8 0 10 #c6feff #000000 #000000 0 1;
#N canvas 1 80 450 300 inv 0;
#X obj 154 69 inlet;
#X obj 154 179 outlet;
#X msg 154 124 1;
#X obj 154 97 t b f;
#X obj 154 151 -;
#X connect 0 0 3 0;
#X connect 2 0 4 0;
#X connect 3 0 2 0;
#X connect 3 1 4 1;
#X connect 4 0 1 0;
#X restore 84 563 pd inv;
#X floatatom 142 588 5 0 0 0 - - - 0;
#X text 105 314 dry;
#X text 241 314 wet, f 4;
#X floatatom 42 564 5 0 0 0 - - - 0;
#X text 160 312 Reverb;
#X msg 36 466 0;
#X obj 74 57 loadbang;
#X obj 36 443 select 0 1;
#X msg 68 467 1;
#X obj 116 467 *~;
#X obj 268 549 mtof;
#X obj 238 580 lop~;
#X msg 322 50 59;
#X obj 727 544 hsl 128 15 -1 1 0 0 empty empty empty -2 -8 0 10 #ffe3c6 #000000 #000000 0 1;
#N canvas 1 80 450 300 inv 0;
#X obj 154 69 inlet;
#X obj 154 179 outlet;
#X msg 154 124 1;
#X obj 154 97 t b f;
#X obj 154 151 -;
#X connect 0 0 3 0;
#X connect 2 0 4 0;
#X connect 3 0 2 0;
#X connect 3 1 4 1;
#X connect 4 0 1 0;
#X restore 728 568 pd inv;
#X obj 346 870 dac~;
#X obj 284 750 *~;
#X obj 225 749 *~;
#X floatatom 725 518 5 0 0 0 - - - 0;
#X obj 724 489 sin;
#X obj 720 216 metro;
#X obj 720 240 bng 19 250 50 0 empty empty empty 0 -10 0 12 #fcfcfc #000000 #000000;
#X obj 775 287 + 1;
#X floatatom 721 335 5 0 0 0 - - - 0;
#X obj 721 358 / 360;
#X obj 721 382 * 6.28319;
#X obj 721 406 * 1;
#X obj 721 174 tgl 19 0 empty empty empty 0 -10 0 12 #fcfcfc #000000 #000000 0 1;
#X msg 865 55 10, f 4;
#X text 34 420 on and off;
#X text 329 308 note;
#X text 42 541 reverb controls;
#X text 715 146 metro sequencer;
#X text 767 57 global speed;
#X obj 124 288 hsl 128 15 -1 1 0 0 empty empty planetary\ movement -2 -8 0 10 #e3c6ff #000000 #000000 0 1;
#X msg 351 100 90;
#X obj 721 287 int;
#X text 393 192 planet rotation;
#X text 388 203 around sun (days);
#X obj 825 464 /;
#X msg 823 430 686.98;
#X msg 370 224 87, f 22;
#X obj 332 395 *~ 0.5;
#X obj 380 785 mtof;
#X obj 381 825 lop~;
#X obj 333 785 mtof;
#X obj 335 823 lop~;
#X text 238 520 lowpass at the note value;
#X text 334 763 lowpass at the note value (remove scratches);
#X obj 721 311 % 360;
#X obj 725 57 inlet;
#X obj 864 23 loadbang;
#X text 186 152 planet position;
#X text 205 165 in orbit;
#X text 351 51 note value;
#X floatatom 176 130 5 0 0 0 - - - 0;
#X text 387 94 planet position;
#X text 438 110 in orbit;
#X floatatom 165 168 5 0 0 0 - - - 0;
#X text 142 205 planet rotation;
#X text 137 216 around sun (days);
#X floatatom 124 237 20 0 0 0 - - - 0;
#X connect 0 0 1 0;
#X connect 1 0 53 0;
#X connect 2 0 22 0;
#X connect 3 0 18 0;
#X connect 3 0 52 0;
#X connect 3 0 46 0;
#X connect 3 0 23 0;
#X connect 5 0 20 0;
#X connect 6 0 28 0;
#X connect 6 1 27 0;
#X connect 7 0 6 0;
#X connect 8 0 6 0;
#X connect 9 0 7 0;
#X connect 9 0 10 0;
#X connect 9 0 14 0;
#X connect 10 0 8 0;
#X connect 10 0 11 0;
#X connect 16 0 20 1;
#X connect 17 0 23 0;
#X connect 17 0 52 0;
#X connect 18 0 16 0;
#X connect 18 1 19 0;
#X connect 19 0 20 1;
#X connect 20 0 2 1;
#X connect 21 0 22 1;
#X connect 22 0 6 0;
#X connect 22 0 6 1;
#X connect 23 0 0 0;
#X connect 23 0 21 0;
#X connect 23 0 54 0;
#X connect 23 0 56 0;
#X connect 23 0 66 0;
#X connect 24 0 25 0;
#X connect 24 0 28 1;
#X connect 24 0 45 0;
#X connect 25 0 27 1;
#X connect 27 0 55 0;
#X connect 28 0 57 0;
#X connect 30 0 24 0;
#X connect 30 0 29 0;
#X connect 31 0 32 0;
#X connect 32 0 47 0;
#X connect 33 0 47 1;
#X connect 34 0 35 0;
#X connect 35 0 36 0;
#X connect 36 0 37 0;
#X connect 37 0 30 0;
#X connect 38 0 31 0;
#X connect 38 0 46 0;
#X connect 39 0 31 1;
#X connect 46 0 47 1;
#X connect 46 0 69 0;
#X connect 47 0 33 0;
#X connect 47 0 60 0;
#X connect 50 0 37 1;
#X connect 51 0 50 0;
#X connect 52 0 50 1;
#X connect 52 0 51 0;
#X connect 52 0 72 0;
#X connect 53 0 2 0;
#X connect 54 0 55 1;
#X connect 55 0 26 1;
#X connect 56 0 57 1;
#X connect 57 0 26 0;
#X connect 60 0 34 0;
#X connect 61 0 31 1;
#X connect 62 0 39 0;
#X coords 0 -1 1 1 200 300 1 100 100;
#X restore 125 75 pd mercury;
