#N canvas 95 114 1920 976 12;
#X obj 205 99 s planetstart;
#X obj 206 66 tgl 19 0 empty empty empty 0 -10 0 12 #fcfcfc #000000 #000000 0 1;
#N canvas 700 0 1210 966 mercury 0;
#X obj 481 427 mtof;
#X obj 481 457 osc~;
#X obj 338 583 *~;
#X obj 613 64 tgl 30 0 empty empty planet 0 -10 0 12 #ff8300 #000000 #000000 0 1;
#X obj 160 304 hsl 90 15 0 0.1 0 0 empty empty volume -2 -10 0 10 #7c7c7c #000000 #000000 0 1;
#X obj 215 661 freeverb~;
#X msg 100 598 wet \$1;
#X msg 154 598 dry \$1;
#X obj 128 517 hsl 128 15 0 1 0 0 empty empty empty -2 -8 0 10 #c6feff #000000 #000000 0 1;
#N canvas 1 80 450 300 inv 0;
#X obj 154 69 inlet;
#X obj 154 179 outlet;
#X msg 154 124 1;
#X obj 154 97 t b f;
#X obj 154 151 -;
#X connect 0 0 3 0;
#X connect 2 0 4 0;
#X connect 3 0 2 0;
#X connect 3 1 4 1;
#X connect 4 0 1 0;
#X restore 154 571 pd inv;
#X floatatom 212 596 5 0 0 0 - - - 0;
#X text 114 499 dry;
#X text 250 499 wet, f 4;
#X floatatom 112 572 5 0 0 0 - - - 0;
#X text 169 497 Reverb;
#X msg 426 308 0;
#X obj 414 4 loadbang;
#X obj 426 285 select 0 1;
#X msg 458 309 1;
#X obj 506 309 *~;
#X obj 368 584 mtof;
#X obj 338 615 lop~;
#X obj 888 707 hsl 128 15 -1 1 0 0 empty empty empty -2 -8 0 10 #ffe3c6 #000000 #000000 0 1;
#N canvas 1 80 450 300 inv 0;
#X obj 154 69 inlet;
#X obj 154 179 outlet;
#X msg 154 124 1;
#X obj 154 97 t b f;
#X obj 154 151 -;
#X connect 0 0 3 0;
#X connect 2 0 4 0;
#X connect 3 0 2 0;
#X connect 3 1 4 1;
#X connect 4 0 1 0;
#X restore 889 731 pd inv;
#X obj 517 835 *~;
#X obj 464 833 *~;
#X floatatom 886 681 5 0 0 0 - - - 0;
#X obj 885 652 sin;
#X obj 881 379 metro;
#X obj 881 403 bng 19 250 50 0 empty empty empty 0 -10 0 12 #fcfcfc #000000 #000000;
#X obj 936 450 + 1;
#X floatatom 882 498 5 0 0 0 - - - 0;
#X obj 882 521 / 360;
#X obj 882 545 * 6.28319;
#X obj 882 569 * 1;
#X obj 882 337 tgl 19 0 empty empty empty 0 -10 0 12 #fcfcfc #000000 #000000 0 1;
#X msg 1015 54 10, f 4;
#X text 424 262 on and off;
#X text 469 404 note;
#X text 141 464 reverb controls;
#X text 876 309 metro sequencer;
#X text 917 56 global speed;
#X obj 141 153 hsl 128 15 -1 1 0 0 empty empty orbit\ position -2 -8 0 10 #dfdfdf #000000 #000000 0 1;
#X text 764 127 planet rotation;
#X text 759 138 around sun (days);
#X obj 986 627 /;
#X msg 984 593 686.98;
#X obj 482 486 *~ 0.5;
#X obj 530 773 mtof;
#X obj 529 862 lop~;
#X obj 483 773 mtof;
#X obj 484 861 lop~;
#X text 324 551 lowpass at the note value;
#X text 484 751 lowpass at the note value (remove scratches);
#X obj 1014 22 loadbang;
#X text 363 163 note value;
#X text 568 154 planet position;
#X text 619 170 in orbit;
#X floatatom 186 265 5 0 0 0 - - - 0;
#X text 150 178 planet rotation;
#X text 148 190 around sun (days);
#X floatatom 135 211 20 0 0 0 - - - 0;
#X obj 554 9 inlet;
#X obj 612 7 r planetstart;
#X text 176 118 MERCURY;
#X text 117 245 planet position in orbit;
#X obj 504 913 dac~;
#X msg 532 160 307;
#X msg 741 159 87.97, f 22;
#X obj 882 450 int 1;
#X obj 89 431 r reverb;
#X msg 334 162 63;
#X connect 0 0 1 0;
#X connect 1 0 47 0;
#X connect 2 0 21 0;
#X connect 3 0 17 0;
#X connect 3 0 68 0;
#X connect 3 0 67 0;
#X connect 3 0 71 0;
#X connect 3 0 35 0;
#X connect 4 0 19 0;
#X connect 5 0 25 0;
#X connect 5 1 24 0;
#X connect 6 0 5 0;
#X connect 7 0 5 0;
#X connect 8 0 6 0;
#X connect 8 0 9 0;
#X connect 8 0 13 0;
#X connect 9 0 7 0;
#X connect 9 0 10 0;
#X connect 15 0 19 1;
#X connect 16 0 71 0;
#X connect 16 0 68 0;
#X connect 17 0 15 0;
#X connect 17 1 18 0;
#X connect 18 0 19 1;
#X connect 19 0 2 1;
#X connect 20 0 21 1;
#X connect 21 0 5 0;
#X connect 21 0 5 1;
#X connect 22 0 23 0;
#X connect 22 0 25 1;
#X connect 22 0 42 0;
#X connect 23 0 24 1;
#X connect 24 0 49 0;
#X connect 25 0 51 0;
#X connect 27 0 22 0;
#X connect 27 0 26 0;
#X connect 28 0 29 0;
#X connect 29 0 69 0;
#X connect 30 0 69 1;
#X connect 31 0 32 0;
#X connect 32 0 33 0;
#X connect 33 0 34 0;
#X connect 34 0 27 0;
#X connect 35 0 28 0;
#X connect 35 0 67 0;
#X connect 36 0 28 1;
#X connect 45 0 34 1;
#X connect 46 0 45 0;
#X connect 47 0 2 0;
#X connect 48 0 49 1;
#X connect 49 0 66 1;
#X connect 50 0 51 1;
#X connect 51 0 66 0;
#X connect 54 0 36 0;
#X connect 62 0 3 0;
#X connect 63 0 3 0;
#X connect 67 0 58 0;
#X connect 67 0 69 1;
#X connect 68 0 45 1;
#X connect 68 0 46 0;
#X connect 68 0 61 0;
#X connect 69 0 30 0;
#X connect 69 0 31 0;
#X connect 70 0 8 0;
#X connect 71 0 0 0;
#X connect 71 0 20 0;
#X connect 71 0 48 0;
#X connect 71 0 50 0;
#X coords 0 -1 1 1 200 230 1 100 100;
#X restore 268 196 pd mercury;
#N canvas 700 0 1210 966 venus 0;
#X obj 481 427 mtof;
#X obj 481 457 osc~;
#X obj 338 583 *~;
#X obj 613 64 tgl 30 0 empty empty planet 0 -10 0 12 #ff8300 #000000 #000000 0 1;
#X obj 160 304 hsl 90 15 0 0.1 0 0 empty empty volume -2 -10 0 10 #ffe3c6 #000000 #000000 0 1;
#X obj 215 661 freeverb~;
#X msg 100 598 wet \$1;
#X msg 154 598 dry \$1;
#X obj 128 517 hsl 128 15 0 1 0 0 empty empty empty -2 -8 0 10 #c6feff #000000 #000000 0 1;
#N canvas 1 80 450 300 inv 0;
#X obj 154 69 inlet;
#X obj 154 179 outlet;
#X msg 154 124 1;
#X obj 154 97 t b f;
#X obj 154 151 -;
#X connect 0 0 3 0;
#X connect 2 0 4 0;
#X connect 3 0 2 0;
#X connect 3 1 4 1;
#X connect 4 0 1 0;
#X restore 154 571 pd inv;
#X floatatom 212 596 5 0 0 0 - - - 0;
#X text 114 499 dry;
#X text 250 499 wet, f 4;
#X floatatom 112 572 5 0 0 0 - - - 0;
#X text 169 497 Reverb;
#X msg 426 308 0;
#X obj 414 4 loadbang;
#X obj 426 285 select 0 1;
#X msg 458 309 1;
#X obj 506 309 *~;
#X obj 368 584 mtof;
#X obj 338 615 lop~;
#X obj 888 707 hsl 128 15 -1 1 0 0 empty empty empty -2 -8 0 10 #ffe3c6 #000000 #000000 0 1;
#N canvas 1 80 450 300 inv 0;
#X obj 154 69 inlet;
#X obj 154 179 outlet;
#X msg 154 124 1;
#X obj 154 97 t b f;
#X obj 154 151 -;
#X connect 0 0 3 0;
#X connect 2 0 4 0;
#X connect 3 0 2 0;
#X connect 3 1 4 1;
#X connect 4 0 1 0;
#X restore 889 731 pd inv;
#X obj 517 835 *~;
#X obj 464 833 *~;
#X floatatom 886 681 5 0 0 0 - - - 0;
#X obj 885 652 sin;
#X obj 881 379 metro;
#X obj 881 403 bng 19 250 50 0 empty empty empty 0 -10 0 12 #fcfcfc #000000 #000000;
#X obj 936 450 + 1;
#X floatatom 882 498 15 0 0 0 - - - 0;
#X obj 882 521 / 360;
#X obj 882 545 * 6.28319;
#X obj 882 569 * 1;
#X obj 882 337 tgl 19 0 empty empty empty 0 -10 0 12 #fcfcfc #000000 #000000 0 1;
#X msg 1015 54 10, f 4;
#X text 424 262 on and off;
#X text 469 404 note;
#X text 141 464 reverb controls;
#X text 876 309 metro sequencer;
#X text 917 56 global speed;
#X obj 141 153 hsl 128 15 -1 1 0 0 empty empty orbit\ position -2 -8 0 10 #ff8300 #000000 #000000 0 1;
#X text 764 127 planet rotation;
#X text 759 138 around sun (days);
#X obj 986 627 /;
#X msg 984 593 686.98;
#X obj 482 486 *~ 0.5;
#X obj 530 773 mtof;
#X obj 529 862 lop~;
#X obj 483 773 mtof;
#X obj 484 861 lop~;
#X text 324 551 lowpass at the note value;
#X text 484 751 lowpass at the note value (remove scratches);
#X obj 1014 22 loadbang;
#X text 363 163 note value;
#X text 568 154 planet position;
#X text 619 170 in orbit;
#X floatatom 186 265 5 0 0 0 - - - 0;
#X text 150 178 planet rotation;
#X text 148 190 around sun (days);
#X floatatom 135 211 20 0 0 0 - - - 0;
#X obj 554 9 inlet;
#X obj 612 7 r planetstart;
#X text 117 245 planet position in orbit;
#X obj 504 913 dac~;
#X text 176 118 VENUS;
#X msg 532 160 324;
#X msg 741 159 224.7, f 22;
#X obj 882 450 int 1;
#X obj 89 431 r reverb;
#X msg 334 162 65;
#X connect 0 0 1 0;
#X connect 1 0 47 0;
#X connect 2 0 21 0;
#X connect 3 0 17 0;
#X connect 3 0 68 0;
#X connect 3 0 67 0;
#X connect 3 0 71 0;
#X connect 3 0 35 0;
#X connect 4 0 19 0;
#X connect 5 0 25 0;
#X connect 5 1 24 0;
#X connect 6 0 5 0;
#X connect 7 0 5 0;
#X connect 8 0 6 0;
#X connect 8 0 9 0;
#X connect 8 0 13 0;
#X connect 9 0 7 0;
#X connect 9 0 10 0;
#X connect 15 0 19 1;
#X connect 16 0 71 0;
#X connect 16 0 68 0;
#X connect 17 0 15 0;
#X connect 17 1 18 0;
#X connect 18 0 19 1;
#X connect 19 0 2 1;
#X connect 20 0 21 1;
#X connect 21 0 5 0;
#X connect 21 0 5 1;
#X connect 22 0 23 0;
#X connect 22 0 25 1;
#X connect 22 0 42 0;
#X connect 23 0 24 1;
#X connect 24 0 49 0;
#X connect 25 0 51 0;
#X connect 27 0 22 0;
#X connect 27 0 26 0;
#X connect 28 0 29 0;
#X connect 29 0 69 0;
#X connect 30 0 69 1;
#X connect 31 0 32 0;
#X connect 32 0 33 0;
#X connect 33 0 34 0;
#X connect 34 0 27 0;
#X connect 35 0 28 0;
#X connect 35 0 67 0;
#X connect 36 0 28 1;
#X connect 45 0 34 1;
#X connect 46 0 45 0;
#X connect 47 0 2 0;
#X connect 48 0 49 1;
#X connect 49 0 65 1;
#X connect 50 0 51 1;
#X connect 51 0 65 0;
#X connect 54 0 36 0;
#X connect 62 0 3 0;
#X connect 63 0 3 0;
#X connect 67 0 58 0;
#X connect 67 0 69 1;
#X connect 68 0 45 1;
#X connect 68 0 46 0;
#X connect 68 0 61 0;
#X connect 69 0 30 0;
#X connect 69 0 31 0;
#X connect 70 0 8 0;
#X connect 71 0 0 0;
#X connect 71 0 20 0;
#X connect 71 0 48 0;
#X connect 71 0 50 0;
#X coords 0 -1 1 1 200 230 1 100 100;
#X restore 508 197 pd venus;
#N canvas 700 0 1210 966 earth 0;
#X obj 481 427 mtof;
#X obj 481 457 osc~;
#X obj 338 583 *~;
#X obj 613 64 tgl 30 0 empty empty planet 0 -10 0 12 #ff8300 #000000 #000000 0 1;
#X obj 160 304 hsl 90 15 0 0.1 0 0 empty empty volume -2 -10 0 10 #c6ffc7 #000000 #000000 0 1;
#X obj 215 661 freeverb~;
#X msg 100 598 wet \$1;
#X msg 154 598 dry \$1;
#X obj 126 518 hsl 128 15 0 1 0 0 empty empty empty -2 -8 0 10 #c6feff #000000 #000000 0 1;
#N canvas 1 80 450 300 inv 0;
#X obj 154 69 inlet;
#X obj 154 179 outlet;
#X msg 154 124 1;
#X obj 154 97 t b f;
#X obj 154 151 -;
#X connect 0 0 3 0;
#X connect 2 0 4 0;
#X connect 3 0 2 0;
#X connect 3 1 4 1;
#X connect 4 0 1 0;
#X restore 154 571 pd inv;
#X floatatom 212 596 5 0 0 0 - - - 0;
#X text 114 499 dry;
#X text 250 499 wet, f 4;
#X floatatom 112 572 5 0 0 0 - - - 0;
#X text 169 497 Reverb;
#X msg 426 308 0;
#X obj 414 4 loadbang;
#X obj 426 285 select 0 1;
#X msg 458 309 1;
#X obj 506 309 *~;
#X obj 368 584 mtof;
#X obj 338 615 lop~;
#X obj 888 707 hsl 128 15 -1 1 0 0 empty empty empty -2 -8 0 10 #ffe3c6 #000000 #000000 0 1;
#N canvas 1 80 450 300 inv 0;
#X obj 154 69 inlet;
#X obj 154 179 outlet;
#X msg 154 124 1;
#X obj 154 97 t b f;
#X obj 154 151 -;
#X connect 0 0 3 0;
#X connect 2 0 4 0;
#X connect 3 0 2 0;
#X connect 3 1 4 1;
#X connect 4 0 1 0;
#X restore 889 731 pd inv;
#X obj 517 835 *~;
#X obj 464 833 *~;
#X floatatom 886 681 5 0 0 0 - - - 0;
#X obj 885 652 sin;
#X obj 881 379 metro;
#X obj 881 403 bng 19 250 50 0 empty empty empty 0 -10 0 12 #fcfcfc #000000 #000000;
#X obj 936 450 + 1;
#X floatatom 882 498 5 0 0 0 - - - 0;
#X obj 882 521 / 360;
#X obj 882 545 * 6.28319;
#X obj 882 569 * 1;
#X obj 882 337 tgl 19 0 empty empty empty 0 -10 0 12 #fcfcfc #000000 #000000 0 1;
#X msg 1015 54 10, f 4;
#X text 424 262 on and off;
#X text 469 404 note;
#X text 141 464 reverb controls;
#X text 876 309 metro sequencer;
#X text 917 56 global speed;
#X obj 141 153 hsl 128 15 -1 1 0 0 empty empty orbit\ position -2 -8 0 10 #00ff04 #000000 #000000 0 1;
#X text 764 127 planet rotation;
#X text 759 138 around sun (days);
#X obj 986 627 /;
#X msg 984 593 686.98;
#X obj 482 486 *~ 0.5;
#X obj 530 773 mtof;
#X obj 529 862 lop~;
#X obj 483 773 mtof;
#X obj 484 861 lop~;
#X text 324 551 lowpass at the note value;
#X text 484 751 lowpass at the note value (remove scratches);
#X obj 1014 22 loadbang;
#X text 363 163 note value;
#X text 568 154 planet position;
#X text 619 170 in orbit;
#X floatatom 186 265 5 0 0 0 - - - 0;
#X text 150 178 planet rotation;
#X text 148 190 around sun (days);
#X floatatom 135 211 20 0 0 0 - - - 0;
#X obj 554 9 inlet;
#X obj 612 7 r planetstart;
#X text 117 245 planet position in orbit;
#X obj 504 913 dac~;
#X text 176 118 EARTH;
#X msg 532 160 244;
#X msg 741 159 365.26, f 22;
#X obj 89 431 r reverb;
#X obj 882 450 int 1;
#X msg 334 162 61;
#X connect 0 0 1 0;
#X connect 1 0 47 0;
#X connect 2 0 21 0;
#X connect 3 0 17 0;
#X connect 3 0 68 0;
#X connect 3 0 67 0;
#X connect 3 0 71 0;
#X connect 3 0 35 0;
#X connect 4 0 19 0;
#X connect 5 0 25 0;
#X connect 5 1 24 0;
#X connect 6 0 5 0;
#X connect 7 0 5 0;
#X connect 8 0 6 0;
#X connect 8 0 9 0;
#X connect 8 0 13 0;
#X connect 9 0 7 0;
#X connect 9 0 10 0;
#X connect 15 0 19 1;
#X connect 16 0 71 0;
#X connect 16 0 68 0;
#X connect 17 0 15 0;
#X connect 17 1 18 0;
#X connect 18 0 19 1;
#X connect 19 0 2 1;
#X connect 20 0 21 1;
#X connect 21 0 5 0;
#X connect 21 0 5 1;
#X connect 22 0 23 0;
#X connect 22 0 25 1;
#X connect 22 0 42 0;
#X connect 23 0 24 1;
#X connect 24 0 49 0;
#X connect 25 0 51 0;
#X connect 27 0 22 0;
#X connect 27 0 26 0;
#X connect 28 0 29 0;
#X connect 29 0 70 0;
#X connect 30 0 70 1;
#X connect 31 0 32 0;
#X connect 32 0 33 0;
#X connect 33 0 34 0;
#X connect 34 0 27 0;
#X connect 35 0 28 0;
#X connect 35 0 67 0;
#X connect 36 0 28 1;
#X connect 45 0 34 1;
#X connect 46 0 45 0;
#X connect 47 0 2 0;
#X connect 48 0 49 1;
#X connect 49 0 65 1;
#X connect 50 0 51 1;
#X connect 51 0 65 0;
#X connect 54 0 36 0;
#X connect 62 0 3 0;
#X connect 63 0 3 0;
#X connect 67 0 58 0;
#X connect 67 0 70 1;
#X connect 68 0 45 1;
#X connect 68 0 46 0;
#X connect 68 0 61 0;
#X connect 69 0 8 0;
#X connect 70 0 30 0;
#X connect 70 0 31 0;
#X connect 71 0 0 0;
#X connect 71 0 20 0;
#X connect 71 0 48 0;
#X connect 71 0 50 0;
#X coords 0 -1 1 1 200 230 1 100 100;
#X restore 738 195 pd earth;
#N canvas 700 0 1210 966 mars 0;
#X obj 481 427 mtof;
#X obj 481 457 osc~;
#X obj 338 583 *~;
#X obj 613 64 tgl 30 0 empty empty planet 0 -10 0 12 #ff8300 #000000 #000000 0 1;
#X obj 160 304 hsl 90 15 0 0.1 0 0 empty empty volume -2 -10 0 10 #ffc7c6 #000000 #000000 0 1;
#X obj 215 661 freeverb~;
#X msg 100 598 wet \$1;
#X msg 154 598 dry \$1;
#X obj 128 517 hsl 128 15 0 1 0 0 empty empty empty -2 -8 0 10 #c6feff #000000 #000000 0 1;
#N canvas 1 80 450 300 inv 0;
#X obj 154 69 inlet;
#X obj 154 179 outlet;
#X msg 154 124 1;
#X obj 154 97 t b f;
#X obj 154 151 -;
#X connect 0 0 3 0;
#X connect 2 0 4 0;
#X connect 3 0 2 0;
#X connect 3 1 4 1;
#X connect 4 0 1 0;
#X restore 154 571 pd inv;
#X floatatom 212 596 5 0 0 0 - - - 0;
#X text 114 499 dry;
#X text 250 499 wet, f 4;
#X floatatom 112 572 5 0 0 0 - - - 0;
#X text 169 497 Reverb;
#X msg 426 308 0;
#X obj 414 4 loadbang;
#X obj 426 285 select 0 1;
#X msg 458 309 1;
#X obj 506 309 *~;
#X obj 368 584 mtof;
#X obj 338 615 lop~;
#X obj 888 707 hsl 128 15 -1 1 0 0 empty empty empty -2 -8 0 10 #ffe3c6 #000000 #000000 0 1;
#N canvas 1 80 450 300 inv 0;
#X obj 154 69 inlet;
#X obj 154 179 outlet;
#X msg 154 124 1;
#X obj 154 97 t b f;
#X obj 154 151 -;
#X connect 0 0 3 0;
#X connect 2 0 4 0;
#X connect 3 0 2 0;
#X connect 3 1 4 1;
#X connect 4 0 1 0;
#X restore 889 731 pd inv;
#X obj 517 835 *~;
#X obj 464 833 *~;
#X floatatom 886 681 5 0 0 0 - - - 0;
#X obj 885 652 sin;
#X obj 881 379 metro;
#X obj 881 403 bng 19 250 50 0 empty empty empty 0 -10 0 12 #fcfcfc #000000 #000000;
#X obj 936 450 + 1;
#X floatatom 882 498 5 0 0 0 - - - 0;
#X obj 882 521 / 360;
#X obj 882 545 * 6.28319;
#X obj 882 569 * 1;
#X obj 882 337 tgl 19 0 empty empty empty 0 -10 0 12 #fcfcfc #000000 #000000 0 1;
#X msg 1015 54 10, f 4;
#X text 424 262 on and off;
#X text 469 404 note;
#X text 141 464 reverb controls;
#X text 876 309 metro sequencer;
#X text 917 56 global speed;
#X obj 141 153 hsl 128 15 -1 1 0 0 empty empty orbit\ position -2 -8 0 10 #ff0400 #000000 #000000 0 1;
#X obj 882 450 int;
#X text 764 127 planet rotation;
#X text 759 138 around sun (days);
#X obj 986 627 /;
#X msg 984 593 686.98;
#X obj 482 486 *~ 0.5;
#X obj 530 773 mtof;
#X obj 529 862 lop~;
#X obj 483 773 mtof;
#X obj 484 861 lop~;
#X text 324 551 lowpass at the note value;
#X text 484 751 lowpass at the note value (remove scratches);
#X obj 882 474 % 360;
#X obj 1014 22 loadbang;
#X text 363 163 note value;
#X text 568 154 planet position;
#X text 619 170 in orbit;
#X floatatom 186 265 5 0 0 0 - - - 0;
#X text 150 178 planet rotation;
#X text 148 190 around sun (days);
#X floatatom 135 211 20 0 0 0 - - - 0;
#X obj 554 9 inlet;
#X obj 612 7 r planetstart;
#X text 117 245 planet position in orbit;
#X obj 504 913 dac~;
#X obj 89 431 r reverb;
#X text 176 118 MARS;
#X msg 532 160 309;
#X msg 741 159 686.98, f 22;
#X msg 334 162 56;
#X connect 0 0 1 0;
#X connect 1 0 48 0;
#X connect 2 0 21 0;
#X connect 3 0 17 0;
#X connect 3 0 71 0;
#X connect 3 0 70 0;
#X connect 3 0 72 0;
#X connect 3 0 35 0;
#X connect 4 0 19 0;
#X connect 5 0 25 0;
#X connect 5 1 24 0;
#X connect 6 0 5 0;
#X connect 7 0 5 0;
#X connect 8 0 6 0;
#X connect 8 0 9 0;
#X connect 8 0 13 0;
#X connect 9 0 7 0;
#X connect 9 0 10 0;
#X connect 15 0 19 1;
#X connect 16 0 72 0;
#X connect 16 0 71 0;
#X connect 17 0 15 0;
#X connect 17 1 18 0;
#X connect 18 0 19 1;
#X connect 19 0 2 1;
#X connect 20 0 21 1;
#X connect 21 0 5 0;
#X connect 21 0 5 1;
#X connect 22 0 23 0;
#X connect 22 0 25 1;
#X connect 22 0 42 0;
#X connect 23 0 24 1;
#X connect 24 0 50 0;
#X connect 25 0 52 0;
#X connect 27 0 22 0;
#X connect 27 0 26 0;
#X connect 28 0 29 0;
#X connect 29 0 43 0;
#X connect 30 0 43 1;
#X connect 31 0 32 0;
#X connect 32 0 33 0;
#X connect 33 0 34 0;
#X connect 34 0 27 0;
#X connect 35 0 28 0;
#X connect 35 0 70 0;
#X connect 36 0 28 1;
#X connect 43 0 30 0;
#X connect 43 0 55 0;
#X connect 46 0 34 1;
#X connect 47 0 46 0;
#X connect 48 0 2 0;
#X connect 49 0 50 1;
#X connect 50 0 67 1;
#X connect 51 0 52 1;
#X connect 52 0 67 0;
#X connect 55 0 31 0;
#X connect 56 0 36 0;
#X connect 64 0 3 0;
#X connect 65 0 3 0;
#X connect 68 0 8 0;
#X connect 70 0 43 1;
#X connect 70 0 60 0;
#X connect 71 0 46 1;
#X connect 71 0 47 0;
#X connect 71 0 63 0;
#X connect 72 0 0 0;
#X connect 72 0 20 0;
#X connect 72 0 49 0;
#X connect 72 0 51 0;
#X coords 0 -1 1 1 200 230 1 100 100;
#X restore 969 195 pd mars;
#N canvas 700 0 1210 966 jupiter 0;
#X obj 481 427 mtof;
#X obj 481 457 osc~;
#X obj 338 583 *~;
#X obj 613 64 tgl 30 0 empty empty planet 0 -10 0 12 #ff8300 #000000 #000000 0 1;
#X obj 160 304 hsl 90 15 0 0.1 0 0 empty empty volume -2 -10 0 10 #fdd791 #000000 #000000 0 1;
#X obj 215 661 freeverb~;
#X msg 100 598 wet \$1;
#X msg 154 598 dry \$1;
#X obj 128 517 hsl 128 15 0 1 0 0 empty empty empty -2 -8 0 10 #c6feff #000000 #000000 0 1;
#N canvas 1 80 450 300 inv 0;
#X obj 154 69 inlet;
#X obj 154 179 outlet;
#X msg 154 124 1;
#X obj 154 97 t b f;
#X obj 154 151 -;
#X connect 0 0 3 0;
#X connect 2 0 4 0;
#X connect 3 0 2 0;
#X connect 3 1 4 1;
#X connect 4 0 1 0;
#X restore 154 571 pd inv;
#X floatatom 212 596 5 0 0 0 - - - 0;
#X text 114 499 dry;
#X text 250 499 wet, f 4;
#X floatatom 112 572 5 0 0 0 - - - 0;
#X text 169 497 Reverb;
#X msg 426 308 0;
#X obj 414 4 loadbang;
#X obj 426 285 select 0 1;
#X msg 458 309 1;
#X obj 506 309 *~;
#X obj 368 584 mtof;
#X obj 338 615 lop~;
#X obj 888 707 hsl 128 15 -1 1 0 0 empty empty empty -2 -8 0 10 #ffe3c6 #000000 #000000 0 1;
#N canvas 1 80 450 300 inv 0;
#X obj 154 69 inlet;
#X obj 154 179 outlet;
#X msg 154 124 1;
#X obj 154 97 t b f;
#X obj 154 151 -;
#X connect 0 0 3 0;
#X connect 2 0 4 0;
#X connect 3 0 2 0;
#X connect 3 1 4 1;
#X connect 4 0 1 0;
#X restore 889 731 pd inv;
#X obj 517 835 *~;
#X obj 464 833 *~;
#X floatatom 886 681 5 0 0 0 - - - 0;
#X obj 885 652 sin;
#X obj 881 379 metro;
#X obj 881 403 bng 19 250 50 0 empty empty empty 0 -10 0 12 #fcfcfc #000000 #000000;
#X obj 936 450 + 1;
#X floatatom 882 498 5 0 0 0 - - - 0;
#X obj 882 521 / 360;
#X obj 882 545 * 6.28319;
#X obj 882 569 * 1;
#X obj 882 337 tgl 19 0 empty empty empty 0 -10 0 12 #fcfcfc #000000 #000000 0 1;
#X msg 1015 54 10, f 4;
#X text 424 262 on and off;
#X text 469 404 note;
#X text 141 464 reverb controls;
#X text 876 309 metro sequencer;
#X text 917 56 global speed;
#X obj 141 153 hsl 128 15 -1 1 0 0 empty empty orbit\ position -2 -8 0 10 #fba606 #000000 #000000 0 1;
#X text 764 127 planet rotation;
#X text 759 138 around sun (days);
#X obj 986 627 /;
#X msg 984 593 686.98;
#X obj 482 486 *~ 0.5;
#X obj 530 773 mtof;
#X obj 529 862 lop~;
#X obj 483 773 mtof;
#X obj 484 861 lop~;
#X text 324 551 lowpass at the note value;
#X text 484 751 lowpass at the note value (remove scratches);
#X obj 1014 22 loadbang;
#X text 363 163 note value;
#X text 568 154 planet position;
#X text 619 170 in orbit;
#X floatatom 186 265 5 0 0 0 - - - 0;
#X text 150 178 planet rotation;
#X text 148 190 around sun (days);
#X floatatom 135 211 20 0 0 0 - - - 0;
#X obj 554 9 inlet;
#X obj 612 7 r planetstart;
#X text 117 245 planet position in orbit;
#X obj 504 913 dac~;
#X obj 89 431 r reverb;
#X text 176 118 JUPITER;
#X msg 532 160 62;
#X msg 741 159 4328.9, f 22;
#X obj 883 450 int;
#X msg 334 162 42;
#X connect 0 0 1 0;
#X connect 1 0 47 0;
#X connect 2 0 21 0;
#X connect 3 0 17 0;
#X connect 3 0 69 0;
#X connect 3 0 68 0;
#X connect 3 0 71 0;
#X connect 3 0 35 0;
#X connect 4 0 19 0;
#X connect 5 0 25 0;
#X connect 5 1 24 0;
#X connect 6 0 5 0;
#X connect 7 0 5 0;
#X connect 8 0 6 0;
#X connect 8 0 9 0;
#X connect 8 0 13 0;
#X connect 9 0 7 0;
#X connect 9 0 10 0;
#X connect 15 0 19 1;
#X connect 16 0 71 0;
#X connect 16 0 69 0;
#X connect 17 0 15 0;
#X connect 17 1 18 0;
#X connect 18 0 19 1;
#X connect 19 0 2 1;
#X connect 20 0 21 1;
#X connect 21 0 5 0;
#X connect 21 0 5 1;
#X connect 22 0 23 0;
#X connect 22 0 25 1;
#X connect 22 0 42 0;
#X connect 23 0 24 1;
#X connect 24 0 49 0;
#X connect 25 0 51 0;
#X connect 27 0 22 0;
#X connect 27 0 26 0;
#X connect 28 0 29 0;
#X connect 29 0 70 0;
#X connect 30 0 70 1;
#X connect 31 0 32 0;
#X connect 32 0 33 0;
#X connect 33 0 34 0;
#X connect 34 0 27 0;
#X connect 35 0 28 0;
#X connect 35 0 68 0;
#X connect 36 0 28 1;
#X connect 45 0 34 1;
#X connect 46 0 45 0;
#X connect 47 0 2 0;
#X connect 48 0 49 1;
#X connect 49 0 65 1;
#X connect 50 0 51 1;
#X connect 51 0 65 0;
#X connect 54 0 36 0;
#X connect 62 0 3 0;
#X connect 63 0 3 0;
#X connect 66 0 8 0;
#X connect 68 0 58 0;
#X connect 68 0 70 1;
#X connect 69 0 45 1;
#X connect 69 0 46 0;
#X connect 69 0 61 0;
#X connect 70 0 30 0;
#X connect 70 0 31 0;
#X connect 71 0 0 0;
#X connect 71 0 20 0;
#X connect 71 0 48 0;
#X connect 71 0 50 0;
#X coords 0 -1 1 1 200 230 1 100 100;
#X restore 266 450 pd jupiter;
#N canvas 700 0 1210 966 saturn 0;
#X obj 481 427 mtof;
#X obj 481 457 osc~;
#X obj 338 583 *~;
#X obj 613 64 tgl 30 0 empty empty planet 0 -10 0 12 #ff8300 #000000 #000000 0 1;
#X obj 160 304 hsl 90 15 0 0.1 0 0 empty empty volume -2 -10 0 10 #feffc6 #000000 #000000 0 1;
#X obj 215 661 freeverb~;
#X msg 100 598 wet \$1;
#X msg 154 598 dry \$1;
#X obj 128 517 hsl 128 15 0 1 0 0 empty empty empty -2 -8 0 10 #c6feff #000000 #000000 0 1;
#N canvas 1 80 450 300 inv 0;
#X obj 154 69 inlet;
#X obj 154 179 outlet;
#X msg 154 124 1;
#X obj 154 97 t b f;
#X obj 154 151 -;
#X connect 0 0 3 0;
#X connect 2 0 4 0;
#X connect 3 0 2 0;
#X connect 3 1 4 1;
#X connect 4 0 1 0;
#X restore 154 571 pd inv;
#X floatatom 212 596 5 0 0 0 - - - 0;
#X text 114 499 dry;
#X text 250 499 wet, f 4;
#X floatatom 112 572 5 0 0 0 - - - 0;
#X text 169 497 Reverb;
#X msg 426 308 0;
#X obj 414 4 loadbang;
#X obj 426 285 select 0 1;
#X msg 458 309 1;
#X obj 506 309 *~;
#X obj 368 584 mtof;
#X obj 338 615 lop~;
#X obj 888 707 hsl 128 15 -1 1 0 0 empty empty empty -2 -8 0 10 #ffe3c6 #000000 #000000 0 1;
#N canvas 1 80 450 300 inv 0;
#X obj 154 69 inlet;
#X obj 154 179 outlet;
#X msg 154 124 1;
#X obj 154 97 t b f;
#X obj 154 151 -;
#X connect 0 0 3 0;
#X connect 2 0 4 0;
#X connect 3 0 2 0;
#X connect 3 1 4 1;
#X connect 4 0 1 0;
#X restore 889 731 pd inv;
#X obj 517 835 *~;
#X obj 464 833 *~;
#X floatatom 886 681 5 0 0 0 - - - 0;
#X obj 885 652 sin;
#X obj 881 379 metro;
#X obj 881 403 bng 19 250 50 0 empty empty empty 0 -10 0 12 #fcfcfc #000000 #000000;
#X obj 936 450 + 1;
#X floatatom 882 498 5 0 0 0 - - - 0;
#X obj 882 521 / 360;
#X obj 882 545 * 6.28319;
#X obj 882 569 * 1;
#X obj 882 337 tgl 19 0 empty empty empty 0 -10 0 12 #fcfcfc #000000 #000000 0 1;
#X msg 1015 54 10, f 4;
#X text 424 262 on and off;
#X text 469 404 note;
#X text 141 464 reverb controls;
#X text 876 309 metro sequencer;
#X text 917 56 global speed;
#X obj 141 153 hsl 128 15 -1 1 0 0 empty empty orbit\ position -2 -8 0 10 #faff00 #000000 #000000 0 1;
#X obj 882 450 int;
#X text 764 127 planet rotation;
#X text 759 138 around sun (days);
#X obj 986 627 /;
#X msg 984 593 686.98;
#X obj 482 486 *~ 0.5;
#X obj 530 773 mtof;
#X obj 529 862 lop~;
#X obj 483 773 mtof;
#X obj 484 861 lop~;
#X text 324 551 lowpass at the note value;
#X text 484 751 lowpass at the note value (remove scratches);
#X obj 1014 22 loadbang;
#X text 363 163 note value;
#X text 568 154 planet position;
#X text 619 170 in orbit;
#X floatatom 186 265 5 0 0 0 - - - 0;
#X text 150 178 planet rotation;
#X text 148 190 around sun (days);
#X floatatom 135 211 20 0 0 0 - - - 0;
#X obj 554 9 inlet;
#X obj 612 7 r planetstart;
#X text 117 245 planet position in orbit;
#X obj 504 913 dac~;
#X obj 89 431 r reverb;
#X text 176 118 SATURN;
#X msg 532 160 116;
#X msg 741 159 10752.9, f 22;
#X msg 334 162 51;
#X connect 0 0 1 0;
#X connect 1 0 48 0;
#X connect 2 0 21 0;
#X connect 3 0 17 0;
#X connect 3 0 70 0;
#X connect 3 0 69 0;
#X connect 3 0 71 0;
#X connect 3 0 35 0;
#X connect 4 0 19 0;
#X connect 5 0 25 0;
#X connect 5 1 24 0;
#X connect 6 0 5 0;
#X connect 7 0 5 0;
#X connect 8 0 6 0;
#X connect 8 0 9 0;
#X connect 8 0 13 0;
#X connect 9 0 7 0;
#X connect 9 0 10 0;
#X connect 15 0 19 1;
#X connect 16 0 71 0;
#X connect 16 0 70 0;
#X connect 17 0 15 0;
#X connect 17 1 18 0;
#X connect 18 0 19 1;
#X connect 19 0 2 1;
#X connect 20 0 21 1;
#X connect 21 0 5 0;
#X connect 21 0 5 1;
#X connect 22 0 23 0;
#X connect 22 0 25 1;
#X connect 22 0 42 0;
#X connect 23 0 24 1;
#X connect 24 0 50 0;
#X connect 25 0 52 0;
#X connect 27 0 22 0;
#X connect 27 0 26 0;
#X connect 28 0 29 0;
#X connect 29 0 43 0;
#X connect 30 0 43 1;
#X connect 31 0 32 0;
#X connect 32 0 33 0;
#X connect 33 0 34 0;
#X connect 34 0 27 0;
#X connect 35 0 28 0;
#X connect 35 0 69 0;
#X connect 36 0 28 1;
#X connect 43 0 30 0;
#X connect 43 0 31 0;
#X connect 46 0 34 1;
#X connect 47 0 46 0;
#X connect 48 0 2 0;
#X connect 49 0 50 1;
#X connect 50 0 66 1;
#X connect 51 0 52 1;
#X connect 52 0 66 0;
#X connect 55 0 36 0;
#X connect 63 0 3 0;
#X connect 64 0 3 0;
#X connect 67 0 8 0;
#X connect 69 0 43 1;
#X connect 69 0 59 0;
#X connect 70 0 46 1;
#X connect 70 0 47 0;
#X connect 70 0 62 0;
#X connect 71 0 0 0;
#X connect 71 0 20 0;
#X connect 71 0 49 0;
#X connect 71 0 51 0;
#X coords 0 -1 1 1 200 230 1 100 100;
#X restore 506 451 pd saturn;
#N canvas 700 0 1210 966 uranus 0;
#X obj 481 427 mtof;
#X obj 481 457 osc~;
#X obj 338 583 *~;
#X obj 613 64 tgl 30 0 empty empty planet 0 -10 0 12 #ff8300 #000000 #000000 0 1;
#X obj 160 304 hsl 90 15 0 0.1 0 0 empty empty volume -2 -10 0 10 #c7c6ff #000000 #000000 0 1;
#X obj 215 661 freeverb~;
#X msg 100 598 wet \$1;
#X msg 154 598 dry \$1;
#X obj 128 517 hsl 128 15 0 1 0 0 empty empty empty -2 -8 0 10 #c6feff #000000 #000000 0 1;
#N canvas 1 80 450 300 inv 0;
#X obj 154 69 inlet;
#X obj 154 179 outlet;
#X msg 154 124 1;
#X obj 154 97 t b f;
#X obj 154 151 -;
#X connect 0 0 3 0;
#X connect 2 0 4 0;
#X connect 3 0 2 0;
#X connect 3 1 4 1;
#X connect 4 0 1 0;
#X restore 154 571 pd inv;
#X floatatom 212 596 5 0 0 0 - - - 0;
#X text 114 499 dry;
#X text 250 499 wet, f 4;
#X floatatom 112 572 5 0 0 0 - - - 0;
#X text 169 497 Reverb;
#X msg 426 308 0;
#X obj 414 4 loadbang;
#X obj 426 285 select 0 1;
#X msg 458 309 1;
#X obj 506 309 *~;
#X obj 368 584 mtof;
#X obj 338 615 lop~;
#X obj 888 707 hsl 128 15 -1 1 0 0 empty empty empty -2 -8 0 10 #ffe3c6 #000000 #000000 0 1;
#N canvas 1 80 450 300 inv 0;
#X obj 154 69 inlet;
#X obj 154 179 outlet;
#X msg 154 124 1;
#X obj 154 97 t b f;
#X obj 154 151 -;
#X connect 0 0 3 0;
#X connect 2 0 4 0;
#X connect 3 0 2 0;
#X connect 3 1 4 1;
#X connect 4 0 1 0;
#X restore 889 731 pd inv;
#X obj 517 835 *~;
#X obj 464 833 *~;
#X floatatom 886 681 5 0 0 0 - - - 0;
#X obj 885 652 sin;
#X obj 881 379 metro;
#X obj 881 403 bng 19 250 50 0 empty empty empty 0 -10 0 12 #fcfcfc #000000 #000000;
#X obj 936 450 + 1;
#X floatatom 882 498 5 0 0 0 - - - 0;
#X obj 882 521 / 360;
#X obj 882 545 * 6.28319;
#X obj 882 569 * 1;
#X obj 882 337 tgl 19 0 empty empty empty 0 -10 0 12 #fcfcfc #000000 #000000 0 1;
#X msg 1015 54 10, f 4;
#X text 424 262 on and off;
#X text 469 404 note;
#X text 141 464 reverb controls;
#X text 876 309 metro sequencer;
#X text 917 56 global speed;
#X obj 141 153 hsl 128 15 -1 1 0 0 empty empty orbit\ position -2 -8 0 10 #0400ff #000000 #000000 0 1;
#X obj 882 450 int;
#X text 764 127 planet rotation;
#X text 759 138 around sun (days);
#X obj 986 627 /;
#X msg 984 593 686.98;
#X obj 482 486 *~ 0.5;
#X obj 530 773 mtof;
#X obj 529 862 lop~;
#X obj 483 773 mtof;
#X obj 484 861 lop~;
#X text 324 551 lowpass at the note value;
#X text 484 751 lowpass at the note value (remove scratches);
#X obj 1014 22 loadbang;
#X text 363 163 note value;
#X text 568 154 planet position;
#X text 619 170 in orbit;
#X floatatom 186 265 5 0 0 0 - - - 0;
#X text 150 178 planet rotation;
#X text 148 190 around sun (days);
#X floatatom 135 211 20 0 0 0 - - - 0;
#X obj 554 9 inlet;
#X obj 612 7 r planetstart;
#X text 117 245 planet position in orbit;
#X obj 504 913 dac~;
#X obj 89 431 r reverb;
#X text 176 118 URANUS;
#X msg 532 160 34;
#X msg 741 159 30663.7, f 22;
#X msg 334 162 66;
#X connect 0 0 1 0;
#X connect 1 0 48 0;
#X connect 2 0 21 0;
#X connect 3 0 17 0;
#X connect 3 0 70 0;
#X connect 3 0 69 0;
#X connect 3 0 71 0;
#X connect 3 0 35 0;
#X connect 4 0 19 0;
#X connect 5 0 25 0;
#X connect 5 1 24 0;
#X connect 6 0 5 0;
#X connect 7 0 5 0;
#X connect 8 0 6 0;
#X connect 8 0 9 0;
#X connect 8 0 13 0;
#X connect 9 0 7 0;
#X connect 9 0 10 0;
#X connect 15 0 19 1;
#X connect 16 0 71 0;
#X connect 16 0 70 0;
#X connect 17 0 15 0;
#X connect 17 1 18 0;
#X connect 18 0 19 1;
#X connect 19 0 2 1;
#X connect 20 0 21 1;
#X connect 21 0 5 0;
#X connect 21 0 5 1;
#X connect 22 0 23 0;
#X connect 22 0 25 1;
#X connect 22 0 42 0;
#X connect 23 0 24 1;
#X connect 24 0 50 0;
#X connect 25 0 52 0;
#X connect 27 0 22 0;
#X connect 27 0 26 0;
#X connect 28 0 29 0;
#X connect 29 0 43 0;
#X connect 30 0 43 1;
#X connect 31 0 32 0;
#X connect 32 0 33 0;
#X connect 33 0 34 0;
#X connect 34 0 27 0;
#X connect 35 0 28 0;
#X connect 35 0 69 0;
#X connect 36 0 28 1;
#X connect 43 0 30 0;
#X connect 43 0 31 0;
#X connect 46 0 34 1;
#X connect 47 0 46 0;
#X connect 48 0 2 0;
#X connect 49 0 50 1;
#X connect 50 0 66 1;
#X connect 51 0 52 1;
#X connect 52 0 66 0;
#X connect 55 0 36 0;
#X connect 63 0 3 0;
#X connect 64 0 3 0;
#X connect 67 0 8 0;
#X connect 69 0 43 1;
#X connect 69 0 59 0;
#X connect 70 0 46 1;
#X connect 70 0 47 0;
#X connect 70 0 62 0;
#X connect 71 0 0 0;
#X connect 71 0 20 0;
#X connect 71 0 49 0;
#X connect 71 0 51 0;
#X coords 0 -1 1 1 200 230 1 100 100;
#X restore 736 449 pd uranus;
#N canvas 700 0 1210 966 neptune 0;
#X obj 481 427 mtof;
#X obj 481 457 osc~;
#X obj 338 583 *~;
#X obj 613 64 tgl 30 0 empty empty planet 0 -10 0 12 #ff8300 #000000 #000000 0 1;
#X obj 160 304 hsl 90 15 0 0.1 0 0 empty empty volume -2 -10 0 10 #e3c6ff #000000 #000000 0 1;
#X obj 215 661 freeverb~;
#X msg 100 598 wet \$1;
#X msg 154 598 dry \$1;
#X obj 128 517 hsl 128 15 0 1 0 0 empty empty empty -2 -8 0 10 #c6feff #000000 #000000 0 1;
#N canvas 1 80 450 300 inv 0;
#X obj 154 69 inlet;
#X obj 154 179 outlet;
#X msg 154 124 1;
#X obj 154 97 t b f;
#X obj 154 151 -;
#X connect 0 0 3 0;
#X connect 2 0 4 0;
#X connect 3 0 2 0;
#X connect 3 1 4 1;
#X connect 4 0 1 0;
#X restore 154 571 pd inv;
#X floatatom 212 596 5 0 0 0 - - - 0;
#X text 114 499 dry;
#X text 250 499 wet, f 4;
#X floatatom 112 572 5 0 0 0 - - - 0;
#X text 169 497 Reverb;
#X msg 426 308 0;
#X obj 414 4 loadbang;
#X obj 426 285 select 0 1;
#X msg 458 309 1;
#X obj 506 309 *~;
#X obj 368 584 mtof;
#X obj 338 615 lop~;
#X obj 888 707 hsl 128 15 -1 1 0 0 empty empty empty -2 -8 0 10 #ffe3c6 #000000 #000000 0 1;
#N canvas 1 80 450 300 inv 0;
#X obj 154 69 inlet;
#X obj 154 179 outlet;
#X msg 154 124 1;
#X obj 154 97 t b f;
#X obj 154 151 -;
#X connect 0 0 3 0;
#X connect 2 0 4 0;
#X connect 3 0 2 0;
#X connect 3 1 4 1;
#X connect 4 0 1 0;
#X restore 889 731 pd inv;
#X obj 517 835 *~;
#X obj 464 833 *~;
#X floatatom 886 681 5 0 0 0 - - - 0;
#X obj 885 652 sin;
#X obj 881 379 metro;
#X obj 881 403 bng 19 250 50 0 empty empty empty 0 -10 0 12 #fcfcfc #000000 #000000;
#X obj 936 450 + 1;
#X floatatom 882 498 5 0 0 0 - - - 0;
#X obj 882 521 / 360;
#X obj 882 545 * 6.28319;
#X obj 882 569 * 1;
#X obj 882 337 tgl 19 0 empty empty empty 0 -10 0 12 #fcfcfc #000000 #000000 0 1;
#X msg 1015 54 10, f 4;
#X text 424 262 on and off;
#X text 469 404 note;
#X text 141 464 reverb controls;
#X text 876 309 metro sequencer;
#X text 917 56 global speed;
#X obj 141 153 hsl 128 15 -1 1 0 0 empty empty orbit\ position -2 -8 0 10 #9c00ff #000000 #000000 0 1;
#X obj 882 450 int;
#X text 764 127 planet rotation;
#X text 759 138 around sun (days);
#X obj 986 627 /;
#X msg 984 593 686.98;
#X obj 482 486 *~ 0.5;
#X obj 530 773 mtof;
#X obj 529 862 lop~;
#X obj 483 773 mtof;
#X obj 484 861 lop~;
#X text 324 551 lowpass at the note value;
#X text 484 751 lowpass at the note value (remove scratches);
#X obj 1014 22 loadbang;
#X text 363 163 note value;
#X text 568 154 planet position;
#X text 619 170 in orbit;
#X floatatom 186 265 5 0 0 0 - - - 0;
#X text 150 178 planet rotation;
#X text 148 190 around sun (days);
#X floatatom 135 211 20 0 0 0 - - - 0;
#X obj 554 9 inlet;
#X obj 612 7 r planetstart;
#X text 117 245 planet position in orbit;
#X obj 504 913 dac~;
#X obj 89 431 r reverb;
#X text 176 118 NEPTUNE;
#X msg 532 160 88;
#X msg 741 159 60148.4, f 22;
#X msg 334 162 71;
#X connect 0 0 1 0;
#X connect 1 0 48 0;
#X connect 2 0 21 0;
#X connect 3 0 17 0;
#X connect 3 0 70 0;
#X connect 3 0 69 0;
#X connect 3 0 71 0;
#X connect 3 0 35 0;
#X connect 4 0 19 0;
#X connect 5 0 25 0;
#X connect 5 1 24 0;
#X connect 6 0 5 0;
#X connect 7 0 5 0;
#X connect 8 0 6 0;
#X connect 8 0 9 0;
#X connect 8 0 13 0;
#X connect 9 0 7 0;
#X connect 9 0 10 0;
#X connect 15 0 19 1;
#X connect 16 0 71 0;
#X connect 16 0 70 0;
#X connect 17 0 15 0;
#X connect 17 1 18 0;
#X connect 18 0 19 1;
#X connect 19 0 2 1;
#X connect 20 0 21 1;
#X connect 21 0 5 0;
#X connect 21 0 5 1;
#X connect 22 0 23 0;
#X connect 22 0 25 1;
#X connect 22 0 42 0;
#X connect 23 0 24 1;
#X connect 24 0 50 0;
#X connect 25 0 52 0;
#X connect 27 0 22 0;
#X connect 27 0 26 0;
#X connect 28 0 29 0;
#X connect 29 0 43 0;
#X connect 30 0 43 1;
#X connect 31 0 32 0;
#X connect 32 0 33 0;
#X connect 33 0 34 0;
#X connect 34 0 27 0;
#X connect 35 0 28 0;
#X connect 35 0 69 0;
#X connect 36 0 28 1;
#X connect 43 0 30 0;
#X connect 43 0 31 0;
#X connect 46 0 34 1;
#X connect 47 0 46 0;
#X connect 48 0 2 0;
#X connect 49 0 50 1;
#X connect 50 0 66 1;
#X connect 51 0 52 1;
#X connect 52 0 66 0;
#X connect 55 0 36 0;
#X connect 63 0 3 0;
#X connect 64 0 3 0;
#X connect 67 0 8 0;
#X connect 69 0 43 1;
#X connect 69 0 59 0;
#X connect 70 0 46 1;
#X connect 70 0 47 0;
#X connect 70 0 62 0;
#X connect 71 0 0 0;
#X connect 71 0 20 0;
#X connect 71 0 49 0;
#X connect 71 0 51 0;
#X coords 0 -1 1 1 200 230 1 100 100;
#X restore 967 449 pd neptune;
#X obj 59 326 hsl 128 15 0 1 0 0 empty empty empty -2 -8 0 10 #c6feff #000000 #000000 0 1;
#X text 47 308 dry;
#X text 183 308 wet, f 4;
#X text 102 306 Reverb;
#X obj 56 346 s reverb;
#X connect 1 0 0 0;
#X connect 10 0 14 0;
