#N canvas 240 95 1533 770 12;
#X obj 55 58 s global_speed;
#X obj 46 119 bng 19 250 50 0 empty empty empty 0 -10 0 12 #fcfcfc #000000 #000000;
#X obj 61 154 s start;
#X obj 41 283 *~ 0.5;
#X obj 36 351 dac~;
#X msg 41 31 20;
#X obj 41 223 r~ p_sound_l;
#X obj 61 315 *~ 0.5;
#X obj 60 252 r~ p_sound_r;
#N canvas 306 1271 1920 976 mercury 1;
#X obj 624 220 mtof;
#X obj 624 250 osc~;
#X obj 537 530 *~;
#X obj 492 89 tgl 30 0 empty empty planet 0 -10 0 12 #ff8300 #000000 #000000 0 1;
#X obj 136 267 hsl 128 20 0 0.1 0 0 empty empty volume -2 -10 0 12 #e3c6ff #000000 #000000 0 1;
#X obj 828 676 freeverb~;
#X msg 819 626 wet \$1;
#X msg 873 626 dry \$1;
#X obj 837 551 hsl 128 15 0 1 0 0 empty empty empty -2 -8 0 10 #c6feff #000000 #000000 0 1;
#N canvas 1 80 450 300 inv 0;
#X obj 154 69 inlet;
#X obj 154 179 outlet;
#X msg 154 124 1;
#X obj 154 97 t b f;
#X obj 154 151 -;
#X connect 0 0 3 0;
#X connect 2 0 4 0;
#X connect 3 0 2 0;
#X connect 3 1 4 1;
#X connect 4 0 1 0;
#X restore 873 599 pd inv;
#X floatatom 925 599 5 0 0 0 - - - 0;
#X text 823 533 dry;
#X text 954 531 wet, f 4;
#X floatatom 831 600 5 0 0 0 - - - 0;
#X text 878 531 Reverb;
#X msg 483 239 0;
#X obj 686 24 loadbang;
#X obj 483 216 select 0 1;
#X msg 515 240 1;
#X obj 494 296 *~;
#X obj 567 531 mtof;
#X obj 537 562 lop~;
#X obj 1318 523 hsl 128 15 -1 1 0 0 empty empty empty -2 -8 0 10 #ffe3c6 #000000 #000000 0 1;
#N canvas 1 80 450 300 inv 0;
#X obj 154 69 inlet;
#X obj 154 179 outlet;
#X msg 154 124 1;
#X obj 154 97 t b f;
#X obj 154 151 -;
#X connect 0 0 3 0;
#X connect 2 0 4 0;
#X connect 3 0 2 0;
#X connect 3 1 4 1;
#X connect 4 0 1 0;
#X restore 1316 542 pd inv;
#X obj 887 704 *~;
#X obj 828 703 *~;
#X floatatom 1316 497 5 0 0 0 - - - 0;
#X obj 1315 474 sin;
#X obj 1315 215 metro;
#X obj 1315 239 bng 19 250 50 0 empty empty empty 0 -10 0 12 #fcfcfc #000000 #000000;
#X obj 1370 275 + 1;
#X floatatom 1316 323 5 0 0 0 - - - 0;
#X obj 1316 346 / 360;
#X obj 1316 370 * 6.28319;
#X obj 1316 452 * 1;
#X obj 1315 191 tgl 19 0 empty empty empty 0 -10 0 12 #fcfcfc #000000 #000000 0 1;
#X msg 1324 84 10, f 4;
#X text 481 193 on and off;
#X text 622 192 note;
#X text 843 447 reverb controls;
#X text 1284 146 metro sequencer;
#X text 1185 76 global speed;
#X obj 137 148 hsl 128 20 -1 1 0 0 empty empty MERCURY 0 -10 0 20 #e3c6ff #9c00ff #9c00ff 0 1;
#X msg 808 85 90;
#X obj 1316 275 int;
#X text 962 48 planet rotation;
#X text 957 59 around sun (days);
#X obj 1251 489 /;
#X msg 1249 455 686.98;
#X msg 939 80 87, f 22;
#X obj 625 279 *~ 0.5;
#X obj 743 797 mtof;
#X obj 745 836 lop~;
#X obj 696 797 mtof;
#X obj 698 835 lop~;
#X text 537 502 lowpass at the note value;
#X text 697 775 lowpass at the note value (remove scratches);
#X obj 1316 299 % 360;
#X obj 1324 60 loadbang;
#X text 636 64 note value;
#X text 771 53 planet position;
#X text 812 69 in orbit;
#X obj 493 49 inlet;
#X obj 1288 40 inlet;
#X text 493 27 start;
#X floatatom 787 549 5 0 0 0 - - - 0;
#X msg 835 503 0.818;
#X obj 836 479 loadbang;
#X text 717 951 outlet audio;
#X text 1380 463 speed of orbit;
#X floatatom 107 196 5 0 0 2 planet\ position\ in\ orbit - - 0;
#X floatatom 107 230 5 0 0 2 number\ of\ days\ to\ orbit\ sun - - 0;
#X msg 622 82 60;
#X obj 697 927 outlet~;
#X obj 759 928 outlet~;
#X connect 0 0 1 0;
#X connect 1 0 50 0;
#X connect 2 0 21 0;
#X connect 3 0 17 0;
#X connect 3 0 49 0;
#X connect 3 0 43 0;
#X connect 3 0 72 0;
#X connect 3 0 35 0;
#X connect 4 0 19 0;
#X connect 5 0 25 0;
#X connect 5 1 24 0;
#X connect 6 0 5 0;
#X connect 7 0 5 0;
#X connect 8 0 6 0;
#X connect 8 0 9 0;
#X connect 8 0 13 0;
#X connect 8 0 65 0;
#X connect 9 0 7 0;
#X connect 9 0 10 0;
#X connect 15 0 19 1;
#X connect 16 0 72 0;
#X connect 16 0 49 0;
#X connect 17 0 15 0;
#X connect 17 1 18 0;
#X connect 18 0 19 1;
#X connect 19 0 2 1;
#X connect 20 0 21 1;
#X connect 21 0 5 0;
#X connect 21 0 5 1;
#X connect 22 0 23 0;
#X connect 22 0 25 1;
#X connect 22 0 42 0;
#X connect 23 0 24 1;
#X connect 24 0 52 0;
#X connect 25 0 54 0;
#X connect 27 0 22 0;
#X connect 27 0 26 0;
#X connect 28 0 29 0;
#X connect 29 0 44 0;
#X connect 30 0 44 1;
#X connect 31 0 32 0;
#X connect 32 0 33 0;
#X connect 33 0 34 0;
#X connect 34 0 27 0;
#X connect 35 0 28 0;
#X connect 35 0 43 0;
#X connect 36 0 28 1;
#X connect 43 0 44 1;
#X connect 43 0 70 0;
#X connect 44 0 30 0;
#X connect 44 0 57 0;
#X connect 47 0 34 1;
#X connect 48 0 47 0;
#X connect 49 0 47 1;
#X connect 49 0 48 0;
#X connect 49 0 71 0;
#X connect 50 0 2 0;
#X connect 51 0 52 1;
#X connect 52 0 74 0;
#X connect 53 0 54 1;
#X connect 54 0 73 0;
#X connect 57 0 31 0;
#X connect 58 0 36 0;
#X connect 62 0 3 0;
#X connect 63 0 35 0;
#X connect 66 0 8 0;
#X connect 67 0 66 0;
#X connect 72 0 0 0;
#X connect 72 0 20 0;
#X connect 72 0 51 0;
#X connect 72 0 53 0;
#X coords 0 -1 1 1 200 201 1 100 100;
#X restore 273 142 pd mercury;
#X obj 273 117 r start;
#X obj 370 118 r global_speed;
#X obj 273 354 s~ p_sound_l;
#X obj 385 355 s~ p_sound_r;
#X connect 1 0 2 0;
#X connect 3 0 4 0;
#X connect 5 0 0 0;
#X connect 6 0 3 0;
#X connect 7 0 4 1;
#X connect 8 0 7 0;
#X connect 9 0 12 0;
#X connect 9 1 13 0;
#X connect 10 0 9 0;
#X connect 11 0 9 1;
