#N canvas 11 24 1533 770 12;
#N canvas 700 0 1210 966 sun 1;
#X obj 341 188 mtof;
#X obj 321 251 osc~;
#X obj 363 228 * 1.015;
#X obj 463 221 * 0.503;
#X obj 363 250 osc~;
#X obj 463 247 osc~;
#X obj 323 501 *~;
#X obj 301 697 dac~;
#X obj 115 198 hsl 90 19 0 1 0 0 empty empty mid\ note -2 -10 0 12 #fcfcfc #000000 #000000 0 1;
#X msg 159 153 56;
#X obj 111 143 tgl 30 0 empty empty start\ sun 0 -10 0 12 #ff8300 #000000 #000000 0 1;
#X obj 114 246 hsl 90 19 0 1 0 0 empty empty bass\ note -2 -10 0 12 #fcfcfc #000000 #000000 0 1;
#X obj 344 300 *~;
#X obj 458 301 *~;
#X text 187 153 note value;
#X obj 117 364 hsl 90 19 0 0.1 0 0 empty empty volume -2 -10 0 12 #ffe3c6 #000000 #000000 0 1;
#X text 374 304 mid note;
#X text 490 300 base note;
#X obj 288 645 freeverb~;
#X msg 151 583 wet \$1;
#X msg 205 583 dry \$1;
#X obj 117 317 hsl 128 15 0 1 0 0 empty empty empty -2 -8 0 10 #ffe3c6 #000000 #000000 0 1;
#N canvas 1 80 450 300 inv 0;
#X obj 154 69 inlet;
#X obj 154 179 outlet;
#X msg 154 124 1;
#X obj 154 97 t b f;
#X obj 154 151 -;
#X connect 0 0 3 0;
#X connect 2 0 4 0;
#X connect 3 0 2 0;
#X connect 3 1 4 1;
#X connect 4 0 1 0;
#X restore 205 556 pd inv;
#X floatatom 263 581 5 0 0 0 - - - 0;
#X text 103 299 dry;
#X text 234 301 wet, f 4;
#X floatatom 163 557 5 0 0 0 - - - 0;
#X text 163 298 Reverb;
#X msg 36 466 0;
#X obj 184 67 loadbang;
#X obj 36 443 select 0 1;
#X msg 68 467 1;
#X obj 116 467 *~;
#X obj 366 520 mtof;
#X obj 320 541 lop~;
#X connect 0 0 1 0;
#X connect 0 0 2 0;
#X connect 0 0 3 0;
#X connect 1 0 12 0;
#X connect 2 0 4 0;
#X connect 3 0 5 0;
#X connect 4 0 12 0;
#X connect 5 0 13 0;
#X connect 6 0 34 0;
#X connect 8 0 12 1;
#X connect 9 0 0 0;
#X connect 9 0 33 0;
#X connect 10 0 30 0;
#X connect 11 0 13 1;
#X connect 12 0 6 0;
#X connect 13 0 6 0;
#X connect 15 0 32 0;
#X connect 18 0 7 0;
#X connect 18 1 7 1;
#X connect 19 0 18 0;
#X connect 20 0 18 0;
#X connect 21 0 19 0;
#X connect 21 0 22 0;
#X connect 21 0 26 0;
#X connect 22 0 20 0;
#X connect 22 0 23 0;
#X connect 28 0 32 1;
#X connect 29 0 9 0;
#X connect 30 0 28 0;
#X connect 30 1 31 0;
#X connect 31 0 32 1;
#X connect 32 0 6 1;
#X connect 33 0 34 1;
#X connect 34 0 18 0;
#X connect 34 0 18 1;
#X coords 0 -1 1 1 200 300 1 100 100;
#X restore 185 93 pd sun;
