#N canvas 4 25 1680 963 12;
#N canvas 0 22 450 278 (subpatch) 0;
#X array steps 16 float 3;
#A 0 4 2 4 2 5 2 4 5 2 5 4 5 5 4 2 5;
#X coords 0 7 16 0 200 200 1 0 0;
#X restore 185 33 graph;
#X obj 88 265 tgl 19 0 empty empty empty 0 -10 0 12 #ffc7c6 #000000 #000000 0 1;
#X obj 91 337 hradio 19 1 0 16 empty empty empty 0 -10 0 12 #fcfcfc #000000 #000000 0;
#X obj 105 492 array get steps;
#X msg 156 463 1;
#X floatatom 105 522 5 0 0 0 - - - 0;
#X obj 105 544 + 0.5;
#X obj 105 567 int;
#X floatatom 105 589 5 0 0 0 - - - 0;
#X text 206 263 BPM;
#X text 111 266 start;
#X text 13 307 counter;
#N canvas 0 22 450 278 (subpatch) 0;
#X array note_guide 7 float 3;
#A 0 0 1 2 3 4 5 6;
#X coords 0 7 7 0 80 200 1 0 0;
#X restore 90 35 graph;
#X text 89 216 k;
#X text 101 186 s;
#X text 112 156 h;
#X text 116 126 ks;
#X text 128 99 kh;
#X text 139 70 sh;
#X text 144 40 ksh;
#X text 39 471 turn into int;
#X obj 120 620 select 0 1 2 3 4 5 6;
#N canvas 407 215 450 300 counter 0;
#X obj 94 93 t f b;
#X msg 149 91 tempo \$1 permin;
#X obj 94 120 metro 0.25 120 permin;
#X msg 131 149 0;
#X text 159 149 reset;
#X obj 100 181 f;
#X obj 99 209 % 16;
#X obj 138 181 + 1;
#X text 25 90 counter;
#X obj 96 25 inlet;
#X obj 97 56 tgl 19 0 empty empty empty 0 -10 0 12 #fcfcfc #000000 #000000 0 1;
#X obj 154 26 inlet;
#X floatatom 151 58 5 0 0 0 - - - 0;
#X text 201 61 BPM;
#X obj 99 233 outlet;
#X connect 0 0 2 0;
#X connect 0 1 3 0;
#X connect 1 0 2 0;
#X connect 2 0 5 0;
#X connect 3 0 5 1;
#X connect 5 0 7 0;
#X connect 5 0 6 0;
#X connect 6 0 14 0;
#X connect 7 0 5 1;
#X connect 9 0 10 0;
#X connect 10 0 0 0;
#X connect 11 0 12 0;
#X connect 12 0 1 0;
#X restore 91 300 pd counter;
#X obj 173 799 +~;
#X obj 162 874 dac~;
#X obj 472 292 hsl 162 19 0 1 0 0 empty empty empty -2 -10 0 12 #c6ffc7 #000000 #000000 0 1;
#X obj 471 325 hsl 162 19 0 1 0 0 empty empty empty -2 -10 0 12 #c6ffc7 #000000 #000000 0 1;
#X obj 471 352 hsl 162 19 0 1 0 0 empty empty empty -2 -10 0 12 #c6ffc7 #000000 #000000 0 1;
#X text 641 295 kick vol;
#X text 641 325 snare vol;
#X text 644 355 hat vol;
#X obj 475 397 hsl 162 19 0 1 0 0 empty empty empty -2 -10 0 12 #ffc7c6 #000000 #000000 0 1;
#X text 646 396 master vol;
#X obj 173 823 *~;
#X msg 62 665 open kick.wav \, 1;
#X obj 62 689 readsf~;
#X obj 62 713 *~;
#X obj 204 689 readsf~;
#X obj 204 713 *~;
#X obj 344 689 readsf~;
#X obj 344 713 *~;
#X msg 204 665 open snare.wav \, 1;
#X msg 344 665 open hat.wav \, 1;
#X floatatom 173 301 5 0 0 0 - - - 0;
#X msg 168 263 110;
#X connect 1 0 22 0;
#X connect 2 0 3 0;
#X connect 3 0 5 0;
#X connect 4 0 3 1;
#X connect 5 0 6 0;
#X connect 6 0 7 0;
#X connect 7 0 8 0;
#X connect 8 0 21 0;
#X connect 21 0 34 0;
#X connect 21 1 41 0;
#X connect 21 2 42 0;
#X connect 21 3 34 0;
#X connect 21 3 41 0;
#X connect 21 4 34 0;
#X connect 21 4 42 0;
#X connect 21 5 41 0;
#X connect 21 5 42 0;
#X connect 21 6 34 0;
#X connect 21 6 41 0;
#X connect 21 6 42 0;
#X connect 22 0 2 0;
#X connect 22 0 43 0;
#X connect 23 0 33 0;
#X connect 25 0 36 1;
#X connect 26 0 38 1;
#X connect 27 0 40 1;
#X connect 31 0 33 1;
#X connect 33 0 24 0;
#X connect 33 0 24 1;
#X connect 34 0 35 0;
#X connect 35 0 36 0;
#X connect 36 0 23 0;
#X connect 37 0 38 0;
#X connect 38 0 23 0;
#X connect 39 0 40 0;
#X connect 40 0 23 0;
#X connect 41 0 37 0;
#X connect 42 0 39 0;
#X connect 44 0 22 1;
