#N canvas 0 25 803 908 12;
#N canvas 0 50 450 250 (subpatch) 0;
#X array soundData 52992 float 2;
#X coords 0 1 52992 -1 200 140 1 0 0;
#X restore 156 43 graph;
#N canvas 49 363 710 432 record 0;
#X obj 105 378 writesf~;
#X obj 34 281 adc~;
#X msg 214 273 stop;
#X obj 36 309 *~ 5;
#X obj 113 148 bng 30 250 50 0 empty empty start\ rec 0 -10 0 12 #c6ffc7 #000000 #000000;
#X obj 113 211 bng 30 250 50 0 empty empty stop\ rec 0 -10 0 12 #ffc7c6 #000000 #000000;
#X msg 100 309 open recording.wav \, start;
#X connect 1 0 3 0;
#X connect 2 0 0 0;
#X connect 3 0 0 0;
#X connect 4 0 6 0;
#X connect 5 0 2 0;
#X connect 6 0 0 0;
#X coords 0 -1 1 1 100 150 1 100 100;
#X restore 33 33 pd record;
#X text 148 191 (will not show until playback);
#N canvas 664 69 1016 799 playback 0;
#X obj 116 386 soundfiler;
#X floatatom 116 416 11 0 0 1 number\ of\ samples - - 0;
#X obj 117 489 phasor~;
#X obj 118 534 *~;
#X obj 119 559 tabread4~ soundData;
#X obj 115 451 expr 44100/$f1;
#X msg 38 424 0;
#X floatatom 110 227 5 0 0 1 pitch/speech\ change - - 0;
#X obj 286 602 rev1~;
#X floatatom 110 253 5 0 0 1 reverb\ amount - - 0;
#X obj 110 650 dac~;
#X obj 112 196 hsl 162 19 0 2 0 0 empty empty volume -2 -10 0 12 #feffc6 #000000 #000000 0 1;
#X msg 116 351 read -resize recording.wav soundData;
#X obj 108 145 tgl 30 0 empty empty toggle\ playback 0 -10 0 12 #feffc6 #000000 #000000 0 1;
#X obj 116 313 select 1 0;
#X obj 119 592 *~;
#X connect 0 0 1 0;
#X connect 1 0 5 0;
#X connect 1 0 3 1;
#X connect 2 0 3 0;
#X connect 3 0 4 0;
#X connect 4 0 15 0;
#X connect 5 0 2 0;
#X connect 6 0 2 0;
#X connect 7 0 2 0;
#X connect 8 0 10 1;
#X connect 8 0 10 0;
#X connect 9 0 8 1;
#X connect 11 0 15 1;
#X connect 12 0 0 0;
#X connect 13 0 14 0;
#X connect 14 0 12 0;
#X connect 14 1 6 0;
#X connect 15 0 10 0;
#X connect 15 0 10 1;
#X connect 15 0 8 0;
#X coords 0 -1 1 1 200 180 1 100 100;
#X restore 380 26 pd playback;
