#N canvas 0 25 1680 908 12;
#N canvas 1001 29 644 499 sequencer 0;
#X text 243 31 number in sequence (1-8);
#X obj 148 54 sel 0 1 2 3 4 5 6 7;
#X obj 51 180 f;
#X obj 92 180 f;
#X obj 133 180 f;
#X obj 174 180 f;
#X obj 228 180 f;
#X obj 269 180 f;
#X obj 312 180 f;
#X obj 353 180 f;
#X obj 206 268 f;
#X floatatom 262 324 5 0 0 0 - - - 0;
#X text 304 311 volume control;
#X text 72 323 sound input;
#X obj 212 379 *~;
#X msg 304 290 0;
#X obj 212 401 s~ audioOut_ns;
#X obj 148 32 r trigger_ns;
#X obj 164 324 inlet~;
#X obj 113 117 tgl 19 0 empty empty empty 0 -10 0 12 #fcfcfc #000000 #000000 0 1;
#X obj 139 117 tgl 19 0 empty empty empty 0 -10 0 12 #fcfcfc #000000 #000000 0 1;
#X obj 164 117 tgl 19 0 empty empty empty 0 -10 0 12 #fcfcfc #000000 #000000 0 1;
#X obj 190 117 tgl 19 0 empty empty empty 0 -10 0 12 #fcfcfc #000000 #000000 0 1;
#X obj 221 117 tgl 19 0 empty empty empty 0 -10 0 12 #fcfcfc #000000 #000000 0 1;
#X obj 247 117 tgl 19 0 empty empty empty 0 -10 0 12 #fcfcfc #000000 #000000 0 1;
#X obj 272 117 tgl 19 0 empty empty empty 0 -10 0 12 #fcfcfc #000000 #000000 0 1;
#X obj 298 117 tgl 19 0 empty empty empty 0 -10 0 12 #fcfcfc #000000 #000000 0 1;
#X obj 304 268 r turnoff_ns;
#X connect 1 0 2 0;
#X connect 1 1 3 0;
#X connect 1 2 4 0;
#X connect 1 3 5 0;
#X connect 1 4 6 0;
#X connect 1 5 7 0;
#X connect 1 6 8 0;
#X connect 1 7 9 0;
#X connect 2 0 10 0;
#X connect 3 0 10 0;
#X connect 4 0 10 0;
#X connect 5 0 10 0;
#X connect 6 0 10 0;
#X connect 7 0 10 0;
#X connect 8 0 10 0;
#X connect 9 0 10 0;
#X connect 10 0 11 0;
#X connect 11 0 14 1;
#X connect 14 0 16 0;
#X connect 15 0 11 0;
#X connect 17 0 1 0;
#X connect 18 0 14 0;
#X connect 19 0 2 1;
#X connect 20 0 3 1;
#X connect 21 0 4 1;
#X connect 22 0 5 1;
#X connect 23 0 6 1;
#X connect 24 0 7 1;
#X connect 25 0 8 1;
#X connect 26 0 9 1;
#X connect 27 0 15 0;
#X coords 0 -1 1 1 230 50 1 100 100;
#X restore 414 203 pd sequencer;
#N canvas 516 344 715 500 metronomeCounter 0;
#X floatatom 244 163 5 0 0 0 beat\ length - - 0;
#X obj 111 297 f;
#X obj 180 296 + 1;
#X obj 111 320 % 8;
#X obj 111 274 metro;
#X obj 108 189 hradio 19 1 0 8 empty empty empty 0 -10 0 12 #ffffff #000000 #000000 0;
#X obj 225 36 loadbang;
#X msg 225 59 150;
#X obj 108 126 tgl 50 0 empty empty ON 55 28 0 20 #ffc7c6 #000000 #000000 0 1;
#X obj 317 106 select 0;
#X obj 319 150 bng 19 250 50 0 empty empty empty 0 -10 0 12 #fcfcfc #000000 #000000;
#X obj 379 236 s turnoff_ns;
#X obj 111 343 s trigger_ns;
#X msg 320 237 0;
#X obj 379 209 delay 50;
#X connect 0 0 4 1;
#X connect 1 0 2 0;
#X connect 1 0 3 0;
#X connect 2 0 1 1;
#X connect 3 0 5 0;
#X connect 3 0 12 0;
#X connect 4 0 1 0;
#X connect 6 0 7 0;
#X connect 7 0 0 0;
#X connect 8 0 4 0;
#X connect 8 0 9 0;
#X connect 9 0 10 0;
#X connect 10 0 13 0;
#X connect 10 0 14 0;
#X connect 13 0 1 0;
#X connect 14 0 11 0;
#X coords 0 -1 1 1 200 120 1 100 100;
#X restore 27 21 pd metronomeCounter;
#X obj 27 436 dac~;
#X obj 32 401 *~;
#X obj 81 407 hsl 162 19 0 1 0 0 empty empty Volume -2 -10 0 12 #ffc7c6 #000000 #000000 0 1;
#X obj 414 174 osc~ 440;
#X obj 33 303 r~ audioOut_ns;
#X text 413 17 NOTE SEQUENCER;
#X text 412 86 Any sounding input can be put into the sequencer block.;
#X text 24 195 (r~ audioOut_ns recieves all;
#X text 26 216 sequencer outputs);
#X text 25 165 Customize audio output below:;
#X text 412 63 Copy and paste below example block for as many items to sequence., f 74;
#X text 412 108 Use the toggles to turn the beats on.;
#X connect 3 0 2 0;
#X connect 3 0 2 1;
#X connect 4 0 3 1;
#X connect 5 0 0 0;
#X connect 6 0 3 0;
