#N canvas 0 25 1680 908 12;
#N canvas 266 25 1414 908 kick 0;
#X floatatom 217 149 5 0 0 0 Kick\ Frequency - - 0;
#X obj 233 64 s freq;
#X obj 139 665 r trigger;
#X obj 1059 367 osc~;
#X obj 122 195 vsl 19 162 0 1 0 0 empty empty volume 0 -9 0 12 #feffc6 #000000 #000000 0 1;
#X obj 29 372 s volume;
#X obj 1059 398 *~;
#X obj 180 195 vsl 19 162 20 100 0 0 empty empty attack 0 -9 0 12 #ffc7c6 #000000 #000000 0 1;
#X floatatom 180 372 5 0 0 0 - - - 0;
#X listbox 255 742 61 0 0 0 - - - 0;
#X obj 790 193 s trigger;
#X obj 239 195 vsl 19 162 0 0.2 0 0 empty empty decay\ val 0 -9 0 12 #ffc7c6 #000000 #000000 0 1;
#X floatatom 239 372 5 0 0 0 - - - 0;
#X obj 309 195 vsl 19 162 20 100 0 0 empty empty decay 0 -9 0 12 #ffc7c6 #000000 #000000 0 1;
#X floatatom 309 372 5 0 0 0 - - - 0;
#X obj 373 195 vsl 19 162 20 200 0 0 empty empty sustain 0 -9 0 12 #ffc7c6 #000000 #000000 0 1;
#X floatatom 373 372 5 0 0 0 - - - 0;
#X obj 439 195 vsl 19 162 20 100 0 0 empty empty release 0 -9 0 12 #ffc7c6 #000000 #000000 0 1;
#X floatatom 439 372 5 0 0 0 - - - 0;
#X obj 1109 557 r volume;
#X obj 1058 589 *~;
#X obj 139 696 bng 19 250 50 0 empty empty empty 0 -10 0 12 #fcfcfc #000000 #000000;
#X obj 213 808 vline~;
#X floatatom 1109 588 5 0 0 0 - - - 0;
#X obj 392 640 +;
#X text 480 812 1 - attack time 2 - decay val 3 - decay time 4 - sus time 5 - rel time 6 - at+dec 7 - at+dec+sus, f 45;
#X text 480 770 0 \, 1 attack_time 0 \, decay_val decay_time attack_time \, decay_val sus_time attack+decay_time \, 0 release_time attak+decay+systain, f 69;
#X obj 213 718 pack f f f f f f f f;
#X obj 456 640 +;
#X floatatom 456 671 5 0 0 0 - - - 0;
#X floatatom 392 671 5 0 0 0 - - - 0;
#X obj 178 40 loadbang;
#X msg 213 777 1 \$2 0 \, \$3 \$4 \$2 \, \$3 \$5 \$7 \, 0 \$6 \$8;
#X obj 500 30 loadbang;
#X msg 406 75 153;
#X msg 367 75 0;
#X obj 1067 215 r freq;
#X obj 1129 239 +;
#X obj 1157 101 loadbang;
#X floatatom 1157 170 5 0 0 0 pitch\ drop - - 0;
#X obj 1157 200 r totaltime;
#X obj 1059 274 pack f f f f;
#X obj 976 215 r trigger;
#X obj 976 246 bng 19 250 50 0 empty empty empty 0 -10 0 12 #fcfcfc #000000 #000000;
#X msg 1059 305 \$3 \, \$2 \$4;
#X obj 1059 336 vline~;
#X obj 519 640 +;
#X obj 519 671 s totaltime;
#X floatatom 1157 231 5 0 0 0 - - - 0;
#X obj 1058 512 lop~;
#X obj 1116 467 mtof;
#X obj 1116 436 r lowpass;
#X obj 499 195 vsl 19 162 20 1000 0 0 empty empty low\ pass 0 -9 0 12 #c6ffc7 #000000 #000000 0 1;
#X floatatom 499 372 5 0 0 0 - - - 0;
#X obj 613 552 s lowpass;
#X obj 566 195 vsl 19 162 0 15 0 0 empty empty distortion 0 -9 0 12 #c6ffc7 #000000 #000000 0 1;
#X floatatom 566 372 5 0 0 0 - - - 0;
#X obj 613 521 s dist;
#X obj 1116 405 r dist;
#X obj 1059 429 *~;
#X text 933 114 PITCH SIDE;
#X msg 577 75 7;
#X msg 531 75 80;
#X msg 445 75 50;
#X msg 320 75 34, f 4;
#X text 68 635 ADSR SIDE;
#X obj 613 490 s reverb;
#X msg 178 71 33, f 5;
#X obj 790 111 inlet;
#X floatatom 122 373 5 0 0 0 - - - 0;
#X msg 102 73 0.6;
#X obj 1058 649 outlet~;
#X text 1053 667 audio outlet;
#X msg 492 75 85;
#X msg 1157 139 200;
#X obj 1182 293 noise~;
#X obj 642 195 vsl 19 162 0 1 0 0 empty empty noise 0 -9 0 12 #c6ffc7 #000000 #000000 0 1;
#X floatatom 642 372 5 0 0 0 - - - 0;
#X obj 643 436 s noise;
#X obj 1217 355 r noise;
#X obj 1179 355 *~;
#X obj 1181 323 lop~;
#X floatatom 1237 325 5 0 0 0 - - - 0;
#X connect 0 0 1 0;
#X connect 2 0 21 0;
#X connect 3 0 6 0;
#X connect 4 0 5 0;
#X connect 4 0 69 0;
#X connect 6 0 59 0;
#X connect 7 0 8 0;
#X connect 8 0 27 1;
#X connect 8 0 28 0;
#X connect 8 0 24 0;
#X connect 8 0 46 0;
#X connect 11 0 12 0;
#X connect 12 0 27 2;
#X connect 13 0 14 0;
#X connect 14 0 27 3;
#X connect 14 0 24 0;
#X connect 14 0 28 0;
#X connect 14 0 46 0;
#X connect 15 0 16 0;
#X connect 16 0 27 4;
#X connect 16 0 28 0;
#X connect 16 0 46 0;
#X connect 17 0 18 0;
#X connect 18 0 27 5;
#X connect 18 0 46 0;
#X connect 19 0 20 1;
#X connect 19 0 23 0;
#X connect 20 0 71 0;
#X connect 21 0 27 0;
#X connect 22 0 6 1;
#X connect 24 0 27 6;
#X connect 24 0 30 0;
#X connect 27 0 9 0;
#X connect 27 0 32 0;
#X connect 28 0 27 7;
#X connect 28 0 29 0;
#X connect 31 0 67 0;
#X connect 31 0 70 0;
#X connect 32 0 22 0;
#X connect 33 0 64 0;
#X connect 33 0 35 0;
#X connect 33 0 34 0;
#X connect 33 0 63 0;
#X connect 33 0 73 0;
#X connect 33 0 61 0;
#X connect 33 0 62 0;
#X connect 34 0 13 0;
#X connect 35 0 11 0;
#X connect 36 0 37 0;
#X connect 36 0 41 1;
#X connect 37 0 41 2;
#X connect 38 0 74 0;
#X connect 39 0 37 1;
#X connect 40 0 41 3;
#X connect 40 0 48 0;
#X connect 41 0 44 0;
#X connect 42 0 43 0;
#X connect 43 0 41 0;
#X connect 44 0 45 0;
#X connect 45 0 3 0;
#X connect 46 0 47 0;
#X connect 49 0 20 0;
#X connect 50 0 49 1;
#X connect 51 0 50 0;
#X connect 52 0 53 0;
#X connect 53 0 54 0;
#X connect 55 0 56 0;
#X connect 56 0 57 0;
#X connect 58 0 59 1;
#X connect 59 0 49 0;
#X connect 61 0 55 0;
#X connect 62 0 52 0;
#X connect 63 0 15 0;
#X connect 64 0 7 0;
#X connect 67 0 0 0;
#X connect 68 0 10 0;
#X connect 70 0 4 0;
#X connect 73 0 17 0;
#X connect 74 0 39 0;
#X connect 75 0 81 0;
#X connect 76 0 77 0;
#X connect 77 0 78 0;
#X connect 79 0 80 1;
#X connect 80 0 6 0;
#X connect 81 0 80 0;
#X connect 82 0 81 1;
#X coords 0 -1 1 1 600 320 1 100 100;
#X restore 41 96 pd kick;
#N canvas 1230 633 450 300 hitAtoTrigger 0;
#X obj 257 89 key;
#X obj 282 139 sel;
#X floatatom 203 96 5 0 0 0 key_code - - 0;
#X obj 257 120 bng 19 250 50 0 empty empty empty 0 -10 0 12 #fcfcfc #000000 #000000;
#X obj 223 163 bng 19 250 50 0 empty empty empty 0 -10 0 12 #fcfcfc #000000 #000000;
#X floatatom 203 126 5 0 0 0 - - - 0;
#X obj 200 31 loadbang;
#X msg 203 65 97;
#X obj 226 218 outlet;
#X connect 0 0 3 0;
#X connect 0 0 5 0;
#X connect 0 0 1 0;
#X connect 1 0 4 0;
#X connect 2 0 1 1;
#X connect 4 0 8 0;
#X connect 6 0 7 0;
#X connect 7 0 2 0;
#X restore 41 43 pd hitAtoTrigger;
#X obj 40 451 dac~;
#X text 170 43 change for different triggers;
#X text 104 448 send to your audio output!;
#X connect 0 0 2 0;
#X connect 0 0 2 1;
#X connect 1 0 0 0;
