#N canvas -4 139 1920 976 12;
#N canvas 277 1271 1920 976 mercury 1;
#X obj 771 312 mtof;
#X obj 771 342 osc~;
#X obj 649 441 *~;
#X obj 770 68 tgl 30 0 empty empty trigger_on 0 -10 0 12 #ff8300 #000000 #000000 0 1;
#X obj 438 257 hsl 90 19 0 0.1 0 0 empty empty volume -2 -10 0 12 #c6feff #000000 #000000 0 1;
#X obj 540 707 freeverb~;
#X msg 503 646 wet \$1;
#X msg 557 646 dry \$1;
#X obj 503 587 hsl 128 15 0 1 0 0 empty empty empty -2 -8 0 10 #c6feff #000000 #000000 0 1;
#N canvas 1 80 450 300 inv 0;
#X obj 154 69 inlet;
#X obj 154 179 outlet;
#X msg 154 124 1;
#X obj 154 97 t b f;
#X obj 154 151 -;
#X connect 0 0 3 0;
#X connect 2 0 4 0;
#X connect 3 0 2 0;
#X connect 3 1 4 1;
#X connect 4 0 1 0;
#X restore 557 619 pd inv;
#X floatatom 615 644 5 0 0 0 - - - 0;
#X text 489 569 dry;
#X text 625 569 wet, f 4;
#X floatatom 515 620 5 0 0 0 - - - 0;
#X text 544 567 Reverb;
#X msg 445 348 0;
#X obj 445 325 select 0 1;
#X msg 477 349 1;
#X obj 525 349 *~;
#X msg 771 148 59;
#X obj 1285 683 hsl 128 15 -1 1 0 0 empty empty empty -2 -8 0 10 #ffe3c6 #000000 #000000 0 1;
#N canvas 1 80 450 300 inv 0;
#X obj 154 69 inlet;
#X obj 154 179 outlet;
#X msg 154 124 1;
#X obj 154 97 t b f;
#X obj 154 151 -;
#X connect 0 0 3 0;
#X connect 2 0 4 0;
#X connect 3 0 2 0;
#X connect 3 1 4 1;
#X connect 4 0 1 0;
#X restore 1286 707 pd inv;
#X obj 599 735 *~;
#X obj 540 734 *~;
#X floatatom 1283 657 5 0 0 0 - - - 0;
#X obj 1282 628 sin;
#X obj 1157 313 metro;
#X obj 1157 337 bng 19 250 50 0 empty empty empty 0 -10 0 12 #fcfcfc #000000 #000000;
#X obj 1212 384 + 1;
#X floatatom 1158 432 5 0 0 0 - - - 0;
#X obj 1158 455 / 360;
#X obj 1158 479 * 6.28319;
#X obj 1280 599 * 1;
#X obj 1158 271 tgl 19 0 empty empty empty 0 -10 0 12 #fcfcfc #000000 #000000 0 1;
#X msg 1409 151 10, f 4;
#X text 443 302 on and off;
#X text 769 284 note;
#X text 512 531 reverb controls;
#X text 1152 243 metro sequencer;
#X text 1381 118 global speed;
#X msg 945 148 90;
#X obj 1158 384 int;
#X text 1158 119 planet rotation;
#X text 1153 130 around sun (days);
#X obj 1345 613 /;
#X msg 1343 586 686.98;
#X msg 1135 151 87, f 22;
#X obj 772 371 *~ 0.5;
#X obj 989 779 mtof;
#X obj 960 820 lop~;
#X obj 943 776 mtof;
#X obj 914 818 lop~;
#X text 1003 803 lowpass at the note value (remove scratches);
#X obj 1158 408 % 360;
#X text 778 128 note value;
#X text 939 123 planet position;
#X text 990 139 in orbit;
#X text 1278 549 panning speed;
#X obj 762 18 inlet;
#X obj 1408 180 r planet_speed;
#X obj 1089 900 s~ planet_right;
#X obj 137 157 hsl 130 20 -1 1 0 0 empty empty empty -2 -8 0 10 #ff0400 #000000 #000000 0 1;
#X text 172 131 Mercury;
#X obj 136 361 hsl 130 20 -1 1 0 0 empty empty empty -2 -8 0 10 #ffc7c6 #000000 #000000 0 1;
#X text 146 275 planet position;
#X text 170 291 in orbit;
#X text 146 208 planet rotation;
#X text 141 219 around sun (days);
#X text 177 338 volume;
#X floatatom 180 309 5 0 0 0 - - - 0;
#X floatatom 158 242 12 0 0 0 - - - 0;
#X obj 927 908 s~ planet_left;
#X connect 0 0 1 0;
#X connect 1 0 47 0;
#X connect 2 0 5 0;
#X connect 2 0 5 1;
#X connect 3 0 16 0;
#X connect 3 0 46 0;
#X connect 3 0 40 0;
#X connect 3 0 19 0;
#X connect 3 0 33 0;
#X connect 4 0 18 0;
#X connect 5 0 23 0;
#X connect 5 1 22 0;
#X connect 6 0 5 0;
#X connect 7 0 5 0;
#X connect 8 0 6 0;
#X connect 8 0 9 0;
#X connect 8 0 13 0;
#X connect 9 0 7 0;
#X connect 9 0 10 0;
#X connect 15 0 18 1;
#X connect 16 0 15 0;
#X connect 16 1 17 0;
#X connect 17 0 18 1;
#X connect 18 0 2 1;
#X connect 19 0 0 0;
#X connect 19 0 48 0;
#X connect 19 0 50 0;
#X connect 20 0 21 0;
#X connect 20 0 23 1;
#X connect 20 0 61 0;
#X connect 21 0 22 1;
#X connect 22 0 49 0;
#X connect 23 0 51 0;
#X connect 25 0 20 0;
#X connect 25 0 24 0;
#X connect 26 0 27 0;
#X connect 27 0 41 0;
#X connect 28 0 41 1;
#X connect 29 0 30 0;
#X connect 30 0 31 0;
#X connect 31 0 32 0;
#X connect 32 0 25 0;
#X connect 33 0 26 0;
#X connect 33 0 40 0;
#X connect 34 0 26 1;
#X connect 40 0 41 1;
#X connect 40 0 69 0;
#X connect 41 0 28 0;
#X connect 41 0 53 0;
#X connect 44 0 32 1;
#X connect 45 0 44 0;
#X connect 46 0 44 1;
#X connect 46 0 45 0;
#X connect 46 0 70 0;
#X connect 47 0 2 0;
#X connect 48 0 49 1;
#X connect 49 0 60 0;
#X connect 50 0 51 1;
#X connect 51 0 71 0;
#X connect 53 0 29 0;
#X connect 58 0 3 0;
#X connect 59 0 26 1;
#X coords 0 976 1 975 200 300 0;
#X restore 546 108 pd mercury;
#N canvas 277 -18 1920 976 mercury 0;
#X obj 771 312 mtof;
#X obj 771 342 osc~;
#X obj 649 441 *~;
#X obj 770 68 tgl 30 0 empty empty trigger_on 0 -10 0 12 #ff8300 #000000 #000000 0 1;
#X obj 438 257 hsl 90 19 0 0.1 0 0 empty empty volume -2 -10 0 12 #c6feff #000000 #000000 0 1;
#X obj 540 707 freeverb~;
#X msg 503 646 wet \$1;
#X msg 557 646 dry \$1;
#X obj 503 587 hsl 128 15 0 1 0 0 empty empty empty -2 -8 0 10 #c6feff #000000 #000000 0 1;
#N canvas 1 80 450 300 inv 0;
#X obj 154 69 inlet;
#X obj 154 179 outlet;
#X msg 154 124 1;
#X obj 154 97 t b f;
#X obj 154 151 -;
#X connect 0 0 3 0;
#X connect 2 0 4 0;
#X connect 3 0 2 0;
#X connect 3 1 4 1;
#X connect 4 0 1 0;
#X restore 557 619 pd inv;
#X floatatom 615 644 5 0 0 0 - - - 0;
#X text 489 569 dry;
#X text 625 569 wet, f 4;
#X floatatom 515 620 5 0 0 0 - - - 0;
#X text 544 567 Reverb;
#X msg 445 348 0;
#X obj 445 325 select 0 1;
#X msg 477 349 1;
#X obj 525 349 *~;
#X msg 771 148 59;
#X obj 1285 683 hsl 128 15 -1 1 0 0 empty empty empty -2 -8 0 10 #ffe3c6 #000000 #000000 0 1;
#N canvas 1 80 450 300 inv 0;
#X obj 154 69 inlet;
#X obj 154 179 outlet;
#X msg 154 124 1;
#X obj 154 97 t b f;
#X obj 154 151 -;
#X connect 0 0 3 0;
#X connect 2 0 4 0;
#X connect 3 0 2 0;
#X connect 3 1 4 1;
#X connect 4 0 1 0;
#X restore 1286 707 pd inv;
#X obj 599 735 *~;
#X obj 540 734 *~;
#X floatatom 1283 657 5 0 0 0 - - - 0;
#X obj 1282 628 sin;
#X obj 1157 313 metro;
#X obj 1157 337 bng 19 250 50 0 empty empty empty 0 -10 0 12 #fcfcfc #000000 #000000;
#X obj 1212 384 + 1;
#X floatatom 1158 432 5 0 0 0 - - - 0;
#X obj 1158 455 / 360;
#X obj 1158 479 * 6.28319;
#X obj 1280 599 * 1;
#X obj 1158 271 tgl 19 0 empty empty empty 0 -10 0 12 #fcfcfc #000000 #000000 0 1;
#X msg 1409 151 10, f 4;
#X text 443 302 on and off;
#X text 769 284 note;
#X text 512 531 reverb controls;
#X text 1152 243 metro sequencer;
#X text 1381 118 global speed;
#X msg 945 148 90;
#X obj 1158 384 int;
#X text 1158 119 planet rotation;
#X text 1153 130 around sun (days);
#X obj 1345 613 /;
#X msg 1343 586 686.98;
#X msg 1135 151 87, f 22;
#X obj 772 371 *~ 0.5;
#X obj 989 779 mtof;
#X obj 960 820 lop~;
#X obj 943 776 mtof;
#X obj 914 818 lop~;
#X text 1003 803 lowpass at the note value (remove scratches);
#X obj 1158 408 % 360;
#X text 778 128 note value;
#X text 939 123 planet position;
#X text 990 139 in orbit;
#X text 1278 549 panning speed;
#X obj 762 18 inlet;
#X obj 1408 180 r planet_speed;
#X obj 1089 900 s~ planet_right;
#X obj 137 157 hsl 130 20 -1 1 0 0 empty empty empty -2 -8 0 10 #ff0400 #000000 #000000 0 1;
#X text 172 131 Mercury;
#X obj 136 361 hsl 130 20 -1 1 0 0 empty empty empty -2 -8 0 10 #ffc7c6 #000000 #000000 0 1;
#X text 146 275 planet position;
#X text 170 291 in orbit;
#X text 146 208 planet rotation;
#X text 141 219 around sun (days);
#X text 177 338 volume;
#X floatatom 180 309 5 0 0 0 - - - 0;
#X floatatom 158 242 12 0 0 0 - - - 0;
#X obj 927 908 s~ planet_left;
#X connect 0 0 1 0;
#X connect 1 0 47 0;
#X connect 2 0 5 0;
#X connect 2 0 5 1;
#X connect 3 0 16 0;
#X connect 3 0 46 0;
#X connect 3 0 40 0;
#X connect 3 0 19 0;
#X connect 3 0 33 0;
#X connect 4 0 18 0;
#X connect 5 0 23 0;
#X connect 5 1 22 0;
#X connect 6 0 5 0;
#X connect 7 0 5 0;
#X connect 8 0 6 0;
#X connect 8 0 9 0;
#X connect 8 0 13 0;
#X connect 9 0 7 0;
#X connect 9 0 10 0;
#X connect 15 0 18 1;
#X connect 16 0 15 0;
#X connect 16 1 17 0;
#X connect 17 0 18 1;
#X connect 18 0 2 1;
#X connect 19 0 0 0;
#X connect 19 0 48 0;
#X connect 19 0 50 0;
#X connect 20 0 21 0;
#X connect 20 0 23 1;
#X connect 20 0 61 0;
#X connect 21 0 22 1;
#X connect 22 0 49 0;
#X connect 23 0 51 0;
#X connect 25 0 20 0;
#X connect 25 0 24 0;
#X connect 26 0 27 0;
#X connect 27 0 41 0;
#X connect 28 0 41 1;
#X connect 29 0 30 0;
#X connect 30 0 31 0;
#X connect 31 0 32 0;
#X connect 32 0 25 0;
#X connect 33 0 26 0;
#X connect 33 0 40 0;
#X connect 34 0 26 1;
#X connect 40 0 41 1;
#X connect 40 0 69 0;
#X connect 41 0 28 0;
#X connect 41 0 53 0;
#X connect 44 0 32 1;
#X connect 45 0 44 0;
#X connect 46 0 44 1;
#X connect 46 0 45 0;
#X connect 46 0 70 0;
#X connect 47 0 2 0;
#X connect 48 0 49 1;
#X connect 49 0 60 0;
#X connect 50 0 51 1;
#X connect 51 0 71 0;
#X connect 53 0 29 0;
#X connect 58 0 3 0;
#X connect 59 0 26 1;
#X coords 0 -1 1 1 200 300 1 100 100;
#X restore 924 136 pd mercury;
#X obj 81 459 r~ planet_left;
#X obj 105 486 r~ planet_right;
#X obj 81 524 dac~;
#X connect 2 0 4 0;
#X connect 3 0 4 1;
